<svg width="65" height="47" viewBox="0 0 65 47" fill="none" xmlns="http://www.w3.org/2000/svg">
<path d="M15.8069 47H6.87831L16.6005 30.2567L16.1376 29.8612C15.6085 30.0589 14.6825 30.2567 13.6905 30.2567C6.21693 30.2567 0 24.0603 0 15.425C0 6.72371 6.94445 0 15.5423 0C24.1402 0 30.9524 6.59187 30.9524 15.425C30.9524 18.5891 30.0265 21.1599 28.3069 24.2581L15.8069 47Z" fill="#00FAC8"/>
<path d="M49.8545 47H40.9259L50.6482 30.2567L50.1852 29.8612C49.6561 30.0589 48.7302 30.2567 47.7381 30.2567C40.2646 30.2567 34.0476 24.0603 34.0476 15.425C34.0476 6.72371 40.9921 0 49.59 0C58.1878 0 65 6.59187 65 15.425C65 18.5891 64.0741 21.1599 62.3545 24.2581L49.8545 47Z" fill="#00FAC8"/>
</svg>
