<svg width="18" height="16" viewBox="0 0 18 16" fill="none" xmlns="http://www.w3.org/2000/svg">
<path d="M17.5147 7.44116C17.7165 7.30142 17.8662 7.10648 17.9428 6.88367C18.0194 6.66087 18.0191 6.42137 17.9418 6.19875C17.8646 5.97614 17.7143 5.78157 17.5121 5.64234C17.3098 5.50311 17.0658 5.42619 16.8142 5.42237L11.9269 5.25077C11.9029 5.24923 11.8799 5.24127 11.8606 5.22783C11.8413 5.2144 11.8266 5.19608 11.8183 5.17507L10.1295 0.935622C10.0446 0.719935 9.89053 0.533691 9.68802 0.402106C9.48551 0.270521 9.24438 0.199951 8.99729 0.199951C8.75019 0.199951 8.50906 0.270521 8.30655 0.402106C8.10404 0.533691 7.94992 0.719935 7.86507 0.935622L6.18169 5.19021C6.17337 5.21122 6.15869 5.22954 6.13942 5.24297C6.12015 5.25641 6.09711 5.26437 6.07308 5.26592L1.18583 5.43751C0.934199 5.44133 0.690159 5.51825 0.487932 5.65748C0.285706 5.79671 0.135435 5.99128 0.0581892 6.21389C-0.0190565 6.43651 -0.0194031 6.67601 0.0571981 6.89881C0.133799 7.12162 0.283507 7.31656 0.485329 7.4563L4.3191 10.2574C4.33829 10.2714 4.35263 10.2903 4.36035 10.3119C4.36807 10.3334 4.36884 10.3566 4.36255 10.3785L3.04299 14.7239C2.97461 14.9452 2.98123 15.1807 3.06196 15.3983C3.14269 15.616 3.2936 15.8053 3.49416 15.9404C3.69473 16.0755 3.93521 16.1499 4.18289 16.1535C4.43057 16.1571 4.67343 16.0897 4.87842 15.9604L8.92941 13.4369C8.94936 13.4241 8.97304 13.4173 8.99729 13.4173C9.02153 13.4173 9.04521 13.4241 9.06516 13.4369L13.1161 15.9604C13.3184 16.0941 13.5604 16.1659 13.8085 16.1659C14.0567 16.1659 14.2986 16.0941 14.5009 15.9604C14.7015 15.8266 14.8525 15.6382 14.9333 15.4213C15.014 15.2044 15.0204 14.9696 14.9516 14.7492L13.6212 10.3886C13.6141 10.3667 13.6145 10.3433 13.6223 10.3216C13.6301 10.3 13.6448 10.281 13.6646 10.2675L17.5147 7.44116Z" fill="#FFD233"/>
</svg>
