<svg width="65" height="47" viewBox="0 0 65 47" fill="none" xmlns="http://www.w3.org/2000/svg">
<path d="M49.1931 2.43282e-06L58.1217 3.21338e-06L48.3995 16.7433L48.8624 17.1388C49.3915 16.9411 50.3175 16.7433 51.3095 16.7433C58.7831 16.7433 65 22.9397 65 31.575C65 40.2763 58.0556 47 49.4577 47C40.8598 47 34.0476 40.4081 34.0476 31.575C34.0476 28.4109 34.9735 25.8401 36.6931 22.7419L49.1931 2.43282e-06Z" fill="#00FAC8"/>
<path d="M15.1455 -5.43722e-07L24.0741 2.36839e-07L14.3518 16.7433L14.8148 17.1388C15.3439 16.9411 16.2698 16.7433 17.2619 16.7433C24.7354 16.7433 30.9524 22.9397 30.9524 31.575C30.9524 40.2763 24.0079 47 15.41 47C6.81216 47 -7.05312e-06 40.4081 -6.2809e-06 31.575C-6.00429e-06 28.4109 0.92592 25.8401 2.64549 22.7419L15.1455 -5.43722e-07Z" fill="#00FAC8"/>
</svg>
