<svg xmlns="http://www.w3.org/2000/svg" viewBox="0 0 500 500"><g id="freepik--background-simple--inject-26"><path d="M77.51,143.46l2-3.54c16.48-29.87,47.92-48.87,82-48.34a91.21,91.21,0,0,1,13.1,1.15c31.23,5.09,59.21,26.92,71.75,56,7.37,17.08,10.14,37,23.23,50.24,17,17.21,44.56,16.49,68.71,14.61S390,211,406.93,228.3c10.62,10.83,14.58,26.74,14.47,41.9-.28,40.15-26.86,77.28-62,96.77s-77.35,23-117,17.06C186.76,375.64,133,348,99.27,302.92S54.66,194.86,77.51,143.46Z" style="fill:#ebebeb"></path></g><g id="freepik--Character--inject-26"><path d="M197.76,247.14l-8,4.29-17.71,13.63s-54.23,7.2-56.31,8.76-29,14.37-32.7,31.56-11.14,129.3-11.14,129.3l9.84,33.12,197.51.31,46.32-.66s17.79-41.57,17.79-53-5.2-97.37-5.2-97.37l-55.55-39.17Z" style="fill:#FF9900"></path><path d="M171.55,264.25a2.38,2.38,0,0,1-.27.46c-.24.34-.52.76-.87,1.27-.78,1.08-1.84,2.7-3.07,4.73-.6,1-1.28,2.14-1.91,3.39s-1.31,2.58-2,4a81.22,81.22,0,0,0-3.59,9.58A129.67,129.67,0,0,0,156,305.86c-.34,2.3-.61,4.19-.81,5.59-.09.61-.16,1.11-.22,1.52a1.82,1.82,0,0,1-.12.52,2.12,2.12,0,0,1,0-.53c0-.41.08-.92.13-1.54.12-1.33.34-3.25.64-5.61a116.3,116.3,0,0,1,3.76-18.29,77.6,77.6,0,0,1,3.65-9.61c.68-1.44,1.34-2.79,2-4s1.35-2.36,2-3.38c1.29-2,2.39-3.61,3.22-4.66l.95-1.21A2.37,2.37,0,0,1,171.55,264.25Z" style="fill:#263238"></path><g style="opacity:0.30000000000000004"><path d="M172.78,297.21c-.33-1.06-.75-2.25-1.78-2.66-.8-.33-.48.19-1.28.53-7.5,3.09-11.12,10-14.3,17.84l.18-.19a3.13,3.13,0,0,0,1.23,3.63c1.69,1,3.86.45,5.6-.45s3.33-2.15,5.23-2.63c4.1-1.06,8.19,1.75,11.09,4.85s5.5,6.78,9.46,8.31A91.21,91.21,0,0,1,172.78,297.21Z"></path></g><path d="M154.83,313.49a48.21,48.21,0,0,1,3.18-6.36,47.68,47.68,0,0,1,4.76-6.84,27.65,27.65,0,0,1,3.74-3.65,12.44,12.44,0,0,1,5.28-2.53l.15,0,.06.15c1.25,3.27,2.57,6.84,4.1,10.6a83.12,83.12,0,0,0,5.59,11.58,56,56,0,0,0,8.6,11.12,70.5,70.5,0,0,0,11.77,9.34c1.45.85,2.85,1.76,4.3,2.56l4.33,2.31h-.26l7.22-5,3.5-2.41c1.16-.79,2.29-1.58,3.36-2.42a88.35,88.35,0,0,0,11.2-10.53l0,0h0A42.15,42.15,0,0,0,246,310.17a38.48,38.48,0,0,0,4.63-10.77,39.67,39.67,0,0,0,1.18-7.46c.06-.88,0-1.55.07-2s0-.68,0-.68,0,.23,0,.68,0,1.13,0,2a36.8,36.8,0,0,1-1.06,7.52,38.4,38.4,0,0,1-4.57,10.9A42.38,42.38,0,0,1,236,321.73l0,0a88.61,88.61,0,0,1-11.24,10.63c-1.08.85-2.21,1.65-3.37,2.44l-3.5,2.42-7.22,5-.12.09-.14-.07-4.35-2.32c-1.46-.8-2.87-1.71-4.32-2.57a69.78,69.78,0,0,1-11.87-9.42,56.23,56.23,0,0,1-8.65-11.23A83.17,83.17,0,0,1,175.69,305c-1.52-3.78-2.82-7.36-4.05-10.63l.21.12a12.15,12.15,0,0,0-5.13,2.43,27.63,27.63,0,0,0-3.72,3.57,49.61,49.61,0,0,0-4.81,6.75c-1.17,2-2,3.54-2.53,4.61l-.61,1.23A1.73,1.73,0,0,1,154.83,313.49Z" style="fill:#263238"></path><path d="M266.6,288.87a99.28,99.28,0,0,1-.72,15.25,116.68,116.68,0,0,1-3.05,16.37,138.74,138.74,0,0,1-6.62,19.38l-.38.9-.12-1c-.07-.58-.12-1.21-.22-1.85A53.39,53.39,0,0,0,253,327.38c-.57-1.66-1.22-3.26-1.92-4.8-.35-.77-.72-1.52-1.1-2.26a13.68,13.68,0,0,0-1.22-2.08A4.08,4.08,0,0,0,247,316.8a2,2,0,0,0-2,.38,14.68,14.68,0,0,0-1.52,1.62l-1.45,1.65-5.29,6-7.69,8.71L227,337.56l-.56.6-.2.19a1.5,1.5,0,0,1,.16-.23l.52-.63,2-2.42,7.56-8.82,5.24-6.08c.48-.55,1-1.1,1.44-1.67a15.4,15.4,0,0,1,1.58-1.68,2.44,2.44,0,0,1,2.41-.46,4.52,4.52,0,0,1,1.94,1.59,14.18,14.18,0,0,1,1.28,2.15c.38.74.76,1.5,1.11,2.27.71,1.55,1.37,3.17,2,4.84A54.41,54.41,0,0,1,256,337.87c.1.64.15,1.28.22,1.87l-.5-.07a142.58,142.58,0,0,0,6.64-19.3,122,122,0,0,0,3.15-16.29c.58-4.68.82-8.49.92-11.12.07-1.32.07-2.34.1-3,0-.32,0-.58,0-.79S266.6,288.87,266.6,288.87Z" style="fill:#263238"></path><path d="M192,261.24s0,.08-.15.2l-.48.54c-.44.46-1,1.19-1.75,2.14a39.71,39.71,0,0,0-4.8,9,57.59,57.59,0,0,0-3.59,14.62,58.62,58.62,0,0,0,.8,18.38,48.76,48.76,0,0,0,2.8,9.13A47.69,47.69,0,0,0,189,323.1a50.69,50.69,0,0,0,10,11.22c1.61,1.42,3.25,2.48,4.62,3.5s2.69,1.72,3.73,2.31l2.43,1.34.63.36a.87.87,0,0,1,.21.14s-.08,0-.23-.09l-.65-.32-2.49-1.25c-1.06-.57-2.31-1.37-3.79-2.25s-3-2-4.69-3.46a50.12,50.12,0,0,1-10.18-11.24,47.81,47.81,0,0,1-4.17-8,49.13,49.13,0,0,1-2.84-9.21,58.17,58.17,0,0,1-.76-18.55,57,57,0,0,1,3.72-14.7,38,38,0,0,1,5-8.94,21,21,0,0,1,1.85-2.09l.51-.51Z" style="fill:#263238"></path><path d="M106.94,357.33s.08.08.2.28l.53.93-.15,0c-.71-3.36-2.65-13.66-4.86-25.85-1.32-7.5-2.52-14.29-3.41-19.3-.4-2.42-.73-4.4-1-5.86-.09-.65-.17-1.17-.23-1.6a2.14,2.14,0,0,1-.05-.56,2.76,2.76,0,0,1,.15.55c.09.41.2.94.33,1.58.29,1.44.67,3.42,1.14,5.83.93,5,2.18,11.77,3.57,19.27,2.2,12.18,4,22.52,4.5,25.91l.08.51-.23-.46-.47-1A1.46,1.46,0,0,1,106.94,357.33Z" style="fill:#263238"></path><path d="M104.53,355.27c-.13.06-2.65-5-5.63-11.31s-5.28-11.48-5.15-11.54,2.65,5,5.63,11.31S104.66,355.21,104.53,355.27Z" style="fill:#263238"></path><g style="opacity:0.30000000000000004"><path d="M103.5,465.22c6.27,3.15,20.81-2.41,26.09-9.34s6.81-15.95,8-24.59q2.59-19.53,3.7-39.21a59.6,59.6,0,0,0,37.55,11.34c8.48-.39,18.15-3.76,20.78-11.83s-3-16.21-8.8-22.28a136.76,136.76,0,0,0-18-15.8c-4.23-3.1-8.87-6-14.09-6.61-5.63-.61-11.32,1.69-15.6,5.4s-7.27,8.71-9.46,13.93c-6.69,15.95-6.33,33.8-7.7,51s-3.19,35.09-18.46,46.31"></path></g><path d="M103.91,465.28a2.53,2.53,0,0,1,.43-.2l1.26-.55a22.9,22.9,0,0,0,4.28-2.94,59.64,59.64,0,0,0,11.55-14.4l0,.08c.91-6.85,2-14.85,3.11-23.35,1.84-13.48,3.46-25.68,4.77-34.5.81-4.35,1.46-7.88,1.93-10.38.23-1.19.41-2.13.55-2.82l.15-.73a1,1,0,0,1,.07-.24.69.69,0,0,1,0,.25c0,.2-.07.44-.11.74l-.45,2.84c-.43,2.5-1,6-1.77,10.4-1.18,8.87-2.81,21-4.61,34.51-1.16,8.5-2.25,16.49-3.18,23.34v.05l0,0a58.35,58.35,0,0,1-11.78,14.39,21.31,21.31,0,0,1-4.39,2.86c-.56.23-1,.38-1.3.48A1.47,1.47,0,0,1,103.91,465.28Z" style="fill:#263238"></path><path d="M200.17,467.45a1.3,1.3,0,0,1-.1-.31c-.06-.24-.13-.55-.22-.94-.18-.83-.51-2-.77-3.62A90.74,90.74,0,0,1,197.7,449a131.39,131.39,0,0,1,1.08-20.18c.92-7.56,2.45-15.79,4.23-24.39s3.85-16.71,5.59-24.1a114.54,114.54,0,0,0,3.21-19.88,72.33,72.33,0,0,0-.5-13.56c-.17-1.6-.44-2.82-.56-3.66l-.14-.95a1.38,1.38,0,0,1,0-.33,1.29,1.29,0,0,1,.08.32c.05.24.12.55.2.94.14.83.45,2,.65,3.65a69.45,69.45,0,0,1,.67,13.61,112.36,112.36,0,0,1-3.11,20c-1.72,7.41-3.85,15.49-5.55,24.1s-3.32,16.8-4.27,24.34A134.38,134.38,0,0,0,198.07,449a96.27,96.27,0,0,0,1.21,13.53c.23,1.59.53,2.8.67,3.64.07.39.13.71.17.95S200.17,467.45,200.17,467.45Z" style="fill:#263238"></path><path d="M217,354.69c-.12-.08,1.6-2.83,3.52-6.34s3.31-6.44,3.45-6.38a7.65,7.65,0,0,1-.72,2c-.52,1.21-1.31,2.85-2.27,4.62s-1.93,3.31-2.67,4.4A7.81,7.81,0,0,1,217,354.69Z" style="fill:#263238"></path><g style="opacity:0.30000000000000004"><path d="M220.22,350.54a167.38,167.38,0,0,1,16.89-17.11c1.65-1.45,3.44-2.92,5.61-3.28,2.64-.44,5.33.92,7.16,2.88a24.7,24.7,0,0,1,4.08,6.88c2.62-6.44-.1-13.7-2.8-20.11-.88-2.09-2.4-4.57-4.64-4.23a5.18,5.18,0,0,0-2.88,2.06,312.29,312.29,0,0,0-24,31.75"></path></g><g style="opacity:0.30000000000000004"><path d="M308.14,302.91l.37-3.17c-3.81.36-8.49.81-11.53,3.13-3.55,2.71-5,7.32-6.14,11.62-2.72,9.78,5,60.13,4.6,70.28,3.37-1.43,5.75-23,6.35-26.66,1.48-8.81-1.51-14.31-.6-16.77s.88-5.13.95-7.74c.33-11.69,1.49-19.91,6-30.69"></path></g><path d="M258.43,141.31c-4.84-6-3.25-15.59,2.29-21s14-6.91,21.57-5.63A35.48,35.48,0,0,1,308,134.13c2.6,5.45,4,11.89,8.77,15.59,4.18,3.26,9.94,3.54,14.7,5.88,6.38,3.12,10.5,9.81,12,16.76s.58,14.19-.89,21.15c-1.35,6.38-3.15,13.28-.41,19.19s8.91,8.92,13,13.78c7.74,9.13,6,24.67-3.59,31.85-3.05,2.29-6.91,4-8.37,7.56-1.33,3.22-.2,6.87-.27,10.35-.17,9-10.06,16.35-18.71,14-4.36-1.2-8.38-4.42-12.87-3.81s-7.43,4.73-11,7.4A19.37,19.37,0,0,1,276,292c-2.62-2.61-4.73-6.16-8.31-7.11s-7.33,1.1-11,.6c-4.79-.65-7.94-5.41-9.36-10s-1.79-9.64-4.18-13.84C240,256.09,234,253,229,249.1a49,49,0,0,1-4.2-73.9" style="fill:#263238"></path><path d="M191.36,261.27a46.08,46.08,0,0,0-9.78,40.84c3.57,14.11,15.37,34.74,29,39.86,8.84-6.48,20.2-15.53,28.44-22.75,5.33-4.67,8.16-11.5,10.8-18.08,1.52-3.8,3.07-7.9,2.12-11.88-.71-2.93-2.69-5.37-4.78-7.54a61.13,61.13,0,0,0-52.94-17.66" style="fill:#ef9d78"></path><path d="M231.83,159.68h0a24.26,24.26,0,0,1,27.75-12.78l34.11,8.7c17.05,5.49,30.4,31.88,20.35,55-7.94,18.25-16.07,41.18-24.22,53.78C273.42,289.7,251,283.91,251,283.91l-12.1,27-49.47-46.39Z" style="fill:#ef9d78"></path><path d="M289.43,217.73c.64-.24,2.32,3,6,4.73s7.32,1.24,7.5,1.89c.1.3-.73.9-2.33,1.18a10.41,10.41,0,0,1-6.27-1,10,10,0,0,1-4.52-4.32C289.11,218.83,289.12,217.83,289.43,217.73Z" style="fill:#263238"></path><path d="M250.8,200.14c.72-.14,2.38,3.41,6.36,5.88s8,2.54,8.17,3.23c.09.32-.86.79-2.65.81a13.31,13.31,0,0,1-6.87-2.07,12.51,12.51,0,0,1-4.73-5.21C250.38,201.21,250.45,200.19,250.8,200.14Z" style="fill:#263238"></path><path d="M267.17,237.86c.08-.22,2.59.41,6.59,1.61,1,.32,2,.54,2.45-.05s.59-1.8.62-3.13c.13-2.72.27-5.57.4-8.57.68-12.15,1.61-22,2.1-21.95s.35,9.91-.32,22.07q-.28,4.49-.54,8.56c-.12,1.25-.05,2.77-1.17,4a2.65,2.65,0,0,1-2.21.7,7.14,7.14,0,0,1-1.73-.49C269.46,239.11,267.09,238.08,267.17,237.86Z" style="fill:#263238"></path><path d="M251,284s-19.75-7.4-33.08-26.37c0,0,.75,23.16,30.06,33.16Z" style="fill:#d37a57"></path><path d="M253.9,187.32c.62-1,4.53.36,9.37.79s8.93-.05,9.35,1.06c.18.53-.7,1.42-2.46,2.15a16.37,16.37,0,0,1-14.27-1.41C254.31,188.84,253.62,187.8,253.9,187.32Z" style="fill:#263238"></path><path d="M297.49,198.32c1.26,0,2.82,3.11,5.52,6.08s5.49,5,5.31,6.26c-.12.57-1.17.82-2.83.33a13,13,0,0,1-5.65-3.86,12.77,12.77,0,0,1-3.07-6.08C296.51,199.35,296.9,198.36,297.49,198.32Z" style="fill:#263238"></path><path d="M258.5,248.31s2.32-1.21,1.24-5.67-6.74-8.49-10.33-4.82c0,0-3.62.27-2.2,4.45s9.68,10.08,11.22,6.72" style="fill:#d37a57"></path><path d="M257.15,251.72c-.66-.12.34-4.47-2.66-8.42s-7.74-4.55-7.63-5.17c0-.29,1.23-.6,3.2-.2a11.07,11.07,0,0,1,6.42,4.07,9.66,9.66,0,0,1,1.95,7C258.18,250.85,257.44,251.81,257.15,251.72Z" style="fill:#263238"></path><path d="M202.66,145.47a21.34,21.34,0,0,0-8.2,17.47c.15,3.74,1.06,8.15-1.69,10.69s-7.22,1.19-11,1.21A14.18,14.18,0,0,0,168.2,187c-.27,2.36,0,4.91-1.16,7s-3.77,3.09-5.89,4.38a17.64,17.64,0,0,0,.59,30.52c2.45,1.35,5.31,2.2,7.1,4.35,2,2.47,2.12,6,3.13,9a14.82,14.82,0,0,0,28.08.2" style="fill:#263238"></path><path d="M258,135.9a21.11,21.11,0,0,0,16.91,27.74c4.74.69,10.4.09,13.46,3.78,3.22,3.88,1.31,10.06,3.86,14.42,3.63,6.21,9.84,11.17,15.72,15.33,4.55,3.21-.65,12.14,1.33,17.34s10.13,17.07,15.69,17.28c1.22-4.65,8.14-25.08,8.26-29.88s-1-9.8-3.94-13.58c-1.63-2.07-3.77-3.72-5.18-5.94-3.05-4.81-2-11-3-16.63A23.1,23.1,0,0,0,308.11,149c-5.55-2.54-12.06-2.82-17.19-6.13-3.79-2.45-6.5-6.36-10.43-8.58-7.65-4.32-17.23-1-25.14,2.8" style="fill:#263238"></path><path d="M221.13,194c-.79-.53-6,3.44-.86,6.61,9.07,5.54,16.86-13.2,16.53-19.43,4.62-2,9.29-3.93,13.36-7S260.31,161,261.4,155.86c3.47,1.41,20.24,1.54,18.78.53-3.31-2.29-10-7.2-10.89-11-1.93-8.35-7.86-15.62-15.7-17.8a19.52,19.52,0,0,0-21.59,9c-9.33-3.08-20.39-.31-27.83,7a32.52,32.52,0,0,0-8.87,28.94c.54,2.66,1.44,5.44.59,8.08-1.06,3.26-4.34,5-6.95,7.14-7.11,5.77-10.17,16-9.3,25.17s2.45,12.86,7,16.19c8.91,6.5-9.61,23.12,7,28.74" style="fill:#263238"></path><path d="M345,257.55c0-.06.59-.41,1.56-1.32a14,14,0,0,0,3.35-4.7,14.28,14.28,0,0,0,.93-8.92c-.78-3.49-3.41-6.81-6.93-9.64s-7.91-5.56-11.09-10.19-3.75-11-2.73-17,3.54-12,5.16-18.31a34.66,34.66,0,0,0,1.23-9.76,19.28,19.28,0,0,0-2.62-9.53,17.67,17.67,0,0,0-7.44-6.45,34.61,34.61,0,0,0-9.4-2.86,67.76,67.76,0,0,1-9.6-1.84,12,12,0,0,1-7.47-5.89c-1.45-2.86-1.77-5.89-2.4-8.64a17.31,17.31,0,0,0-3.24-7.34A20.05,20.05,0,0,0,282,127.86a21.06,21.06,0,0,0-11.86,1.42,27,27,0,0,0-7.68,5,41.08,41.08,0,0,0-5.08,6.05s.05-.18.22-.48a14.91,14.91,0,0,1,.77-1.33,25.55,25.55,0,0,1,3.73-4.61,27,27,0,0,1,7.75-5.3,21.79,21.79,0,0,1,12.31-1.67,20.92,20.92,0,0,1,12.95,7.58,18.44,18.44,0,0,1,3.5,7.76c.66,2.81,1,5.77,2.35,8.34a10.83,10.83,0,0,0,6.78,5.24,66,66,0,0,0,9.43,1.77,36,36,0,0,1,9.77,3,19,19,0,0,1,8,6.93,20.56,20.56,0,0,1,2.8,10.18,35.7,35.7,0,0,1-1.28,10.12c-1.69,6.43-4.23,12.3-5.22,18.19s-.52,11.82,2.44,16.17,7.34,7.06,10.79,10.08,6.29,6.46,7,10.19a14.68,14.68,0,0,1-1.19,9.29,13.45,13.45,0,0,1-3.63,4.69A6.89,6.89,0,0,1,345,257.55Z" style="fill:#455a64"></path><path d="M314.29,197.17c.11.05-.49,1.43-1.1,4.05a29.65,29.65,0,0,0-.35,11.27,28,28,0,0,0,2.26,7.43,37.11,37.11,0,0,0,4.9,7.5,22.08,22.08,0,0,1,2.67,4.29,10.56,10.56,0,0,1,.94,5.3c-.29,3.72-2.12,7-3.48,10.39s-2.23,6.89-.92,10,3.69,5.44,5.94,7.68a30.71,30.71,0,0,1,5.88,7.14,11.11,11.11,0,0,1,1,8.05,13.35,13.35,0,0,1-7.16,8.91,10.42,10.42,0,0,1-3.05.85,3.82,3.82,0,0,1-1.1,0,20.37,20.37,0,0,0,3.93-1.3,13.12,13.12,0,0,0,6.47-8.67,10.34,10.34,0,0,0-1-7.33,29.75,29.75,0,0,0-5.76-6.78c-2.26-2.23-4.89-4.63-6.29-8.09a11.06,11.06,0,0,1-.67-5.54,21.56,21.56,0,0,1,1.58-5.41c1.41-3.45,3.15-6.66,3.41-10s-1.41-6.27-3.3-8.78a37,37,0,0,1-4.92-7.78,28.7,28.7,0,0,1-1.41-19.27,19.72,19.72,0,0,1,1.07-3A3.35,3.35,0,0,1,314.29,197.17Z" style="fill:#455a64"></path><path d="M164.25,228.56s-.22-.12-.57-.42a11.11,11.11,0,0,1-1.46-1.47,15.73,15.73,0,0,1-3.32-7.11,15.28,15.28,0,0,1,2.45-11.87,16.5,16.5,0,0,1,14.07-6.89l-.55.74a25.34,25.34,0,0,1-1.69-10.41,13.35,13.35,0,0,1,5.35-10,10,10,0,0,1,5.85-2,14.73,14.73,0,0,1,6.05,1.71A23.45,23.45,0,0,0,196,183a6,6,0,0,0,5.29-1.57,11.7,11.7,0,0,0,3.28-7.87c.23-2.94-.05-5.93.26-8.92a25,25,0,0,1,7.36-15.16,23.84,23.84,0,0,1,13.54-6.57,24.54,24.54,0,0,1,12.71,1.59l-.56.23a13.12,13.12,0,0,1,6.88-6.32,14.36,14.36,0,0,1,6.93-1,12.11,12.11,0,0,1,4.21,1.22,5.94,5.94,0,0,1,1.27.84,15.17,15.17,0,0,0-5.52-1.58,14.21,14.21,0,0,0-6.62,1.19,12.4,12.4,0,0,0-6.35,6.05l-.18.37-.39-.15a24,24,0,0,0-12.23-1.37,23,23,0,0,0-12.85,6.38,23.85,23.85,0,0,0-6.93,14.43c-.29,2.83,0,5.81-.23,8.91a12.94,12.94,0,0,1-3.69,8.72,7.37,7.37,0,0,1-6.39,1.9,24.51,24.51,0,0,1-5.93-2.27,13.47,13.47,0,0,0-5.5-1.61,8.79,8.79,0,0,0-5.11,1.74,12.1,12.1,0,0,0-4.9,9.12,24.51,24.51,0,0,0,1.53,9.94l.28.78-.83,0a15.58,15.58,0,0,0-13.27,6.31,14.67,14.67,0,0,0-2.55,11.24,16,16,0,0,0,3,7C163.56,227.88,164.3,228.5,164.25,228.56Z" style="fill:#455a64"></path><path d="M257.55,143.43c.06.23-2-.1-4.51,1.75s-4.77,6.18-5.42,11.74l-.05.47-.48,0a17.94,17.94,0,0,0-14.72,6.15,13.87,13.87,0,0,0-2.37,4,27.24,27.24,0,0,0-1,4.84,38,38,0,0,1-1,5.23,8.77,8.77,0,0,1-3.15,4.73c-3.32,2.59-7.4,3-11,3.6a31.23,31.23,0,0,0-10,2.59A23.17,23.17,0,0,0,192.28,201a24.21,24.21,0,0,0-1.37,11.66c.36,2.8,1,4.28.83,4.32a3.74,3.74,0,0,1-.49-1.05,20.71,20.71,0,0,1-.84-3.19,23.54,23.54,0,0,1,1-12.06,23.86,23.86,0,0,1,11.91-13.3,32.07,32.07,0,0,1,10.33-2.77c3.56-.57,7.43-1.07,10.33-3.36,2.86-2,3.17-5.8,3.72-9.13a28.7,28.7,0,0,1,1.11-5.07,15.42,15.42,0,0,1,2.62-4.35,18.87,18.87,0,0,1,15.75-6.33l-.53.44c.8-5.79,3.24-10.27,6.08-12.09a7.7,7.7,0,0,1,3.51-1.31A4.36,4.36,0,0,1,257.55,143.43Z" style="fill:#455a64"></path><path d="M223.06,196.87c2.85-5.58-1-12.61-7.25-12.6-3.45,0-7.15,1.88-10.23,7.78-8.21,15.74,9.29,20.74,9.55,20.3C215.29,212.08,219.72,203.42,223.06,196.87Z" style="fill:#ef9d78"></path><path d="M213.43,203.88c0-.09-.37.05-1,0a3.08,3.08,0,0,1-2.07-1c-1.34-1.48-1.37-4.85,0-7.72a10,10,0,0,1,2.81-3.53,3.57,3.57,0,0,1,3.16-1,1.58,1.58,0,0,1,1.23,1.6c0,.55-.28.81-.22.88s.48-.09.69-.8A2,2,0,0,0,218,191a2.31,2.31,0,0,0-1.31-1.19,4.34,4.34,0,0,0-4.14.94,10.62,10.62,0,0,0-3.24,3.89c-1.55,3.23-1.47,7,.46,8.89a3.34,3.34,0,0,0,2.72.89C213.21,204.24,213.47,203.94,213.43,203.88Z" style="fill:#d37a57"></path><path d="M207.38,415.49c-1.4-2.58-5-4.17-5-4.17l-3-7.35a8,8,0,0,0,0-5.77c-1.19-3.18-9.94-21.65-9.74-22.25l-2.26-.13s8.06,19.55,8.85,20.55,2,6.81,0,7.6-6.21-1.35-8-3.14-7.48-15.24-8.47-18,.77-6.65.77-6.65l1.59-3.77H180a73.3,73.3,0,0,0-2.19,7.74c-.79,3.78,8.15,20.27,9.54,22.06s6.16,3.18,8.74,5,2.19,7.36,2.19,7.36a13.78,13.78,0,0,0-2.39,6.55c-.2,3.58,7.75,20.47,13.11,24s11.73,1,12.32,1.2,2-2.79,2-2.79S208.77,418.07,207.38,415.49ZM214.7,445a11.2,11.2,0,0,1-7.38-4.27c-.65-.86-7.61-13-8.51-15.22-1.56-3.93-.48-6.11.09-8.41.83-3.35,6-1.39,6-1.39s15.22,26.3,14.87,27.1S217.56,445.25,214.7,445Z" style="fill:#263238"></path><path d="M223.27,443.5s44.31-16.86,46.38-18.77,9.55-12.89,9.55-12.89,3.66.63,3.18,1.59-7.48,11.94-15,15.12-46.14,17.74-46.14,17.74Z" style="fill:#263238"></path><path d="M83.05,304.55,64.8,409.81s-6.72,20.48-5.76,25,4.35,23.8,14.59,29.88,30.52,2.11,34.68-2,12.36-11.78,13.32-15.3,7.69-57,7.69-57l2.67-15s-9.92,3.2-16-1-14.08-22.08-14.08-22.08L93,366Z" style="fill:#FF9900"></path><path d="M101.91,352.21a2.89,2.89,0,0,1-.34.59l-1.09,1.65c-.94,1.42-2.3,3.49-3.93,6.07-3.28,5.16-7.66,12.37-12.45,20.38S75,396.16,71.77,401.37c-1.6,2.6-2.92,4.69-3.85,6.13-.45.67-.82,1.22-1.09,1.64a4.44,4.44,0,0,1-.41.55,2.68,2.68,0,0,1,.32-.61l1-1.69,3.72-6.21,12.19-20.55c4.79-8,9.23-15.2,12.59-20.31,1.68-2.56,3.08-4.6,4.08-6l1.16-1.59A3.76,3.76,0,0,1,101.91,352.21Z" style="fill:#263238"></path><path d="M129.7,388.16a2.78,2.78,0,0,1-.38.43c-.27.27-.63.7-1.17,1.17a20.33,20.33,0,0,1-5.05,3.41,15.88,15.88,0,0,1-4,1.27,15.1,15.1,0,0,1-4.86.12,19.79,19.79,0,0,1-5.18-1.4,28.45,28.45,0,0,1-5-2.79,26.78,26.78,0,0,1-4.23-3.9,27.46,27.46,0,0,1-6.08-12.92,26.15,26.15,0,0,1-.41-6.07c0-.72.12-1.27.15-1.65a3.5,3.5,0,0,1,.1-.57,22,22,0,0,1,0,2.23,29.21,29.21,0,0,0,.57,6,28.53,28.53,0,0,0,3.08,8.35,29,29,0,0,0,3,4.3,27.19,27.19,0,0,0,4.16,3.82,28.2,28.2,0,0,0,4.92,2.74,19.73,19.73,0,0,0,5,1.4A15.22,15.22,0,0,0,119,394a16.34,16.34,0,0,0,4-1.18,21.44,21.44,0,0,0,5.06-3.23C129.1,388.68,129.67,388.12,129.7,388.16Z" style="fill:#263238"></path><path d="M101.91,352.21l13.66-8.78s36.4-14.79,40.1-15.64,8-2.56,10,0,22.75,17.63,22.75,17.63,12.23,23,12.23,26.17,3.41,7.13,0,8.26L197.2,381s-1.14,5.58-5.41,6.2-5.69,0-5.69,0-.28,5.58-3.69,5.24-9.1-5.24-9.1-5.24-2.56,2.9-4.55,2.9-8.25-4.26-8.25-4.26l-12.1-10.53-10.66-3.69L132,375.25s-12.3,1.05-14.15,0S101.91,352.21,101.91,352.21Z" style="fill:#ef9d78"></path><path d="M171.82,388.16a10.16,10.16,0,0,1-.63-1.62c-.18-.52-.41-1.16-.72-1.89s-.61-1.57-1.05-2.46-.87-1.89-1.43-2.9-1.19-2.1-1.86-3.23a56.89,56.89,0,0,0-5.07-6.83,58.9,58.9,0,0,0-6.11-5.92c-1-.81-2-1.61-3-2.26s-1.85-1.28-2.69-1.8-1.63-1-2.31-1.36-1.28-.72-1.78-1a11.58,11.58,0,0,1-1.52-.83,9.69,9.69,0,0,1,1.61.65,19.25,19.25,0,0,1,1.83.88c.7.37,1.51.77,2.36,1.3s1.79,1.08,2.75,1.77,2,1.43,3,2.24a50.08,50.08,0,0,1,11.29,12.87c.67,1.14,1.32,2.21,1.83,3.28s1,2,1.39,3,.71,1.77,1,2.51.48,1.39.63,1.93A11.06,11.06,0,0,1,171.82,388.16Z" style="fill:#d37a57"></path><path d="M186.08,387.81s-.12-.14-.31-.44-.47-.73-.78-1.32a37.34,37.34,0,0,1-2.22-5.18c-.79-2.24-1.56-5-2.46-8a42,42,0,0,0-3.84-9.35,24.59,24.59,0,0,0-6.84-7.34c-2.52-1.83-4.95-3.31-6.8-4.83a17.26,17.26,0,0,1-3.86-4.1,10,10,0,0,1-.72-1.36,1.86,1.86,0,0,1-.19-.5c.05,0,.33.66,1.08,1.75a18.31,18.31,0,0,0,3.92,3.92c1.86,1.46,4.29,2.9,6.85,4.74a24.4,24.4,0,0,1,7,7.45,41.14,41.14,0,0,1,3.86,9.48c.88,3,1.61,5.74,2.35,8a45,45,0,0,0,2,5.2A19,19,0,0,1,186.08,387.81Z" style="fill:#d37a57"></path><path d="M196.34,381.21a1.89,1.89,0,0,1-.16-.49c-.09-.39-.2-.86-.34-1.44s-.31-1.39-.56-2.26-.49-1.89-.88-3-.74-2.27-1.25-3.52-1.07-2.57-1.68-3.95a62,62,0,0,0-11-16.19c-1.06-1.08-2.05-2.13-3.06-3s-1.93-1.73-2.82-2.46-1.71-1.34-2.43-1.9-1.36-1-1.89-1.36l-1.22-.84c-.27-.2-.41-.31-.4-.33a2.31,2.31,0,0,1,.46.24l1.27.77c.55.33,1.21.75,1.95,1.29s1.61,1.11,2.5,1.85,1.88,1.5,2.87,2.43,2,1.92,3.11,3a65.75,65.75,0,0,1,6.24,7.7,64.64,64.64,0,0,1,4.86,8.62c.61,1.4,1.21,2.72,1.65,4s.87,2.46,1.2,3.57.58,2.11.81,3a23.25,23.25,0,0,1,.48,2.29c.1.58.18,1.07.25,1.46A1.79,1.79,0,0,1,196.34,381.21Z" style="fill:#d37a57"></path><path d="M142.76,342.39c0,.08-.71.19-1.76.65a8.43,8.43,0,0,0-5.11,6.74c-.15,1.14-.06,1.86-.14,1.87a3.64,3.64,0,0,1-.22-1.9,7.93,7.93,0,0,1,5.34-7.06A3.79,3.79,0,0,1,142.76,342.39Z" style="fill:#d37a57"></path><path d="M152.9,332.75c.08.14-1.68,1.25-3.42,3.11s-2.78,3.66-2.92,3.59a12.66,12.66,0,0,1,6.34-6.7Z" style="fill:#d37a57"></path><path d="M295.61,214c-1.73.72-2.08,2.79-2.05,4.66,0,2.34.62,2.72,2.53,6.64,3.13,6.41,6.87,18.57,6.87,18.57s-3.07,30.7-1,37.91a12.2,12.2,0,0,0,8,8.17l-2.8,23.71h33.49s-1.19-23-1.91-30c-.76-7.4-.26-52.15-.26-52.15l-3.29-23.89-7.75-13.42a6.05,6.05,0,0,0-2.29,7.35c1.75,4.91,2.9,14.34,2.9,14.34l-19.39-29.18s-3.81.91-4,8c0,0-5.64,3.67-2,9.63C306.58,211,310.8,231,309.32,231l-12-17.67Z" style="fill:#ef9d78"></path><path d="M307.08,313.66s0-.53.15-1.57.29-2.59.51-4.59c.46-4.05,1.14-10,2-17.57l.09.14a12.67,12.67,0,0,1-4.26-2.36,11.55,11.55,0,0,1-3.2-4.23,16.26,16.26,0,0,1-1.18-5.59q-.17-3-.14-6.1c.09-8.38.74-17.76,1.69-27.94v.08c-1.57-4.94-3.31-10.15-5.49-15.43-.55-1.32-1.13-2.63-1.79-3.93a31.74,31.74,0,0,1-1.92-4,8.46,8.46,0,0,1-.24-2.29,8,8,0,0,1,.34-2.3,3.42,3.42,0,0,1,1.4-1.93,6.82,6.82,0,0,1,1.07-.5l1.06-.44.18-.07.11.16L310,231.59l-.46.1a19.43,19.43,0,0,0-.06-4.63,39.8,39.8,0,0,0-.8-4.68,72.58,72.58,0,0,0-2.8-9.29c-1.1-3.09-2.49-6.09-3.84-9.18a8.22,8.22,0,0,1-.54-5.09,7.51,7.51,0,0,1,2.86-4.32l-.11.19a18.55,18.55,0,0,1,1.06-4.51,9.29,9.29,0,0,1,1.18-2.13,4.23,4.23,0,0,1,2-1.55l.16-.05.11.16.23.34,19.16,28.85-.47.17a102.91,102.91,0,0,0-2.05-11.43c-.23-.93-.49-1.84-.79-2.73a7.79,7.79,0,0,1-.48-2.88,6.26,6.26,0,0,1,2.83-4.89l.21-.14.13.23,7.75,13.42,0,0v0q1.71,12.54,3.27,23.9v0h0c-.14,12.38-.21,23.71-.19,33.73,0,5,0,9.7.15,14,.06,2.16.18,4.22.38,6.2s.29,3.87.41,5.66c.47,7.16.75,12.78.95,16.61.09,1.91.16,3.37.2,4.37s.05,1.5.05,1.5-.05-.51-.11-1.5-.16-2.46-.27-4.36c-.24-3.83-.57-9.45-1.07-16.61-.13-1.79-.26-3.67-.43-5.65s-.35-4.05-.41-6.21c-.14-4.34-.18-9-.21-14-.05-10,0-21.35.12-33.73v0q-1.57-11.34-3.31-23.89l0,.08-7.77-13.4.34.09a5.82,5.82,0,0,0-2.59,4.48,7.67,7.67,0,0,0,.46,2.7q.47,1.36.81,2.76a105,105,0,0,1,2.07,11.5l.14,1.09-.61-.92-19.17-28.84-.22-.34.27.11a3.81,3.81,0,0,0-1.7,1.36,8.47,8.47,0,0,0-1.1,2,18.11,18.11,0,0,0-1,4.38v.11l-.1.08a7,7,0,0,0-2.65,4,7.8,7.8,0,0,0,.52,4.78c1.33,3.05,2.74,6.09,3.84,9.19a73.19,73.19,0,0,1,2.82,9.36A40.43,40.43,0,0,1,310,227a20,20,0,0,1,.06,4.77l-.09.64-.37-.54c-4.33-6.38-8.55-12.58-12.53-18.43l.29.08c-.69.31-1.48.57-2.07.9a2.92,2.92,0,0,0-1.2,1.68,7.48,7.48,0,0,0-.32,2.16,8,8,0,0,0,.22,2.15,32.29,32.29,0,0,0,1.88,4c.66,1.31,1.25,2.64,1.8,4,2.18,5.31,3.91,10.52,5.47,15.48v.08c-1,10.17-1.64,19.54-1.76,27.91q0,3.13.12,6.07a15.8,15.8,0,0,0,1.13,5.49,12,12,0,0,0,7.25,6.46l.11,0v.1c-.93,7.59-1.65,13.51-2.14,17.55l-.57,4.59C307.17,313.13,307.08,313.66,307.08,313.66Z" style="fill:#d37a57"></path><path d="M321.88,233.55a9.88,9.88,0,0,1-.36-1.65c-.19-1.07-.51-2.61-.94-4.51a75.65,75.65,0,0,0-4.95-14.3,97.08,97.08,0,0,0-7.55-13.16c-1.08-1.61-2-2.9-2.61-3.79a12.66,12.66,0,0,1-.93-1.42,9.87,9.87,0,0,1,1.09,1.3c.68.85,1.63,2.11,2.76,3.7a84.54,84.54,0,0,1,7.71,13.15,68.2,68.2,0,0,1,4.84,14.44c.38,1.91.66,3.47.78,4.56A9.47,9.47,0,0,1,321.88,233.55Z" style="fill:#d37a57"></path><path d="M332.28,226.1a31.74,31.74,0,0,1-2.45-5.2,30.65,30.65,0,0,1-2-5.39,32.37,32.37,0,0,1,2.44,5.19A32.2,32.2,0,0,1,332.28,226.1Z" style="fill:#d37a57"></path><path d="M304.41,303.84h0c-5.88,51.88-13.53,107.1-22.33,164.46h68.17c12.82-28.38,5-53.14,1.56-88.43l-11.24-80.13Z" style="fill:#FF9900"></path><path d="M282.08,468.3a1.64,1.64,0,0,1,0-.33l.12-1c.13-.89.3-2.16.52-3.77.48-3.31,1.17-8,2-13.88,1.72-11.74,4.1-27.9,6.72-45.76s4.75-34.08,6.18-45.83c.73-5.88,1.28-10.63,1.65-13.92.19-1.62.34-2.89.45-3.79l.12-1a1.77,1.77,0,0,1,.07-.33s0,.11,0,.33l-.08,1c-.08.9-.2,2.18-.35,3.8-.31,3.29-.8,8.06-1.49,13.94-1.33,11.76-3.45,28-6,45.87s-5.06,34-6.88,45.74c-.91,5.82-1.66,10.54-2.18,13.85-.26,1.6-.47,2.86-.61,3.76-.07.4-.13.73-.17,1A1.85,1.85,0,0,1,282.08,468.3Z" style="fill:#263238"></path></g><g id="freepik--Device--inject-26"><path d="M429.78,467.85H235.39l25.08-136.43a10.2,10.2,0,0,1,10-8.35H445.17a10.2,10.2,0,0,1,10,12.11Z" style="fill:#455a64"></path><path d="M235.39,467.85H161.65l.3-.22a40,40,0,0,1,22.74-8l52.72-1.55Z" style="fill:#455a64"></path><path d="M282.08,323.25c0,.05-.54-.1-1.57-.11a9.77,9.77,0,0,0-4.32,1.08,13.22,13.22,0,0,0-5.18,4.71,25,25,0,0,0-3.18,8.82c-.63,3.45-1.19,7.28-1.88,11.37s-1.45,8.45-2.31,13c-1.69,9.17-3.7,19.23-5.88,29.76-4.39,21.07-8.46,40.12-11.11,54-1.34,6.92-2.37,12.53-3.07,16.41-.35,1.9-.62,3.39-.81,4.46-.1.48-.17.86-.23,1.16a2.15,2.15,0,0,1-.1.39s0-.13,0-.4.1-.69.16-1.17c.17-1.08.39-2.58.68-4.49.61-3.89,1.57-9.52,2.84-16.46,2.53-13.87,6.52-32.95,10.91-54,2.18-10.53,4.2-20.57,5.93-29.73.88-4.57,1.65-8.93,2.38-13s1.3-7.89,2-11.37a25.06,25.06,0,0,1,3.34-8.94,13.4,13.4,0,0,1,5.4-4.75,9.38,9.38,0,0,1,4.44-1A5.55,5.55,0,0,1,282.08,323.25Z" style="fill:#263238"></path><path d="M364.18,392.39a9.4,9.4,0,1,1-9.4-9.4A9.4,9.4,0,0,1,364.18,392.39Z" style="fill:#f5f5f5"></path></g><g id="freepik--Desk--inject-26"><path d="M477.62,468c0,.14-102.37.26-228.61.26S20.38,468.15,20.38,468s102.34-.26,228.63-.26S477.62,467.86,477.62,468Z" style="fill:#263238"></path></g><g id="freepik--lighting-bolts--inject-26"><polygon points="206.58 109.81 203.91 84.7 191.1 87.59 180.06 68.09 186.94 94.45 199.93 91.47 206.58 109.81" style="fill:#FF9900"></polygon><polygon points="201.36 114.55 189.46 102.3 183.85 109.19 169.84 103.42 184.5 114.58 190.17 107.57 201.36 114.55" style="fill:#FF9900"></polygon><polygon points="330 125.38 340.82 105.7 350.33 112.47 366.08 100.27 351.39 119.53 341.75 112.63 330 125.38" style="fill:#FF9900"></polygon><polygon points="349.85 136.61 361.04 131.84 362.83 137.9 373.62 137.97 360.92 141.26 359.12 135.1 349.85 136.61" style="fill:#FF9900"></polygon></g><g id="freepik--Line--inject-26"><path d="M272.23,60.15s.45-.29,1.35-.83a36.57,36.57,0,0,1,4.17-2.09A40.44,40.44,0,0,1,295.44,54a29.59,29.59,0,0,1,3.05.25,19.22,19.22,0,0,1,3.18.58,13,13,0,0,1,3.15,1.28,7,7,0,0,1,2.57,2.47,5.38,5.38,0,0,1,.62,3.66,7.27,7.27,0,0,1-1.85,3.43,17,17,0,0,1-7,4.25,43.77,43.77,0,0,1-18.07,2.59,44.35,44.35,0,0,1-19.7-6l-.14-.09.09-.14a27.27,27.27,0,0,1,10.38-9.54,36.43,36.43,0,0,1,14.47-4.14,55.58,55.58,0,0,1,15.89,1.29c2.68.57,5.36,1.28,8,2.11a45.39,45.39,0,0,1,8,3,15.42,15.42,0,0,1,6.41,5.87,10.66,10.66,0,0,1,1.39,4.25,9,9,0,0,1-.74,4.46,13.92,13.92,0,0,1-6.49,6.28,36.16,36.16,0,0,1-8.76,3.07,91.5,91.5,0,0,1-38.54,1c-.83-.14-1.64-.34-2.47-.51s-1.64-.36-2.46-.57a33.26,33.26,0,0,1-4.87-1.49,16.51,16.51,0,0,1-4.45-2.61,7.63,7.63,0,0,1-2.69-4.45,7.06,7.06,0,0,1,1.12-5.11,14.08,14.08,0,0,1,3.73-3.73,28.24,28.24,0,0,1,4.62-2.58c.78-.4,1.6-.75,2.41-1.09s1.63-.69,2.47-1a62.81,62.81,0,0,1,21.1-4,63.83,63.83,0,0,1,10.94.76c.91.14,1.82.29,2.73.5s1.81.36,2.7.61a31.33,31.33,0,0,1,5.31,1.72,17.74,17.74,0,0,1,4.8,2.95,9.37,9.37,0,0,1,3,4.79l.15.71.06.73a10.06,10.06,0,0,1,0,1.45,8.84,8.84,0,0,1-.84,2.76,13.67,13.67,0,0,1-3.62,4.44,25,25,0,0,1-4.8,3.15c-.85.45-1.73.83-2.61,1.2s-1.76.75-2.66,1.09A78.61,78.61,0,0,1,294,87a80.63,80.63,0,0,1-23.23,1.92,27.11,27.11,0,0,1-11.43-3,12.44,12.44,0,0,1-4.47-4,9.59,9.59,0,0,1-1.44-5.84A10.65,10.65,0,0,1,255,71.4a17.16,17.16,0,0,1,3.22-3.73,29.54,29.54,0,0,1,8.33-5,58.58,58.58,0,0,1,18.66-4.5,59.31,59.31,0,0,1,9.52.07c1.58.14,3.15.34,4.71.61A25.58,25.58,0,0,1,304.05,60a16.19,16.19,0,0,1,4.24,2.12,8.52,8.52,0,0,1,3.06,3.63,6.57,6.57,0,0,1,.15,4.72,9.27,9.27,0,0,1-2.65,3.89c-2.4,2.12-5.5,3-8.45,3.73s-5.93,1.41-8.89,2.06A129.65,129.65,0,0,1,273.74,83a64,64,0,0,1-17.62-.84,43,43,0,0,1-15.94-6.51l-.26-.17.23-.21a55.67,55.67,0,0,1,28.77-13A54.83,54.83,0,0,1,298.75,66a14.67,14.67,0,0,1,3.12,2,7.25,7.25,0,0,1,2.17,3,5.19,5.19,0,0,1-.18,3.7,7.49,7.49,0,0,1-2.36,2.81,22,22,0,0,1-6.48,3,45.46,45.46,0,0,1-6.83,1.62,44.38,44.38,0,0,1-13.66,0A6.73,6.73,0,0,1,271.37,81a3.32,3.32,0,0,1-1.15-3.15A5.74,5.74,0,0,1,272,75a11.72,11.72,0,0,1,2.7-1.89A47.23,47.23,0,0,1,299,69.26a22,22,0,0,1,5.77,1.33A10.48,10.48,0,0,1,309.44,74,7.75,7.75,0,0,1,311,79.41a7.39,7.39,0,0,1-2.8,4.69A28.11,28.11,0,0,1,303.74,87,42.73,42.73,0,0,1,299,89.24a45.26,45.26,0,0,1-9.6,2.65,44.38,44.38,0,0,1-18-.78l-.19,0,.11-.15a21.62,21.62,0,0,1,10-7.47,21.27,21.27,0,0,1,10.92-1.08,11.17,11.17,0,0,1,4.62,1.74,6.12,6.12,0,0,1,1.63,1.66,5,5,0,0,1,.74,2.11,6,6,0,0,1-1.1,3.94,11,11,0,0,1-2.58,2.67,21.9,21.9,0,0,1-5.53,2.68A30.05,30.05,0,0,0,286,99a11.37,11.37,0,0,0-2.18,1.57c-.22.2-.37.37-.48.48l-.16.16a8.86,8.86,0,0,1,.62-.67,11.07,11.07,0,0,1,2.16-1.6,29.09,29.09,0,0,1,4-1.84,22.55,22.55,0,0,0,5.49-2.7,10.69,10.69,0,0,0,2.53-2.65,5.77,5.77,0,0,0,1.06-3.83,4.64,4.64,0,0,0-.72-2,5.67,5.67,0,0,0-1.59-1.61,10.9,10.9,0,0,0-4.54-1.69,21.07,21.07,0,0,0-10.81,1.09,21.43,21.43,0,0,0-9.88,7.41l-.07-.2a44.24,44.24,0,0,0,17.88.74A45.53,45.53,0,0,0,298.91,89a44.11,44.11,0,0,0,4.68-2.2,27.66,27.66,0,0,0,4.43-2.9,7.12,7.12,0,0,0,2.68-4.48,7.44,7.44,0,0,0-1.54-5.14,10.1,10.1,0,0,0-4.49-3.31A21.15,21.15,0,0,0,299,69.63a46.71,46.71,0,0,0-24.15,3.81,11.07,11.07,0,0,0-2.6,1.82,5.39,5.39,0,0,0-1.63,2.65,2.9,2.9,0,0,0,1,2.76,6.35,6.35,0,0,0,3,1.19,44.1,44.1,0,0,0,13.52,0,46,46,0,0,0,6.77-1.62,21.42,21.42,0,0,0,6.35-3,7.07,7.07,0,0,0,2.22-2.64,4.74,4.74,0,0,0,.16-3.38,6.63,6.63,0,0,0-2-2.83,13.77,13.77,0,0,0-3-2A54.43,54.43,0,0,0,269,62.65a55.2,55.2,0,0,0-28.51,13l0-.39a42.72,42.72,0,0,0,15.77,6.42,63.37,63.37,0,0,0,17.48.84,129.44,129.44,0,0,0,17.7-2.88c3-.65,5.92-1.35,8.88-2.06s6-1.59,8.23-3.61A8.75,8.75,0,0,0,311,70.26a6.15,6.15,0,0,0-.15-4.37,8,8,0,0,0-2.88-3.4,16,16,0,0,0-4.11-2.05,24.73,24.73,0,0,0-4.53-1.09c-1.54-.27-3.1-.47-4.66-.61a59.61,59.61,0,0,0-9.45-.06,58.06,58.06,0,0,0-18.48,4.46,28.87,28.87,0,0,0-8.2,4.92c-2.36,2.1-4.4,4.87-4.66,8.07a9.06,9.06,0,0,0,1.36,5.51,12,12,0,0,0,4.28,3.83,26.65,26.65,0,0,0,11.21,2.94,80.37,80.37,0,0,0,23.09-1.9,79.37,79.37,0,0,0,11-3.37q1.33-.51,2.64-1.08c.88-.37,1.74-.75,2.58-1.19a24.89,24.89,0,0,0,4.7-3.08,13.29,13.29,0,0,0,3.49-4.27,8.51,8.51,0,0,0,.79-2.6,8.85,8.85,0,0,0,0-1.36l-.06-.68-.14-.67A8.85,8.85,0,0,0,316,63.68a17.35,17.35,0,0,0-4.67-2.86,31,31,0,0,0-5.23-1.7c-.89-.24-1.79-.42-2.69-.61s-1.79-.35-2.7-.49a62.89,62.89,0,0,0-31.79,3.2c-.83.29-1.64.62-2.45,1s-1.61.68-2.39,1.08a28,28,0,0,0-4.55,2.54,13.51,13.51,0,0,0-3.6,3.59,6.6,6.6,0,0,0-1.06,4.77,7.22,7.22,0,0,0,2.53,4.17,15.87,15.87,0,0,0,4.32,2.53,31.82,31.82,0,0,0,4.81,1.47c.81.21,1.62.41,2.44.57s1.63.37,2.45.51a91.1,91.1,0,0,0,38.35-1,35.43,35.43,0,0,0,8.66-3c2.65-1.4,5.12-3.36,6.32-6.07a8.61,8.61,0,0,0,.7-4.24A10.22,10.22,0,0,0,324.09,65a15.14,15.14,0,0,0-6.24-5.71,46,46,0,0,0-7.88-3c-2.67-.83-5.34-1.54-8-2.11a55.26,55.26,0,0,0-15.79-1.3A36,36,0,0,0,271.86,57a26.91,26.91,0,0,0-10.27,9.4l-.06-.23a44.23,44.23,0,0,0,37.52,3.5A16.81,16.81,0,0,0,306,65.48a7.18,7.18,0,0,0,1.81-3.31,5.13,5.13,0,0,0-.59-3.51,6.74,6.74,0,0,0-2.49-2.4,12.58,12.58,0,0,0-3.1-1.27,19.58,19.58,0,0,0-3.15-.59c-1-.14-2-.21-3-.26a40.72,40.72,0,0,0-17.65,3.17,40.1,40.1,0,0,0-4.18,2C272.7,59.89,272.23,60.15,272.23,60.15Z" style="fill:#263238"></path></g></svg>