<svg xmlns="http://www.w3.org/2000/svg" viewBox="0 0 500 500"><g id="freepik--background-simple--inject-33"><path d="M101.53,273.09l2,.67c17.29,5.68,36.35,1.7,49.28-10.87a46.64,46.64,0,0,0,4.62-5.2,51.24,51.24,0,0,0,7.09-47.83c-3.43-9.33-9.67-18.11-9.48-28,.25-12.88,11.1-22.58,21.08-30.59s20.82-17.75,21-30.64c.12-8.07-4.19-15.71-9.79-21.59-14.82-15.56-38.66-20.41-59.31-15.28s-38.22,19-51.3,35.76C58.46,142.93,47.9,173.23,51.45,203S73.9,261.33,101.53,273.09Z" style="fill:#f5f5f5"></path><path d="M317,44.42l-1.13,1.31a39.14,39.14,0,0,0-7.27,39.86,38.7,38.7,0,0,0,2.41,5,41.13,41.13,0,0,0,33.21,20.12c8,.36,16.42-1.53,23.69,1.69,9.47,4.19,13.27,15.24,16.11,25.12s6.67,20.92,16.15,25.07c5.94,2.6,12.93,1.78,19-.54,16.12-6.14,27.12-22.28,29.74-39.16s-2.22-34.21-10.54-49.09c-11.65-20.85-30.8-38.09-54-44.71S334.31,27.62,317,44.42Z" style="fill:#f5f5f5"></path><circle cx="224.99" cy="68.87" r="29.74" transform="translate(-7.47 105.27) rotate(-25.92)" style="fill:#f5f5f5"></circle><circle cx="430.92" cy="205.92" r="14.87" style="fill:#f5f5f5"></circle><circle cx="218.29" cy="295.77" r="14.87" style="fill:#f5f5f5"></circle></g><g id="freepik--Plant--inject-33"><path d="M145.63,340.62c-9.32-14.26-8-34.64,3.18-47.54,3.45-4,8.28-7.49,13.56-7s9.74,5.09,11.38,10.26,1.08,10.75.11,16.08c-1.35,7.46-3.61,15.1-8.79,20.64s-12.78,11.24-19.44,7.6" style="fill:#FFE600"></path><path d="M150.79,409.29a21.33,21.33,0,0,1,5.94-24.21c2.15-1.75,5-3.11,7.63-2.4s4.56,3.51,4.94,6.32a17.64,17.64,0,0,1-1.41,8.29c-1.37,3.73-3.23,7.46-6.4,9.84s-7.6,4.63-10.7,2.16" style="fill:#FFE600"></path><path d="M128.3,404.39c2.56-12.65-4.1-26.6-15.55-32.56-3.55-1.84-7.93-2.94-11.51-1.15S95.81,377,96.1,381.09s2.26,7.86,4.43,11.34c3,4.87,6.77,9.61,12,12.06s12.14,4.32,15.8-.1" style="fill:#FFE600"></path><path d="M129.92,370.19c4.46-14.41-3.11-31.88-15.73-40.15-3.92-2.56-8.87-4.35-13.25-2.68s-7,6.7-7.2,11.49,1.71,9.42,3.83,13.72c3,6,6.74,12,12.5,15.42s15.07,6.92,19.85,2.2" style="fill:#FFE600"></path><path d="M138.88,440.62a2.8,2.8,0,0,1-.14-.69c-.08-.53-.18-1.19-.3-2-.06-.45-.13-.93-.2-1.46s-.22-1.1-.33-1.71c-.24-1.23-.48-2.63-.88-4.16-.19-.76-.38-1.57-.58-2.4s-.5-1.68-.76-2.57c-.48-1.79-1.19-3.64-1.85-5.61a110.31,110.31,0,0,0-5.57-12.34,109.41,109.41,0,0,0-7.2-11.45c-1.28-1.65-2.43-3.26-3.65-4.65l-1.73-2.05L114,387.71c-1.05-1.18-2.08-2.16-3-3l-1.24-1.22-1.1-1-1.51-1.36a3,3,0,0,1-.5-.5,2.8,2.8,0,0,1,.58.41l1.58,1.27,1.14.94,1.29,1.19c.92.85,2,1.82,3,3,.55.57,1.13,1.17,1.72,1.8l1.77,2c1.24,1.39,2.42,3,3.71,4.65a102.82,102.82,0,0,1,7.29,11.5,101.23,101.23,0,0,1,5.55,12.43c.66,2,1.35,3.85,1.82,5.66l.72,2.59c.19.84.37,1.65.55,2.43.38,1.53.59,2.95.79,4.19.1.62.2,1.19.28,1.73s.11,1,.15,1.47c.08.82.14,1.49.19,2A2.72,2.72,0,0,1,138.88,440.62Z" style="fill:#263238"></path><path d="M138.55,443.21a1,1,0,0,1,0-.28c0-.23,0-.5.07-.84.07-.78.17-1.85.29-3.2l.23-2.31c.06-.85.09-1.77.14-2.76.07-2,.26-4.23.19-6.73,0-1.24,0-2.55,0-3.91s-.14-2.77-.21-4.23c-.1-2.94-.5-6-.85-9.32A145,145,0,0,0,134,388.68a146,146,0,0,0-7.72-20c-1.49-2.93-2.85-5.76-4.36-8.27-.74-1.26-1.41-2.52-2.14-3.67l-2.11-3.29c-1.3-2.13-2.69-3.91-3.83-5.53-.58-.8-1.11-1.56-1.62-2.24l-1.45-1.81-2-2.52-.51-.67c-.11-.15-.17-.23-.16-.24s.08.06.21.2l.55.63,2.08,2.45,1.5,1.78c.53.67,1.07,1.42,1.66,2.22,1.17,1.6,2.59,3.37,3.92,5.49l2.15,3.29c.75,1.14,1.42,2.39,2.18,3.66,1.54,2.51,2.92,5.33,4.43,8.28a142.1,142.1,0,0,1,7.8,20.05A143.61,143.61,0,0,1,139,409.56c.34,3.29.72,6.41.8,9.36.06,1.47.17,2.89.17,4.25s0,2.68,0,3.93c0,2.5-.17,4.76-.28,6.74-.07,1-.11,1.92-.19,2.76s-.2,1.61-.28,2.31c-.17,1.35-.31,2.42-.41,3.2-.05.33-.09.6-.12.82S138.56,443.22,138.55,443.21Z" style="fill:#263238"></path><path d="M162.84,303.27a2.85,2.85,0,0,1-.12.27l-.41.75c-.38.69-.92,1.64-1.59,2.84-.34.62-.75,1.29-1.15,2.06l-1.25,2.51-1.44,2.88c-.48,1-.94,2.14-1.46,3.3s-1.06,2.36-1.58,3.64-1,2.63-1.54,4l-.82,2.12c-.24.73-.49,1.46-.75,2.22-.5,1.5-1,3-1.56,4.63-2,6.39-3.85,13.51-5.43,21.07s-2.61,14.86-3.4,21.5-1.18,12.67-1.32,17.73c-.13,2.53-.16,4.82-.16,6.84s0,3.74,0,5.16,0,2.46,0,3.26v.85a1.11,1.11,0,0,1,0,.29,1.36,1.36,0,0,1,0-.29c0-.23,0-.51-.05-.85,0-.79-.1-1.88-.16-3.26s-.12-3.15-.12-5.16,0-4.31.08-6.85c.08-5.07.54-11.1,1.19-17.78s1.82-14,3.36-21.56,3.48-14.72,5.49-21.12q.83-2.38,1.59-4.64l.77-2.22.83-2.12,1.59-4c.53-1.28,1.1-2.48,1.62-3.64s1-2.26,1.5-3.29,1-2,1.49-2.87l1.29-2.49c.42-.76.84-1.42,1.2-2,.72-1.17,1.29-2.11,1.7-2.79l.45-.72A1.11,1.11,0,0,1,162.84,303.27Z" style="fill:#263238"></path><path d="M159.67,390.81a13.33,13.33,0,0,1-1,1.74c-.68,1.09-1.61,2.7-2.71,4.71s-2.31,4.48-3.54,7.25-2.38,5.92-3.42,9.26a96.27,96.27,0,0,0-2.39,9.58c-.56,3-1,5.69-1.18,8s-.36,4.14-.42,5.42a12.46,12.46,0,0,1-.16,2,13.65,13.65,0,0,1-.07-2c0-1.29.05-3.16.22-5.46s.52-5,1.05-8.05a82.78,82.78,0,0,1,5.86-18.95c1.26-2.79,2.51-5.24,3.67-7.24s2.15-3.58,2.89-4.63A11.46,11.46,0,0,1,159.67,390.81Z" style="fill:#263238"></path><polygon points="120.57 434.2 161.53 434.2 156.58 476.05 125.67 476.05 120.57 434.2" style="fill:#455a64"></polygon><polygon points="122.06 471.53 125.54 476.05 156.58 476.05 160.16 471.68 122.06 471.53" style="fill:#263238"></polygon><path d="M159.94,446.51c0,.17-8.5.31-19,.31s-19-.14-19-.31,8.5-.31,19-.31S159.94,446.34,159.94,446.51Z" style="fill:#fafafa"></path><path d="M159.94,449.3c0,.16-8.5.3-19,.3s-19-.14-19-.3,8.5-.31,19-.31S159.94,449.13,159.94,449.3Z" style="fill:#fafafa"></path><path d="M159.43,452c0,.17-8.21.31-18.32.31s-18.33-.14-18.33-.31,8.2-.3,18.33-.3S159.43,451.82,159.43,452Z" style="fill:#fafafa"></path></g><g id="freepik--Character--inject-33"><polygon points="412.16 365.51 431.62 476.28 427.54 476.28 404.87 367.05 412.16 365.51" style="fill:#263238"></polygon><polygon points="377.17 365.51 396.43 476.28 392.36 476.28 369.88 367.05 377.17 365.51" style="fill:#263238"></polygon><polygon points="347.01 367.61 332.44 476.28 336.52 476.14 354.34 368.89 347.01 367.61" style="fill:#263238"></polygon><path d="M330,375.34s89.58-4.24,94.1-11-3.68-105.12-11.59-107.38-54.05-2.54-54.05-2.54L359.26,363l-37.56,6.32S321,376,330,375.34Z" style="fill:#455a64"></path><path d="M404.87,255.89s.07.06.17.19.24.35.41.63a23.6,23.6,0,0,1,1.33,2.57,54.66,54.66,0,0,1,3.28,10.09,128.08,128.08,0,0,1,2.45,15.54c.66,5.89,1.15,12.38,1.58,19.19.86,13.64,1.23,26,1.44,35,.1,4.47.16,8.09.17,10.59v2.89c0,.3,0,.55,0,.75a.13.13,0,1,1-.06,0c0-.2,0-.45,0-.75,0-.7,0-1.66-.1-2.88-.08-2.55-.19-6.16-.34-10.59-.31-8.95-.74-21.3-1.59-34.93-.43-6.81-.91-13.3-1.54-19.18a133.9,133.9,0,0,0-2.33-15.51,59.37,59.37,0,0,0-3.1-10.09,28.09,28.09,0,0,0-1.23-2.59l-.37-.66Z" style="fill:#263238"></path><path d="M415.1,353.54l-.24.07-.7.13-2.68.46-9.9,1.62c-8.35,1.37-19.89,3.29-32.61,5.53s-24.22,4.38-32.54,5.94l-9.85,1.86-2.68.48-.7.12a.93.93,0,0,1-.25,0,.75.75,0,0,1,.24-.08l.69-.16,2.66-.59,9.82-2c8.3-1.66,19.79-3.86,32.52-6.1s24.27-4.1,32.64-5.37l9.93-1.46,2.7-.36.7-.08A1.18,1.18,0,0,1,415.1,353.54Z" style="fill:#263238"></path><path d="M406.42,302.37c-4.12-9.92-14.74-22-14.74-22s-26.82-30.95-37.34-37.81-27.61-7.13-27.61-7.13c-19.43.91-47.43,16.27-47.43,16.27l58.5,69.76s40.25,4.17,45.57,3.75c11.42-.89,29.17-4.15,29.17-4.15A177.76,177.76,0,0,0,406.42,302.37Z" style="fill:#FFE600"></path><g style="opacity:0.30000000000000004"><path d="M358.67,265.5c-2.51,1.92-3.41,5.24-4.22,8.29a225.47,225.47,0,0,1-19.06,48.33l1.4-1c7.18-4.67,12.74-11.49,17.1-18.86A53.78,53.78,0,0,0,361,284.37,30.64,30.64,0,0,0,358.67,265.5Z"></path></g><path d="M397.1,309.56a2,2,0,0,1-.46.33l-1.37.87c-.6.38-1.34.82-2.23,1.28s-1.88,1-3,1.55-2.39,1.13-3.78,1.66-2.88,1.09-4.46,1.64a74.68,74.68,0,0,1-10.56,2.54,75.59,75.59,0,0,1-10.83.87c-1.67,0-3.26,0-4.74-.16s-2.86-.24-4.12-.41-2.37-.36-3.36-.53-1.84-.35-2.52-.52l-1.58-.4a2.18,2.18,0,0,1-.54-.17,2.39,2.39,0,0,1,.57.07l1.59.29c.69.15,1.54.31,2.53.44s2.1.35,3.36.45,2.62.28,4.09.33,3.05.1,4.71.12a79.56,79.56,0,0,0,10.76-.91,80.52,80.52,0,0,0,10.49-2.48c1.58-.54,3.08-1,4.45-1.58s2.64-1.07,3.78-1.59,2.16-1,3.06-1.47,1.65-.85,2.26-1.2l1.43-.78A2.66,2.66,0,0,1,397.1,309.56Z" style="fill:#263238"></path><g style="opacity:0.30000000000000004"><path d="M391.31,310.43a97.79,97.79,0,0,1-44.84,8.05v.28c14.69,2.31,30.52,1.13,44.31-6.06a2.15,2.15,0,0,0,1.08-1.06C392,311.17,391.82,310.5,391.31,310.43Z"></path></g><g style="opacity:0.30000000000000004"><path d="M338.89,250.25a15.68,15.68,0,0,0-7.39-8.31c-2.89-1.62-9.18-3.67-12.44-3.07L313,249.25c.71,1.64,3.41,4.37,4.68,5.64a11.76,11.76,0,0,1,3.11,4.31,9.6,9.6,0,0,0,1.16,3.15,5,5,0,0,0,3.6,1.38c4,.33,8.32-.15,11.17-2.92S340.1,253.84,338.89,250.25Z"></path></g><polygon points="318.37 367.61 303.81 476.28 307.88 476.14 325.7 368.89 318.37 367.61" style="fill:#e0e0e0"></polygon><polygon points="260.14 406.25 256.58 463.33 281.22 466.23 289 419.03 260.14 406.25" style="fill:#ffbe9d"></polygon><path d="M256.84,455.79l-.21,1.64s-29.18,7.57-30.16,12.79L281.6,477l1.52-18.44C274.45,461.38,265.82,460.75,256.84,455.79Z" style="fill:#FFE600"></path><g style="opacity:0.30000000000000004"><path d="M256.84,455.79l-.21,1.64s-29.18,7.57-30.16,12.79L281.6,477l1.52-18.44C274.45,461.38,265.82,460.75,256.84,455.79Z"></path></g><path d="M246.75,464.9c.21.08.69-1.07.24-2.44s-1.5-2-1.62-1.85.47,1,.83,2.1S246.52,464.85,246.75,464.9Z" style="fill:#263238"></path><path d="M276.81,463.78a2.27,2.27,0,0,1,1.24,2.76,2.18,2.18,0,0,1-2.73,1.25,2.39,2.39,0,0,1-1.29-2.93,2.26,2.26,0,0,1,3-1" style="fill:#fff"></path><path d="M281.6,477l.36-4.44-53-4.91s-2.59.77-2.53,2.53Z" style="fill:#263238"></path><path d="M256.42,457.56c0,.27,1.3.56,2.52,1.59s1.78,2.25,2,2.17.06-1.68-1.44-2.9S256.39,457.31,256.42,457.56Z" style="fill:#263238"></path><path d="M250.34,459.24c-.1.25,1,.85,1.79,2.1s.89,2.49,1.15,2.51.63-1.48-.36-3S250.38,459,250.34,459.24Z" style="fill:#263238"></path><polygon points="291.28 410.47 298.33 467.23 323.08 465.52 321.94 415.04 291.28 410.47" style="fill:#ffbe9d"></polygon><path d="M297.19,459.77l.09,1.65S270,474.25,270,479.56l55.44-3.49-1.92-18.4C315.53,462,306.93,463,297.19,459.77Z" style="fill:#FFE600"></path><path d="M289,470.58c.22,0,.47-1.17-.22-2.44s-1.85-1.72-1.94-1.52.65.86,1.21,1.91S288.72,470.57,289,470.58Z" style="fill:#263238"></path><path d="M318.29,463.92a2.28,2.28,0,0,1,1.73,2.49,2.17,2.17,0,0,1-2.45,1.73,2.4,2.4,0,0,1-1.82-2.64A2.27,2.27,0,0,1,318.5,464" style="fill:#fff"></path><path d="M325.45,476.07l-.46-4.42-53,5s-2.41,1.23-2,2.95Z" style="fill:#263238"></path><path d="M297.1,461.58c0,.27,1.38.31,2.77,1.1s2.17,1.88,2.41,1.75-.26-1.66-1.95-2.58S297,461.34,297.1,461.58Z" style="fill:#263238"></path><path d="M291.43,464.35c0,.27,1.16.66,2.15,1.74s1.33,2.28,1.6,2.26.35-1.58-.91-2.9S291.42,464.1,291.43,464.35Z" style="fill:#263238"></path><path d="M412.54,321.07l-74.74.4s-29.82,10.2-38.62,12.95c-11.7,3.65-11.67,9.58-13.41,16.43-2,7.71,5.79,68.86,5.49,70.57-.05.29-.88.26-.91,1.4a41.05,41.05,0,0,0,.7,6.48l35.22-.62s.09-7.25.09-8.39a5.59,5.59,0,0,0-.91-2.5l-2.37-48.49,75.11-13s6.85-2.29,12.55-12S412.54,321.07,412.54,321.07Z" style="fill:#263238"></path><path d="M317.38,321.07s-33.87,8.32-39.71,13.35-10.29,9.48-11.77,21.36-7.11,58.36-7.11,58.36-1.16,1.52-1.66,6.23c-.47,4.44.1,3.24.1,3.24l30.54,6,1.89-8.62-.53-1.44,3.5-22.19,11.63-39.85,57.92-21Z" style="fill:#263238"></path><path d="M341,325.33l-.35.09-1,.2-3.87.79-14.2,3-9.79,2.16c-3.51.81-7.28,1.64-11.17,2.73a23.23,23.23,0,0,0-5.6,2.5,20.29,20.29,0,0,0-4.91,4.08,16.9,16.9,0,0,0-3.22,5.74,27.32,27.32,0,0,0-1.24,6.73,165.23,165.23,0,0,0,1.4,26.26c1,8,2,15.27,2.69,21.37s1.11,11,1.32,14.46c.11,1.71.15,3,.19,3.95,0,.42,0,.76,0,1a1.88,1.88,0,0,1,0,.35,2.49,2.49,0,0,1-.05-.35c0-.25-.05-.59-.08-1-.07-.93-.17-2.25-.3-3.93-.27-3.42-.74-8.36-1.49-14.44s-1.74-13.32-2.8-21.35a161.21,161.21,0,0,1-1.44-26.36,27.7,27.7,0,0,1,1.26-6.86,17.23,17.23,0,0,1,3.33-5.91,20.79,20.79,0,0,1,5-4.17,23.82,23.82,0,0,1,5.74-2.55c3.92-1.07,7.68-1.89,11.2-2.68s6.81-1.48,9.81-2.1c6-1.25,10.87-2.21,14.24-2.84,1.69-.31,3-.54,3.89-.69l1-.15A1.52,1.52,0,0,1,341,325.33Z" style="fill:#455a64"></path><path d="M325.45,417.79s-.09.09-.29.22a9.12,9.12,0,0,1-.9.48,21,21,0,0,1-3.55,1.16c-1.53.38-3.38.73-5.43,1s-4.3.72-6.69,1a96.87,96.87,0,0,1-12.28.48c-1.58,0-2.85-.07-3.72-.11a6.36,6.36,0,0,1-1.37-.12,6.35,6.35,0,0,1,1.37-.09l3.72-.06c3.13,0,7.47-.11,12.22-.63,2.37-.24,4.62-.63,6.68-.91s3.89-.6,5.42-.93a25.74,25.74,0,0,0,3.55-1C325,418,325.42,417.75,325.45,417.79Z" style="fill:#455a64"></path><path d="M289.13,419.56a4.86,4.86,0,0,1-1.21-.19c-.76-.15-1.87-.37-3.23-.62-2.74-.51-6.55-1.06-10.77-1.64s-8-1.19-10.76-1.79c-1.37-.3-2.46-.57-3.21-.8a5.56,5.56,0,0,1-1.16-.38,5,5,0,0,1,1.2.18c.77.16,1.87.37,3.24.63,2.74.5,6.55,1.06,10.77,1.63s8,1.19,10.76,1.8c1.36.3,2.46.57,3.21.79A6.22,6.22,0,0,1,289.13,419.56Z" style="fill:#455a64"></path><path d="M300.55,177.76A13.4,13.4,0,0,0,286,170.48a17.41,17.41,0,0,1-4.52.85,28,28,0,0,1-3.69-.83,9,9,0,0,0-9.79,5.38c-1.36,3.56-3.5-.15-7.83,4.62-3.59,3.95-.19,6.88-.19,6.88a10.27,10.27,0,0,0-7.36,10.75c.34,3,2,6.26.33,8.78-.79,1.23-2.2,1.93-3.05,3.12-1.56,2.21-.7,5.29.55,7.7s2.86,4.86,2.65,7.56c-.34,4.43-5.49,7.73-4.9,12.13.28,2.08,1.84,4.2.91,6.08a7.14,7.14,0,0,1-1.71,1.85,9.38,9.38,0,0,0,4.54,16c.94.19,2,.3,2.58,1.06s.31,2.05.13,3.09a9,9,0,0,0,15.67,7.42,14.07,14.07,0,0,0,9.84,3.86,8.55,8.55,0,0,0,4.75-1.31,10,10,0,0,0,2.62-3c3.36-5.39,7.91-13.47,6.48-19.66Z" style="fill:#e0e0e0"></path><path d="M265.19,212.83a5.25,5.25,0,0,1-2.13.62,13.11,13.11,0,0,1-10.1-2.87,5.32,5.32,0,0,1-1.48-1.65,16.9,16.9,0,0,1,1.74,1.32A15,15,0,0,0,263,213,15.92,15.92,0,0,1,265.19,212.83Z" style="fill:#fafafa"></path><path d="M264,198a4.71,4.71,0,0,1-1,1.79,12.7,12.7,0,0,1-8.24,5,4.61,4.61,0,0,1-2,0c0-.19,3.14-.25,6.34-2.23S263.84,197.84,264,198Z" style="fill:#fafafa"></path><path d="M262.61,273.82l-.2,0a5.09,5.09,0,0,1-.59,0,7.14,7.14,0,0,1-2.22-.47,7.65,7.65,0,0,1-3-2,7.48,7.48,0,0,1-1.91-4.35,7.7,7.7,0,0,1,.22-2.8,9.92,9.92,0,0,1,1.27-2.75,10.4,10.4,0,0,0,1.34-2.79,3.11,3.11,0,0,0-.79-2.88,14.68,14.68,0,0,0-2.78-2.07,11.5,11.5,0,0,1-1.49-1.16,6.07,6.07,0,0,1-1.13-1.61,6.57,6.57,0,0,1,1.43-7.51,22.11,22.11,0,0,1,3.46-2,4.49,4.49,0,0,0,1.38-1.16,2.73,2.73,0,0,0,.51-1.61,5.5,5.5,0,0,0-1.37-3.16c-.74-.9-1.64-1.71-2.36-2.66a5.12,5.12,0,0,1-1.24-3.25,5.5,5.5,0,0,1,1.11-3.1,15.2,15.2,0,0,1,4.43-3.7,11.75,11.75,0,0,0,3.45-3.06,5.18,5.18,0,0,0,.82-3.3,3.42,3.42,0,0,0-.82-2c-.35-.37-.6-.49-.58-.52a1.83,1.83,0,0,1,.66.44,3.33,3.33,0,0,1,1,2.05,5.36,5.36,0,0,1-.77,3.5,11.69,11.69,0,0,1-3.5,3.23,14.92,14.92,0,0,0-4.25,3.64,5,5,0,0,0-1,2.81,4.61,4.61,0,0,0,1.15,2.91c.69.9,1.57,1.68,2.36,2.64a6.07,6.07,0,0,1,1.52,3.52,3.31,3.31,0,0,1-.62,2,4.88,4.88,0,0,1-1.55,1.32,22,22,0,0,0-3.37,1.94,6,6,0,0,0-1.3,6.81,5.26,5.26,0,0,0,1,1.44,9.43,9.43,0,0,0,1.4,1.1,15.09,15.09,0,0,1,2.87,2.18,3.62,3.62,0,0,1,.89,3.37,10.78,10.78,0,0,1-1.42,2.93,9.63,9.63,0,0,0-1.26,2.61,7.49,7.49,0,0,0-.24,2.64,7.2,7.2,0,0,0,1.74,4.17,7.72,7.72,0,0,0,2.82,2A9.74,9.74,0,0,0,262.61,273.82Z" style="fill:#fafafa"></path><path d="M304.19,186.86l-1.41-4.28-27.27,4.11c-8.17,1.94-13.92,12.83-11.64,20.91,2.54,9,6,19.85,9.33,26,6.72,12.45,17.42,10.58,17.42,10.58l9.93,26.34,19.73-33.78Z" style="fill:#ffbe9c"></path><path d="M270,215.93a1.8,1.8,0,0,0,2.23,1.14,1.72,1.72,0,0,0,1.21-2.14,1.8,1.8,0,0,0-2.23-1.14A1.72,1.72,0,0,0,270,215.93Z" style="fill:#263238"></path><path d="M268.63,212.22c.29.15,1.23-1.25,3.05-1.88s3.48-.19,3.6-.49c.06-.13-.29-.45-1-.67a5,5,0,0,0-3,.11,4.75,4.75,0,0,0-2.33,1.78C268.54,211.7,268.49,212.16,268.63,212.22Z" style="fill:#263238"></path><path d="M287.48,210.59a1.79,1.79,0,0,0,2.23,1.13,1.72,1.72,0,0,0,1.21-2.14,1.79,1.79,0,0,0-2.23-1.13A1.72,1.72,0,0,0,287.48,210.59Z" style="fill:#263238"></path><path d="M286.63,206.28c.29.15,1.24-1.25,3.06-1.88s3.47-.2,3.59-.49c.06-.13-.29-.46-1-.67a4.93,4.93,0,0,0-3,.11,4.78,4.78,0,0,0-2.34,1.78C286.54,205.75,286.49,206.22,286.63,206.28Z" style="fill:#263238"></path><path d="M284.77,222.09a13.27,13.27,0,0,0-3.14.51c-.49.11-1,.18-1.15-.11a2.55,2.55,0,0,1-.17-1.49c0-1.28.08-2.62.13-4,.14-5.71.07-10.33-.16-10.34s-.53,4.62-.67,10.33c0,1.4-.05,2.74-.07,4a2.88,2.88,0,0,0,.4,1.91,1.27,1.27,0,0,0,1,.41,3.46,3.46,0,0,0,.83-.17A12.38,12.38,0,0,0,284.77,222.09Z" style="fill:#263238"></path><path d="M290.63,244.25a37,37,0,0,0,16.44-11.1s-1.21,10.8-15.27,14.38Z" style="fill:#ff996c"></path><path d="M287.08,226.21a3.45,3.45,0,0,1,2.51-2.25,3.17,3.17,0,0,1,2.46.38,2,2,0,0,1,.9,2.12,2.34,2.34,0,0,1-2.17,1.44,7.29,7.29,0,0,1-2.82-.57,1.94,1.94,0,0,1-.7-.36.64.64,0,0,1-.24-.68" style="fill:#ff996c"></path><path d="M293.85,199.59c-.24-.5-2.13-.06-4.41-.1s-4.16-.46-4.41,0c-.11.24.26.7,1,1.13a7.67,7.67,0,0,0,6.72,0C293.59,200.28,294,199.83,293.85,199.59Z" style="fill:#e0e0e0"></path><path d="M271.89,204c-.54-.11-1.24,1.11-2.42,2.18s-2.41,1.73-2.35,2.28c.05.26.5.45,1.22.37a4.77,4.77,0,0,0,3.84-3.6C272.31,204.52,272.15,204.06,271.89,204Z" style="fill:#e0e0e0"></path><path d="M255.49,192.48c3.58,4,10.52,9.49,15.79,8.42a15.8,15.8,0,0,0,11.59-10.16c2,3.52,6.87,4.14,10.88,3.5a15.86,15.86,0,0,0,7.88-3.22,8.45,8.45,0,0,0,3.15-7.6c-.49-2.83-6.51-8.18-9.36-7.8" style="fill:#e0e0e0"></path><path d="M293.23,224.15c.11.27-1.38.93-3.16,1.71s-3.24,1.47-3.44,1.24,1-1.26,2.92-2.12S293.14,223.9,293.23,224.15Z" style="fill:#263238"></path><path d="M296.9,209.52a4.34,4.34,0,0,1-2,2.19,4.28,4.28,0,0,1-2.81.91c0-.15,1.22-.5,2.52-1.36S296.78,209.42,296.9,209.52Z" style="fill:#eb996e"></path><path d="M281.5,200.58a7.33,7.33,0,0,1-6.41,3.42c0-.16,1.64-.37,3.41-1.33S281.37,200.47,281.5,200.58Z" style="fill:#eb996e"></path><path d="M279.46,200.35c.11.08-.5,1-1.72,1.52a2.71,2.71,0,0,1-2.27.21c0-.16,1-.22,2.06-.7S279.34,200.25,279.46,200.35Z" style="fill:#eb996e"></path><path d="M296,225.23c-.15,0-.2-.44-.3-.92s-.22-.89-.09-1,.49.27.61.86S296.13,225.26,296,225.23Z" style="fill:#eb996e"></path><path d="M278.11,252.86s-2,2.29-2.47,9.92-1.09,24.2-1.09,24.2l8.66-2.14.28-29.76Z" style="fill:#FFE600"></path><path d="M297.92,252.07l21.14,46.38,6.87-18.38,28.41-3.73s-18.66,58.49-28.21,58.08a56.07,56.07,0,0,1-8.26-1,11.63,11.63,0,0,1-8.81-7.81l-18.44-56.06Z" style="fill:#ffbe9c"></path><path d="M283.42,262l-.21,22.85-6.44,1.59s-.15,31,3.41,35.59,2.25,7.07,9.45,7.6S299.84,328.56,300,328s5.32-13.74,5.32-13.74l-9.57-50Z" style="fill:#ffbe9c"></path><path d="M293.05,266l-21.9-34.69s-1.06-.71-1.54,1.65,2.4,16.88,2.4,16.88L283.42,262" style="fill:#ffbe9d"></path><path d="M283.42,262s-.09-.06-.24-.2l-.62-.62c-.58-.6-1.37-1.4-2.35-2.42L271.85,250l-.05-.05v-.06c-.55-2.76-1.12-5.81-1.66-9.08-.26-1.64-.52-3.33-.7-5.08a12.31,12.31,0,0,1-.08-2.73,4.24,4.24,0,0,1,.45-1.37,1.47,1.47,0,0,1,.58-.58,1,1,0,0,1,.92.05l.05,0,0,0,1.23,2,14.55,23.19,4.36,7.06,1.16,1.93a3.79,3.79,0,0,1,.37.7,5.32,5.32,0,0,1-.46-.64l-1.25-1.88-4.5-7-14.68-23.11-1.23-1.94.07.07c-.24-.14-.55,0-.74.36a3.7,3.7,0,0,0-.39,1.19,12.44,12.44,0,0,0,.08,2.58c.18,1.74.43,3.43.68,5.06.52,3.27,1.07,6.32,1.59,9.08l-.05-.11,8.22,8.92c.95,1.05,1.71,1.88,2.26,2.5l.58.67A1.63,1.63,0,0,1,283.42,262Z" style="fill:#eb996e"></path><path d="M307.09,319.66l-15.78-49.1s-14.27-20.17-15.44-22.8-5.85-12.27-3.95-14.61c0,0-2.5-5-.44-5.7s3.51,1.9,3.51,1.9-.78-2.8.22-3.46c1.56-1,3.29,1.12,3.29,1.12h0s1.61-1.76,4.24,1.31c0,0,13,15.06,14.32,15.94s3.07-2.93,3.07-2.93,1.17-7,1.76-7.45a8.82,8.82,0,0,1,1.9-.88s.73,9.94,0,13-1.63,12.53-1.63,12.53l16.9,39.91" style="fill:#ffbe9d"></path><path d="M319.06,298.45s-.12-.24-.33-.71-.52-1.18-.92-2.08l-3.44-8c-3-6.94-7.22-16.9-12.41-29.05l0-.05v-.06c.4-3.84.76-7.92,1.54-12.17a29.58,29.58,0,0,0,.38-6.5c0-2.23-.16-4.52-.32-6.83l.33.22c-.36.12-.72.26-1.06.41-.18.08-.35.17-.51.26l-.23.14a.56.56,0,0,0-.1.15,13.68,13.68,0,0,0-.64,2.27c-.36,1.59-.66,3.24-.94,4.9v.07a13,13,0,0,1-.92,1.62,4.44,4.44,0,0,1-1.36,1.41,1.09,1.09,0,0,1-1.13,0,5.4,5.4,0,0,1-.74-.66c-.46-.44-.88-.9-1.31-1.36-1.72-1.85-3.42-3.76-5.14-5.7s-3.45-3.93-5.2-5.94c-.89-1-1.74-2.07-2.65-3a4.12,4.12,0,0,0-1.59-1,1.66,1.66,0,0,0-1.63.33l-.22.21-.19-.22a4.59,4.59,0,0,0-1-.88,2.18,2.18,0,0,0-1.26-.43,1.34,1.34,0,0,0-.6.18.71.71,0,0,0-.36.42,5.49,5.49,0,0,0,.15,2.8l.42,1.7-.91-1.49a4.31,4.31,0,0,0-1.77-1.72c-.68-.31-1.72-.22-1.94.47a4.3,4.3,0,0,0,.18,2.41,15.37,15.37,0,0,0,.93,2.39l.07.14-.1.14a3.83,3.83,0,0,0-.3,2.64,19,19,0,0,0,.66,2.78,53.13,53.13,0,0,0,2,5.33l1.14,2.57a16.11,16.11,0,0,0,1.27,2.44c1,1.56,2,3.08,3,4.58,4,6,7.94,11.57,11.6,16.78l0,0v0l11.37,35.66,3.14,10,.81,2.63c.18.59.25.91.25.91s-.12-.3-.32-.89-.5-1.48-.87-2.6l-3.26-9.93c-2.78-8.59-6.76-20.85-11.55-35.61l0,.06c-3.67-5.2-7.61-10.79-11.65-16.76-1-1.5-2-3-3-4.59a18.53,18.53,0,0,1-1.3-2.5L274,244.26a54.76,54.76,0,0,1-2-5.38,17.8,17.8,0,0,1-.68-2.86,7.57,7.57,0,0,1-.08-1.51,2.69,2.69,0,0,1,.49-1.53l0,.29a15.56,15.56,0,0,1-1-2.48,7.31,7.31,0,0,1-.28-1.33,2.94,2.94,0,0,1,.12-1.43,1.46,1.46,0,0,1,1.19-.93,2.44,2.44,0,0,1,1.46.18,4.79,4.79,0,0,1,2,1.94l-.49.2a5.84,5.84,0,0,1-.14-3.14,1.2,1.2,0,0,1,.6-.69,1.79,1.79,0,0,1,.84-.25,2.76,2.76,0,0,1,1.58.51,5.77,5.77,0,0,1,1.09,1h-.4a2.17,2.17,0,0,1,2.16-.48,4.42,4.42,0,0,1,1.81,1.11c1,1,1.79,2,2.69,3,1.75,2,3.49,4,5.2,5.94s3.41,3.85,5.12,5.69c.43.46.85.92,1.29,1.35a5.69,5.69,0,0,0,.65.59.59.59,0,0,0,.62,0,3.88,3.88,0,0,0,1.17-1.24,12.45,12.45,0,0,0,.88-1.54l0,.06c.29-1.67.6-3.32.95-4.93a14,14,0,0,1,.7-2.38,1,1,0,0,1,.25-.33,2,2,0,0,1,.27-.17,4.75,4.75,0,0,1,.55-.28c.37-.16.73-.3,1.11-.43l.3-.11,0,.32c.16,2.33.27,4.61.31,6.86,0,1.12,0,2.24,0,3.34a17,17,0,0,1-.38,3.27c-.78,4.19-1.16,8.29-1.56,12.11l0-.1c5.12,12.19,9.32,22.17,12.24,29.13l3.34,8c.37.9.65,1.61.86,2.1S319.06,298.45,319.06,298.45Z" style="fill:#eb996e"></path><path d="M340.63,245.12c-9.63.62-13.2,6.82-16.35,18.86s-3.18,19.53-3.18,19.53l32.19,5.22s6.39-28.25,5.68-32.88S351.49,244.42,340.63,245.12Z" style="fill:#FFE600"></path><path d="M289.63,243.69a12.82,12.82,0,0,1-2.1-2.08,49.91,49.91,0,0,1-4.32-5.69,63.62,63.62,0,0,1-3.54-6.19A14.15,14.15,0,0,1,278.5,227a18.6,18.6,0,0,1,1.5,2.54c.89,1.58,2.15,3.76,3.66,6.08s3,4.32,4.16,5.74A22.41,22.41,0,0,1,289.63,243.69Z" style="fill:#eb996e"></path><path d="M285.15,246.11a14.53,14.53,0,0,1-1.73-2.23c-1-1.42-2.38-3.41-3.79-5.67a66.63,66.63,0,0,1-3.33-6,12.92,12.92,0,0,1-1.09-2.61,19,19,0,0,1,1.43,2.44c.84,1.52,2,3.6,3.44,5.85l3.65,5.75A15.39,15.39,0,0,1,285.15,246.11Z" style="fill:#eb996e"></path><path d="M280.18,248a9.14,9.14,0,0,1-1.7-1.85,35.58,35.58,0,0,1-3.29-5.07,48.83,48.83,0,0,1-2.52-5.5,9.71,9.71,0,0,1-.74-2.39c.16-.07,1.51,3.51,3.73,7.63a53.48,53.48,0,0,0,3.13,5.11A16,16,0,0,1,280.18,248Z" style="fill:#eb996e"></path><path d="M324.43,308.9a55.19,55.19,0,0,0-2.19-5.72A56.7,56.7,0,0,0,319,298a16.81,16.81,0,0,1,5.46,10.89Z" style="fill:#eb996e"></path><path d="M358.49,254.4a8.18,8.18,0,0,1,.74,2.53,22.74,22.74,0,0,1-.42,7.29c-1.1,6.14-2.83,14.74-5.27,24.58l-.06.23-.24,0-12.8-2.25-20.2-3.59-.23,0,0-.23a154.25,154.25,0,0,1,4-19.48c.65-2.34,1.21-4.16,1.62-5.41l.48-1.41a2.35,2.35,0,0,1,.19-.48,3.27,3.27,0,0,1-.12.5l-.41,1.44c-.35,1.25-.88,3.09-1.48,5.44A166.86,166.86,0,0,0,320.52,283l-.2-.27,20.21,3.53,12.8,2.27-.29.19c2.47-9.82,4.26-18.39,5.45-24.51a23.11,23.11,0,0,0,.56-7.21A17.12,17.12,0,0,0,358.49,254.4Z" style="fill:#263238"></path><path d="M283.5,261.32a2,2,0,0,1,0,.52c0,.4,0,.89,0,1.48,0,1.37,0,3.21,0,5.45,0,4.67-.07,11-.11,18s-.13,13.38-.26,18c-.07,2.3-.14,4.16-.2,5.44,0,.59-.07,1.08-.09,1.48a1.85,1.85,0,0,1-.07.51,1.81,1.81,0,0,1,0-.51c0-.4,0-.89,0-1.48,0-1.37,0-3.21,0-5.45,0-4.67.06-11,.11-18s.13-13.37.26-18c.07-2.3.14-4.16.2-5.44,0-.59.07-1.08.09-1.48A2,2,0,0,1,283.5,261.32Z" style="fill:#eb996e"></path><path d="M296.63,271.38s.15-.09.27-.3a1,1,0,0,0,0-1,5.47,5.47,0,0,0-1.3-1.09,2.17,2.17,0,0,1-.68-1,2.07,2.07,0,0,1,.15-1.24c.2-.61-.3-1.17-.78-1.59a3.18,3.18,0,0,1-1.15-1.47,1.23,1.23,0,0,1,.4-1.23c.27-.19.47-.12.46-.1s-.16.07-.32.25a1.06,1.06,0,0,0-.17,1,3.15,3.15,0,0,0,1.1,1.2,3.21,3.21,0,0,1,.77.82,1.54,1.54,0,0,1,.2,1.28,1.81,1.81,0,0,0-.16,1,1.71,1.71,0,0,0,.51.73,4.92,4.92,0,0,1,1.3,1.27,1.18,1.18,0,0,1-.11,1.29C296.83,271.44,296.62,271.41,296.63,271.38Z" style="fill:#eb996e"></path><path d="M318,248a11,11,0,0,0,10.57,7,7.8,7.8,0,0,0,15.32-1.52,9.34,9.34,0,0,1,.29-2.85c.8-2.05,3.45-2.51,5.26-3.77,3.26-2.28,3.46-7.19,1.9-10.84a8.84,8.84,0,0,1-.79-2.21c-.24-1.59.59-3.11,1.09-4.63,2.06-6.27-1.75-13.29-7.27-16.9-1.84-1.21-4.05-2.38-4.57-4.51A11.93,11.93,0,0,1,340,204a10,10,0,0,0-5.75-9.61,3.15,3.15,0,0,1-1.51-1,3,3,0,0,1-.33-1.11,11.67,11.67,0,0,0-13.07-9,2.9,2.9,0,0,1-1.05.09c-1-.19-1.39-1.36-1.79-2.29-1.08-2.45-4.5-6.59-6.95-7.65-6.8-3-10.87,2.39-12.2,4.71,0,0,1.92,19.42,3.67,22.61s6.86,10.91,7,15.07,1,12.56,3.61,15.56S318,248,318,248Z" style="fill:#e0e0e0"></path><path d="M320.18,182.94s-.16.31-.53.8a20.26,20.26,0,0,1-1.75,1.94,27.21,27.21,0,0,1-15.21,7.53,20.29,20.29,0,0,1-2.6.22,3.09,3.09,0,0,1-1-.06c0-.1,1.35-.17,3.49-.57a30.84,30.84,0,0,0,15-7.43C319.23,183.91,320.1,182.88,320.18,182.94Z" style="fill:#fafafa"></path><path d="M322.33,183.7a4.3,4.3,0,0,1-.05,1.21,10,10,0,0,1-.21,1.4,16.6,16.6,0,0,1-.42,1.83,25.09,25.09,0,0,1-1.76,4.57,28.11,28.11,0,0,1-3.27,5,29,29,0,0,1-4.32,4.17,25.1,25.1,0,0,1-4.16,2.58,17,17,0,0,1-1.72.76,11,11,0,0,1-1.34.47,4.59,4.59,0,0,1-1.17.28c0-.11,1.61-.59,4-1.89a26.89,26.89,0,0,0,4-2.64,31.67,31.67,0,0,0,4.2-4.11,30.22,30.22,0,0,0,3.24-4.9,26.83,26.83,0,0,0,1.84-4.44C322.06,185.4,322.21,183.69,322.33,183.7Z" style="fill:#fafafa"></path><path d="M333.58,254.57s.23-.07.62-.27a3.11,3.11,0,0,0,1.26-1.39,4.13,4.13,0,0,0,.19-2.93,13.18,13.18,0,0,0-1.85-3.58,8.59,8.59,0,0,1-1.76-4.72c0-1.91,1-3.67,1.82-5.48a8.65,8.65,0,0,0,.87-2.85,3.44,3.44,0,0,0-.93-2.73,6.4,6.4,0,0,0-2.74-1.56c-1.05-.36-2.17-.63-3.29-1a6.31,6.31,0,0,1-3-1.94,4.23,4.23,0,0,1-.66-3.41c.45-2.22,1.64-4.09,1.46-6a6.48,6.48,0,0,0-2.86-4.49,23.09,23.09,0,0,0-4.26-2.45,22.39,22.39,0,0,1-3.59-2.07,9.16,9.16,0,0,1-2.2-2.22,5.6,5.6,0,0,1-.8-1.82,2.7,2.7,0,0,1-.07-.68,7.13,7.13,0,0,0,1.06,2.36c1,1.39,3,2.81,5.78,4.05a22.05,22.05,0,0,1,4.38,2.44,9.28,9.28,0,0,1,2,2,5.49,5.49,0,0,1,1.09,2.85c.19,2.18-1.05,4.12-1.44,6.18a3.67,3.67,0,0,0,.57,2.94,5.61,5.61,0,0,0,2.71,1.73c1.08.38,2.2.65,3.28,1a7.11,7.11,0,0,1,3,1.73,4,4,0,0,1,1.06,3.18,9.49,9.49,0,0,1-.93,3c-.84,1.83-1.79,3.53-1.83,5.26a8.2,8.2,0,0,0,1.62,4.48A13.47,13.47,0,0,1,336,249.9a4.34,4.34,0,0,1-.31,3.11,3,3,0,0,1-1.42,1.4A1.8,1.8,0,0,1,333.58,254.57Z" style="fill:#fafafa"></path></g><g id="freepik--Floor--inject-33"><path d="M454.63,476.28c0,.15-90.66.27-202.46.27s-202.48-.12-202.48-.27,90.64-.27,202.48-.27S454.63,476.13,454.63,476.28Z" style="fill:#263238"></path></g><g id="freepik--speech-bubbles--inject-33"><circle cx="213.69" cy="182.21" r="22.04" transform="matrix(0.99, -0.15, 0.15, 0.99, -24.97, 34.2)" style="fill:#fafafa"></circle><path d="M238.55,195.51a5.61,5.61,0,0,0-.61.26,3.06,3.06,0,0,0-1.2,1.28,2.77,2.77,0,0,0-.28,1.18,2.48,2.48,0,0,0,.38,1.31,2.82,2.82,0,0,0,2.73,1.28,2.78,2.78,0,0,0,2.14-2.11,2.4,2.4,0,0,0-.06-1.36,2.91,2.91,0,0,0-2.21-1.83,6.21,6.21,0,0,0-.66-.05l.17,0a.7.7,0,0,1,.21,0,1.48,1.48,0,0,1,.29,0,3,3,0,0,1,2.36,1.85,2.59,2.59,0,0,1,.09,1.47,3.09,3.09,0,0,1-.77,1.43,2.84,2.84,0,0,1-1.53.83,2.74,2.74,0,0,1-1.72-.29,3,3,0,0,1-1.2-1.09,2.57,2.57,0,0,1-.39-1.42,2.94,2.94,0,0,1,1.62-2.52,1.83,1.83,0,0,1,.26-.11.63.63,0,0,1,.21-.05C238.49,195.51,238.55,195.5,238.55,195.51Z" style="fill:#263238"></path><path d="M246.23,201.64s-.15.05-.38.18a1.9,1.9,0,0,0-.73.81,1.51,1.51,0,0,0,.07,1.53,1.71,1.71,0,0,0,1.67.79,1.75,1.75,0,0,0,1.33-1.3,1.58,1.58,0,0,0-.44-1.47,1.81,1.81,0,0,0-1-.51c-.26,0-.41,0-.42,0a.82.82,0,0,1,.43,0,1.75,1.75,0,0,1,1,.49,1.85,1.85,0,0,1,.46.67,1.69,1.69,0,0,1,.06.95,1.81,1.81,0,0,1-3.35.56,1.69,1.69,0,0,1-.25-.91,1.78,1.78,0,0,1,.22-.79,1.81,1.81,0,0,1,.83-.81A1.13,1.13,0,0,1,246.23,201.64Z" style="fill:#263238"></path><path d="M235.86,181.52s0-.13,0-.36-.06-.59-.1-1c0-.23,0-.49-.07-.77s-.1-.59-.16-.92-.13-.69-.21-1.08a3.25,3.25,0,0,0-.14-.58l-.18-.62a21,21,0,0,0-2.63-5.8,21.89,21.89,0,0,0-5.8-6.09l-1-.68c-.34-.21-.7-.4-1.06-.61l-.54-.3a5.77,5.77,0,0,0-.55-.29l-1.17-.51-.59-.26-.61-.2-1.26-.42c-.43-.12-.87-.2-1.31-.3l-.66-.15-.34-.08-.34,0a20,20,0,0,0-2.8-.23c-.48,0-1,0-1.44,0l-1.46.12c-.24,0-.49,0-.73.07l-.73.14c-.49.1-1,.17-1.48.29a23,23,0,0,0-2.91.95l-.72.29a3.88,3.88,0,0,0-.36.15l-.35.18-1.4.73c-.46.27-.9.57-1.35.86-.22.15-.46.28-.67.45l-.63.51a24,24,0,0,0-2.44,2.2l-1.08,1.27-.27.31-.25.35-.48.69-.49.69-.42.74-.42.74-.21.38c-.06.12-.12.26-.17.39-.24.52-.47,1.05-.71,1.57l-.54,1.65a23.68,23.68,0,0,0-.93,7,23.94,23.94,0,0,0,1.35,6.92l.65,1.61.8,1.53.2.38.23.36.47.72.46.71.53.66.52.66.27.33.29.3,1.16,1.2a24.71,24.71,0,0,0,2.56,2.05l.67.46a7,7,0,0,0,.69.41c.47.26.93.54,1.4.78l1.44.64.36.16.37.13.74.25a24.47,24.47,0,0,0,3,.77c.49.08,1,.13,1.49.19l.74.09c.24,0,.49,0,.74,0l1.46,0c.48,0,1-.07,1.43-.1a20.91,20.91,0,0,0,2.78-.41l.34-.06.33-.1.65-.19c.44-.13.88-.23,1.29-.38l1.23-.49.6-.25.58-.29,1.13-.59a4.6,4.6,0,0,0,.53-.31l.52-.34c.35-.23.69-.44,1-.67l.93-.74a22.17,22.17,0,0,0,5.42-6.43c.15-.28.31-.54.45-.8s.24-.55.36-.81l.35-.78c.05-.13.11-.25.16-.38s.09-.26.13-.38c.17-.51.33-1,.49-1.46s.22-.92.32-1.35c.05-.21.1-.42.14-.62a2.54,2.54,0,0,0,.11-.59c.05-.39.1-.75.14-1.09s.09-.64.11-.93l0-.77c0-.46,0-.81,0-1.06s0-.35,0-.35v.35c0,.25,0,.6,0,1.06,0,.23,0,.49,0,.78s-.07.59-.1.93-.08.7-.13,1.09a3.17,3.17,0,0,1-.1.59c0,.2-.09.41-.14.63-.1.43-.18.89-.32,1.36l-.48,1.46c0,.13-.08.26-.13.39a3.89,3.89,0,0,1-.16.38l-.34.78-.36.81c-.14.27-.3.54-.45.81a22.09,22.09,0,0,1-5.43,6.49l-.93.75-1,.68-.53.34a4.8,4.8,0,0,1-.54.32l-1.13.59-.58.3-.61.24-1.23.5c-.42.16-.86.26-1.3.4l-.66.19-.33.09-.34.06a19.89,19.89,0,0,1-2.8.42c-.48,0-1,.1-1.45.11l-1.47,0c-.25,0-.5,0-.75,0l-.74-.09c-.5-.06-1-.1-1.5-.19a24.93,24.93,0,0,1-3-.77l-.74-.25-.38-.13-.36-.16-1.46-.65c-.47-.24-.93-.52-1.41-.78-.23-.14-.48-.25-.7-.41l-.67-.47a25.15,25.15,0,0,1-2.59-2.06l-1.17-1.21-.29-.31-.27-.33-.53-.66-.53-.67-.47-.72-.47-.72-.24-.36-.2-.39-.8-1.54-.66-1.63a22.07,22.07,0,0,1-.43-14c.19-.56.37-1.12.55-1.67s.48-1.06.71-1.59l.18-.4.21-.37.43-.75.42-.75.5-.7.48-.69c.09-.12.16-.24.25-.35l.27-.32,1.1-1.28a25.57,25.57,0,0,1,2.45-2.22l.64-.51c.22-.17.46-.3.68-.45.46-.29.9-.6,1.36-.87l1.41-.73.36-.19.36-.15.73-.29a23.37,23.37,0,0,1,2.94-1c.49-.12,1-.19,1.49-.29l.74-.14c.24,0,.49,0,.74-.07l1.46-.11c.49,0,1,0,1.45,0a20,20,0,0,1,2.82.25l.35,0,.34.07.67.15c.44.11.89.19,1.32.32l1.26.42.62.2.6.26,1.16.53a3.66,3.66,0,0,1,.56.28l.55.31,1.06.61c.33.24.65.47,1,.69a22.23,22.23,0,0,1,5.81,6.15,21.1,21.1,0,0,1,2.61,5.84c.06.21.12.42.17.62a2.53,2.53,0,0,1,.14.59c.07.38.14.74.2,1.08s.12.64.15.92.05.54.06.78c0,.45.06.81.08,1S235.86,181.52,235.86,181.52Z" style="fill:#263238"></path><path d="M207.79,178h3.15a2.68,2.68,0,0,1,2.74-2.7,2.54,2.54,0,0,1,2.47,1.62,2.84,2.84,0,0,1-.21,2.55c-.53.88-1.7,1.69-3.83,1.32l0,7.1h3.11v-4.16a6.09,6.09,0,0,0,4.35-6c0-4.61-4.16-5.66-5.92-5.65C212.31,172.1,207.71,172.44,207.79,178Z" style="fill:#263238"></path><rect x="212.14" y="189.34" width="3.16" height="2.95" transform="translate(-0.69 0.77) rotate(-0.21)" style="fill:#263238"></rect><circle cx="347.24" cy="140.98" r="23.68" transform="translate(-27.03 121.68) rotate(-19.15)" style="fill:#fafafa"></circle><path d="M325.74,162.33a6.86,6.86,0,0,1,.71.08,3.16,3.16,0,0,1,1.63,1,3,3,0,0,1,.65,1.12,2.62,2.62,0,0,1,0,1.47,2.83,2.83,0,0,1-5.27.65,2.57,2.57,0,0,1-.35-1.43,3,3,0,0,1,.36-1.24,3.21,3.21,0,0,1,1.35-1.32,6.5,6.5,0,0,1,.66-.25s-.06,0-.18,0a1.12,1.12,0,0,0-.22.05,1.31,1.31,0,0,0-.29.11,3.16,3.16,0,0,0-1.86,2.62,2.79,2.79,0,0,0,.35,1.54,3.21,3.21,0,0,0,1.24,1.24,3.09,3.09,0,0,0,1.83.39,3,3,0,0,0,1.68-.83,3.31,3.31,0,0,0,.9-1.49,2.81,2.81,0,0,0,0-1.58,3.22,3.22,0,0,0-.72-1.18,3.1,3.1,0,0,0-1.73-.92l-.3,0a.88.88,0,0,0-.23,0A.52.52,0,0,0,325.74,162.33Z" style="fill:#263238"></path><path d="M319.73,171s.16,0,.44.07a1.94,1.94,0,0,1,1,.6,1.67,1.67,0,0,1,.41,1.6,1.75,1.75,0,0,1-3.25.4,1.67,1.67,0,0,1,0-1.65,2,2,0,0,1,.83-.83c.25-.13.41-.15.41-.17a.87.87,0,0,0-.45.09,2,2,0,0,0-1.19,1.67,1.77,1.77,0,0,0,.22,1,1.94,1.94,0,0,0,3.62-.45,1.73,1.73,0,0,0,0-1,2,2,0,0,0-.46-.75,2,2,0,0,0-1.11-.58A.83.83,0,0,0,319.73,171Z" style="fill:#263238"></path><path d="M324.2,147.09l-.06-.38c-.06-.25-.13-.62-.23-1.11-.05-.24-.11-.51-.17-.81s-.07-.64-.11-1l-.12-1.17a3.46,3.46,0,0,1,0-.65c0-.22,0-.45,0-.68a22.64,22.64,0,0,1,.92-6.79,23.55,23.55,0,0,1,4.1-8l.79-1c.29-.32.6-.62.9-.94l.46-.48a5.44,5.44,0,0,1,.49-.47l1-.88c.18-.15.35-.31.53-.45l.58-.4,1.16-.82c.4-.26.83-.47,1.25-.72l.64-.36.33-.17.34-.15a21.47,21.47,0,0,1,2.8-1.11c.49-.14,1-.33,1.48-.45l1.54-.33c.26,0,.51-.12.78-.15l.79-.09c.53,0,1.07-.13,1.61-.16a26,26,0,0,1,3.29.09l.83.07.42,0,.42.08,1.66.32c.56.14,1.1.32,1.66.48a7.76,7.76,0,0,1,.82.25l.81.33a25.78,25.78,0,0,1,3.19,1.52l1.5,1,.38.24.35.28.71.56.72.57.66.63.66.63.33.32c.11.11.21.23.31.35l1.2,1.41L367,128a25.76,25.76,0,0,1,3.1,6.9,25.47,25.47,0,0,1,.74,7.54c-.06.63-.11,1.25-.17,1.86s-.23,1.22-.35,1.83l-.09.45-.13.44-.26.88-.26.88-.34.84-.33.84-.17.42-.21.4c-.28.53-.55,1.06-.82,1.59a27.14,27.14,0,0,1-2,2.9l-.54.68c-.18.23-.4.43-.59.64-.41.41-.79.84-1.2,1.23l-1.29,1.11-.32.27c-.11.09-.23.16-.35.25l-.68.48a24.83,24.83,0,0,1-2.82,1.7c-.48.25-1,.44-1.47.66l-.73.32c-.25.11-.51.17-.76.26l-1.49.48c-.5.14-1,.22-1.51.34a22.06,22.06,0,0,1-3,.43l-.37,0h-1.1c-.49,0-1,0-1.45,0l-1.41-.12-.7-.07-.68-.12-1.34-.26a4.88,4.88,0,0,1-.66-.16l-.63-.19-1.26-.37-1.18-.48a23.73,23.73,0,0,1-7.56-4.95l-.71-.69-.62-.72-.6-.69-.29-.34-.25-.36-.94-1.35c-.29-.43-.52-.88-.76-1.29-.11-.2-.23-.4-.33-.59a4.6,4.6,0,0,1-.3-.58c-.17-.38-.33-.74-.47-1.07s-.29-.64-.4-.93-.18-.55-.26-.79c-.16-.47-.27-.83-.36-1.07s-.13-.37-.13-.37l.11.37.34,1.09.25.79c.1.29.25.6.39.93s.3.7.46,1.08a4.48,4.48,0,0,0,.29.58l.34.61c.24.41.46.86.74,1.3s.62.88.95,1.35l.25.36.28.35c.2.22.4.46.6.7s.41.48.62.72l.71.69a23.83,23.83,0,0,0,7.59,5l1.19.48c.41.14.84.25,1.26.38l.64.19a4.88,4.88,0,0,0,.66.16l1.35.26c.23.05.45.1.68.13l.71.07,1.42.13c.48,0,1,0,1.46,0h1.11l.37,0a21,21,0,0,0,3-.43c.5-.11,1-.2,1.52-.34l1.51-.48c.25-.08.51-.15.76-.25l.74-.32c.49-.23,1-.42,1.48-.67a24,24,0,0,0,2.85-1.72l.69-.48.34-.25.33-.27,1.3-1.12c.42-.39.8-.82,1.21-1.24.2-.21.41-.41.59-.64l.55-.69a26.16,26.16,0,0,0,2-2.92c.28-.53.55-1.07.83-1.61l.21-.4.17-.42.35-.85.34-.85.26-.89.26-.88.13-.45.09-.46.36-1.84c.05-.62.11-1.25.17-1.87a25.22,25.22,0,0,0-.75-7.61,25.52,25.52,0,0,0-3.13-7l-1.08-1.55-1.22-1.42-.31-.35-.33-.32-.67-.64-.67-.64-.72-.57-.72-.56c-.12-.1-.23-.19-.36-.28l-.38-.25-1.52-1a26.89,26.89,0,0,0-3.21-1.53l-.82-.32a8,8,0,0,0-.83-.26c-.56-.16-1.11-.34-1.67-.48l-1.68-.32-.42-.08-.42,0-.84-.08a26.43,26.43,0,0,0-3.32-.08c-.55,0-1.09.12-1.62.17l-.8.09c-.27,0-.53.1-.79.15l-1.55.33c-.5.13-1,.31-1.49.46a24,24,0,0,0-2.82,1.12l-.34.15-.33.18-.64.37c-.43.24-.86.46-1.26.72l-1.18.83-.57.4-.53.45-1.05.9a5.32,5.32,0,0,0-.48.47l-.47.48c-.3.33-.61.64-.9,1s-.53.68-.8,1a23.79,23.79,0,0,0-4.09,8.12,22.36,22.36,0,0,0-.88,6.82c0,.23,0,.46,0,.69a3.5,3.5,0,0,0,0,.65c.05.41.09.8.13,1.17s.08.69.13,1,.12.57.18.81c.1.48.19.85.24,1.11Z" style="fill:#263238"></path><path d="M341.09,137l3.18-.15A2.69,2.69,0,0,1,346.9,134a2.58,2.58,0,0,1,2.57,1.52,2.83,2.83,0,0,1-.11,2.58c-.49.91-1.63,1.77-3.79,1.5l.34,7.15,3.14-.15-.2-4.19a6.12,6.12,0,0,0,4.11-6.19c-.22-4.64-4.43-5.52-6.21-5.43C345.39,130.87,340.77,131.42,341.09,137Z" style="fill:#263238"></path><rect x="346.04" y="148.17" width="3.19" height="2.98" transform="translate(-6.7 16.63) rotate(-2.71)" style="fill:#263238"></rect><circle cx="386.23" cy="201.04" r="20.3" transform="translate(0.76 403.54) rotate(-55.21)" style="fill:#fafafa"></circle><path d="M360.63,205.43a5.43,5.43,0,0,1,.45.41,2.65,2.65,0,0,1,.68,1.46,2.53,2.53,0,0,1-.1,1.11,2.14,2.14,0,0,1-.72,1,2.43,2.43,0,0,1-4-2.14,2.17,2.17,0,0,1,.46-1.18,2.55,2.55,0,0,1,.87-.69,2.66,2.66,0,0,1,1.59-.26c.38.06.58.17.59.15s-.05,0-.14-.08a.75.75,0,0,0-.18-.07.89.89,0,0,0-.26-.07,2.74,2.74,0,0,0-2.6.93,2.37,2.37,0,0,0-.5,1.25,2.72,2.72,0,0,0,.25,1.47,2.45,2.45,0,0,0,2.68,1.43,2.81,2.81,0,0,0,1.37-.61,2.37,2.37,0,0,0,.75-1.12,2.68,2.68,0,0,0,.08-1.18,2.63,2.63,0,0,0-.76-1.49.84.84,0,0,0-.2-.18l-.16-.11C360.68,205.45,360.63,205.42,360.63,205.43Z" style="fill:#263238"></path><path d="M352.13,208.55s.11.09.28.27a1.76,1.76,0,0,1,.41.91,1.44,1.44,0,0,1-.51,1.33,1.5,1.5,0,0,1-2.48-1.32,1.43,1.43,0,0,1,.82-1.16,1.67,1.67,0,0,1,1-.17c.24,0,.36.09.37.08s-.11-.09-.36-.15a1.67,1.67,0,0,0-1.06.12,1.61,1.61,0,0,0-.6.46,1.52,1.52,0,0,0-.33.8,1.66,1.66,0,0,0,2.76,1.47,1.53,1.53,0,0,0,.48-.72,1.78,1.78,0,0,0,.05-.75,1.72,1.72,0,0,0-.49-.95A.76.76,0,0,0,352.13,208.55Z" style="fill:#263238"></path><path d="M367.06,194l.14-.3.39-.89.28-.65c.12-.24.27-.48.42-.76l.49-.88a4,4,0,0,1,.29-.47l.34-.48a19.37,19.37,0,0,1,4-4.31,20.13,20.13,0,0,1,6.84-3.63l1.05-.31,1.1-.22L383,181a3.56,3.56,0,0,1,.57-.09l1.16-.11.59-.05h1.82c.41,0,.82.08,1.24.12l.62.06.31,0,.32.06a19.09,19.09,0,0,1,2.51.61c.42.13.85.25,1.26.41l1.24.52c.2.1.42.17.62.28l.6.33c.4.23.81.44,1.21.68a22.4,22.4,0,0,1,2.26,1.68l.55.47c.09.08.19.15.27.23l.26.26,1,1.05c.32.37.61.76.92,1.14.15.2.32.38.46.59l.4.63a22.56,22.56,0,0,1,1.49,2.63c.19.47.38,1,.58,1.43l.14.35c0,.13.08.25.11.37l.22.75.23.75.15.76.15.78.08.38c0,.13,0,.27,0,.4l.15,1.58v1.6a20.14,20.14,0,0,1-4.43,12l-1,1.22L399.89,216l-.29.27-.31.24-.61.49-.62.49-.65.43-.65.42-.33.21-.34.18-1.36.71a23.67,23.67,0,0,1-2.84,1l-.72.21a5.77,5.77,0,0,1-.72.16c-.49.09-1,.2-1.45.27l-1.45.14-.36,0h-1.08a21.89,21.89,0,0,1-2.82-.19c-.46-.07-.91-.18-1.36-.26l-.67-.14c-.22,0-.43-.13-.65-.19l-1.29-.4c-.42-.15-.81-.34-1.22-.51a18.52,18.52,0,0,1-2.31-1.17l-.28-.15c-.09-.05-.17-.12-.26-.18l-.52-.35c-.34-.24-.69-.46-1-.72l-.93-.78-.46-.39-.41-.43-.82-.84a3,3,0,0,1-.37-.43l-.36-.45c-.23-.29-.47-.58-.69-.88s-.41-.61-.6-.91a20.31,20.31,0,0,1-2.86-7.21c-.05-.28-.11-.55-.16-.83s-.05-.54-.08-.81-.05-.52-.08-.78,0-.25,0-.38v-1.78c0-.45.07-.88.1-1.28l.06-.59a4.37,4.37,0,0,1,.08-.54c.07-.36.14-.69.2-1s.11-.59.17-.85.15-.47.21-.68c.12-.4.22-.71.28-.93l.09-.32-.11.32-.3.92-.21.68c-.07.26-.12.54-.19.85l-.2,1a3.32,3.32,0,0,0-.09.55l-.06.59c0,.41-.1.83-.12,1.28V202c0,.12,0,.25,0,.38s.05.52.07.78.05.54.08.82.1.55.16.83A20.34,20.34,0,0,0,369,212l.6.92c.22.3.47.59.7.89l.36.45a4,4,0,0,0,.38.44l.81.85.42.43.46.39.94.79c.32.26.67.48,1,.73l.52.36.26.17.28.16a18,18,0,0,0,2.32,1.18c.41.17.82.36,1.24.51l1.29.41c.22.06.44.14.66.19l.68.14c.45.09.91.2,1.37.27a22.08,22.08,0,0,0,2.84.19h1.09l.36,0,1.46-.14c.49-.07,1-.18,1.46-.27.25-.06.5-.09.74-.16l.72-.22a20.5,20.5,0,0,0,2.86-1l1.38-.71.34-.18.33-.21.66-.43.66-.43.62-.49.62-.49.31-.25.29-.28,1.16-1.11,1-1.24a21.89,21.89,0,0,0,3.23-5.7,22.13,22.13,0,0,0,1.24-6.43v-1.62c-.05-.53-.11-1.07-.16-1.6,0-.13,0-.26,0-.39l-.07-.39-.16-.78-.15-.78-.23-.75-.22-.75c0-.13-.07-.25-.12-.38l-.14-.36c-.2-.48-.39-1-.58-1.43a22.29,22.29,0,0,0-1.51-2.66l-.41-.63a6.55,6.55,0,0,0-.45-.59c-.32-.39-.61-.79-.94-1.16l-1-1.05-.26-.27-.27-.23-.55-.47a21.41,21.41,0,0,0-2.29-1.69c-.4-.25-.82-.46-1.22-.69l-.61-.33c-.2-.11-.42-.18-.62-.28l-1.25-.53c-.42-.16-.85-.27-1.27-.41a19.51,19.51,0,0,0-2.54-.61l-.31-.06-.32,0-.63-.07c-.42,0-.83-.09-1.24-.11h-1.83l-.6.06-1.17.11a3.39,3.39,0,0,0-.57.09l-.57.11c-.37.08-.74.14-1.1.23l-1.06.31a20.35,20.35,0,0,0-6.87,3.68,19.16,19.16,0,0,0-4,4.35L369,190a3.31,3.31,0,0,0-.29.47l-.48.89c-.15.27-.3.52-.41.76s-.2.46-.28.66l-.37.9Z" style="fill:#263238"></path><path d="M391,205.34H388.3a2.31,2.31,0,0,1-2.37,2.33,2.22,2.22,0,0,1-2.14-1.4,2.44,2.44,0,0,1,.2-2.21c.46-.76,1.47-1.45,3.31-1.13v-6.14h-2.7v3.6a5.24,5.24,0,0,0-3.77,5.13c0,4,3.57,4.91,5.1,4.91C387.1,210.43,391.08,210.15,391,205.34Z" style="fill:#263238"></path><rect x="384.57" y="192.98" width="2.73" height="2.55" transform="translate(771.87 388.51) rotate(180)" style="fill:#263238"></rect><circle cx="272.85" cy="121.41" r="25.72" transform="translate(89.3 357) rotate(-76.07)" style="fill:#fafafa"></circle><path d="M276.25,154.14s.17-.22.55-.54a3.43,3.43,0,0,1,1.91-.73,3.34,3.34,0,0,1,1.4.21,2.92,2.92,0,0,1,1.25,1,3.08,3.08,0,0,1-3.05,4.9,2.93,2.93,0,0,1-1.44-.68,3.26,3.26,0,0,1-.81-1.16,3.42,3.42,0,0,1-.19-2,6.37,6.37,0,0,1,.24-.74.8.8,0,0,0-.12.17,1.3,1.3,0,0,0-.1.23,1.58,1.58,0,0,0-.11.31,3.43,3.43,0,0,0,1,3.36,2.94,2.94,0,0,0,1.55.75,3.41,3.41,0,0,0,1.88-.2,3.22,3.22,0,0,0,1.58-1.28,3.27,3.27,0,0,0,.45-2,3.5,3.5,0,0,0-.66-1.78,3,3,0,0,0-1.35-1,3.43,3.43,0,0,0-3.44.63,1.67,1.67,0,0,0-.23.24,1.27,1.27,0,0,0-.16.2C276.28,154.08,276.24,154.14,276.25,154.14Z" style="fill:#263238"></path><path d="M279.48,165.14s.12-.13.36-.32a2.13,2.13,0,0,1,1.2-.44,1.83,1.83,0,0,1,1.63.75,1.9,1.9,0,0,1-1.88,3,1.82,1.82,0,0,1-1.4-1.13,2.17,2.17,0,0,1-.13-1.26c.07-.3.15-.46.13-.47a1.26,1.26,0,0,0-.22.44,2.17,2.17,0,0,0,.07,1.36,2.13,2.13,0,0,0,.52.79,1.94,1.94,0,0,0,1,.49,2.11,2.11,0,0,0,2.1-3.37,1.9,1.9,0,0,0-.88-.67,2.18,2.18,0,0,0-2.19.42A1.3,1.3,0,0,0,279.48,165.14Z" style="fill:#263238"></path><path d="M262.32,145.05l-.37-.2-1.09-.56-.8-.42c-.29-.16-.59-.37-.92-.58l-1.07-.7a3.15,3.15,0,0,1-.57-.41l-.59-.47a24.39,24.39,0,0,1-5.11-5.4,25.65,25.65,0,0,1-4-9c-.1-.45-.21-.9-.31-1.36s-.12-.93-.19-1.4l-.09-.72a5.83,5.83,0,0,1-.06-.73c0-.49,0-1,0-1.48,0-.25,0-.5,0-.75s0-.5,0-.76c0-.51.07-1,.11-1.54s.16-1,.24-1.55c.05-.26.09-.52.14-.78s0-.27.07-.4l.1-.38a25.72,25.72,0,0,1,1-3.13c.21-.52.39-1,.63-1.56l.77-1.52c.13-.25.25-.52.4-.76s.31-.49.47-.73c.32-.49.62-1,1-1.47a26.92,26.92,0,0,1,2.31-2.73L255,103c.1-.11.2-.22.32-.33l.35-.29,1.4-1.19c.49-.38,1-.72,1.53-1.08.26-.17.51-.37.78-.52l.83-.46a27.4,27.4,0,0,1,3.45-1.66l1.85-.61.46-.15a4.15,4.15,0,0,1,.48-.11l1-.22,1-.22,1-.13,1-.13.49-.06.5,0,2-.06,2,.14a25.39,25.39,0,0,1,14.83,6.6l1.46,1.41,1.3,1.54.32.38.29.41.57.82.56.82.48.86.48.86.24.43.2.45.78,1.78a28.47,28.47,0,0,1,1.08,3.67l.21.92c.07.31.09.63.14.93.07.63.17,1.24.22,1.86s0,1.23.05,1.84l0,.46c0,.15,0,.31,0,.46l-.06.9a27.33,27.33,0,0,1-.48,3.55c-.12.57-.3,1.13-.44,1.69-.08.28-.16.56-.23.84s-.2.54-.3.81l-.61,1.59c-.22.52-.5,1-.74,1.51a24.62,24.62,0,0,1-1.67,2.82l-.22.34a3.76,3.76,0,0,1-.25.31l-.49.63c-.33.41-.64.84-1,1.22L291,139.68l-.53.54-.57.49-1.13,1a4,4,0,0,1-.58.44l-.59.42c-.4.27-.78.55-1.17.8l-1.22.68a25.76,25.76,0,0,1-9.34,3l-1.06.13-1,0-1,0h-.48l-.47,0-1.79-.12c-.56-.05-1.09-.17-1.6-.24l-.74-.13a3.56,3.56,0,0,1-.68-.14l-1.23-.33c-.38-.11-.74-.19-1.06-.29l-.84-.32-1.15-.44-.4-.14.39.17,1.14.45.84.33c.32.11.68.2,1.06.31l1.23.34a5,5,0,0,0,.69.15l.73.13c.51.08,1,.2,1.61.25l1.79.13.48,0h.48l1,0,1,0,1.07-.13a25.75,25.75,0,0,0,9.41-3l1.22-.68,1.18-.81.6-.41a6.31,6.31,0,0,0,.58-.44l1.14-1,.58-.49.53-.55,1.09-1.11c.35-.39.66-.82,1-1.23l.5-.63.25-.32.22-.34a24.17,24.17,0,0,0,1.69-2.84c.24-.5.52-1,.75-1.51s.41-1.07.62-1.61c.1-.27.22-.53.3-.81s.15-.56.23-.85c.15-.56.33-1.13.46-1.71a27.87,27.87,0,0,0,.48-3.57l.06-.92c0-.15,0-.3,0-.45v-.47l-.06-1.86c0-.62-.15-1.24-.22-1.87-.05-.31-.06-.63-.14-.94l-.21-.93a29.51,29.51,0,0,0-1.08-3.71c-.27-.59-.53-1.19-.79-1.79l-.2-.46-.24-.43-.49-.87-.48-.87-.57-.82-.57-.83-.29-.41-.32-.39-1.32-1.55-1.47-1.43a25.78,25.78,0,0,0-15-6.66l-2-.14-2,.07h-.51l-.5.07-1,.13-1,.13-1,.22-1,.22-.48.11-.47.16-1.86.61A30.31,30.31,0,0,0,260,98.89l-.83.46c-.28.16-.52.36-.79.53-.51.37-1,.71-1.53,1.09l-1.42,1.2-.36.3-.32.33-.64.66a28.73,28.73,0,0,0-2.33,2.75c-.34.48-.64,1-1,1.48l-.48.74c-.15.25-.26.51-.4.77l-.77,1.53c-.24.52-.42,1.06-.63,1.58a24.84,24.84,0,0,0-1,3.15l-.11.39c0,.13,0,.27-.07.4s-.08.53-.13.79c-.08.52-.19,1-.24,1.56s-.07,1-.11,1.55l-.05.77c0,.25,0,.5,0,.75,0,.51,0,1,.05,1.5a4.51,4.51,0,0,0,.07.73l.09.72c.06.48.11.95.19,1.42s.21.91.31,1.36a25.75,25.75,0,0,0,4.07,9,24.5,24.5,0,0,0,5.17,5.4l.59.46a3.15,3.15,0,0,0,.57.41l1.08.69c.33.21.64.41.93.58l.81.4,1.1.55Z" style="fill:#263238"></path><path d="M279.17,128.31H275.3a3.29,3.29,0,0,1-3.38,3.31,3.13,3.13,0,0,1-3-2,3.47,3.47,0,0,1,.27-3.13c.66-1.09,2.1-2.07,4.71-1.61v-8.73H270v5.11a7.48,7.48,0,0,0-5.37,7.31c0,5.66,5.08,7,7.25,7C273.58,135.55,279.25,135.14,279.17,128.31Z" style="fill:#263238"></path><rect x="269.99" y="110.72" width="3.89" height="3.63" transform="translate(543.87 225.06) rotate(180)" style="fill:#263238"></rect></g></svg>