<svg xmlns="http://www.w3.org/2000/svg" viewBox="0 0 750 500"><g id="freepik--background-complete--inject-70"><path d="M387,40.07s-.9,123.5-67.22,112.43c-64.66-10.8-41.05-124.84-41.05-124.84S330.57,65.55,387,40.07Z" style="fill:#ebebeb"></path><path d="M320.92,82a183.36,183.36,0,0,1-25-15.41,13.57,13.57,0,0,0,.33,13.94c2.61,4.15,7.38,7.43,12.26,7,5.39-.42,8.74-2.3,12.38-5.57" style="fill:#e0e0e0"></path><path d="M367.07,72.54a181.42,181.42,0,0,1-26.64,12.29,13.58,13.58,0,0,0,11.8,7.44c4.9.11,10.28-2,12.65-6.33,2.62-4.73,2.91-8.55,2.19-13.4" style="fill:#e0e0e0"></path><path d="M305.92,118.14c-.68-.21-1.09-1.21-1.06-2.92a15.89,15.89,0,0,1,2-6.77,23.41,23.41,0,0,1,7.15-8,22.87,22.87,0,0,1,5.91-3.05,21.16,21.16,0,0,1,7.31-1.23,22,22,0,0,1,13.2,4.67,22.37,22.37,0,0,1,6.77,8.48,15.6,15.6,0,0,1,1.55,6.93c-.11,1.71-.6,2.67-1.29,2.83-1.47.34-3.2-2.52-6.42-5.72a26.16,26.16,0,0,0-6-4.57,17,17,0,0,0-7.91-2.21,15.44,15.44,0,0,0-4.16.55,19.07,19.07,0,0,0-3.92,1.48,29,29,0,0,0-6.31,4.32C309.32,115.9,307.35,118.59,305.92,118.14Z" style="fill:#e0e0e0"></path><path d="M601.21,79.9a184.06,184.06,0,0,1-27.21-11,13.6,13.6,0,0,0,2.68,13.69c3.27,3.64,8.53,6.08,13.28,4.87,5.24-1.33,8.22-3.74,11.25-7.58" style="fill:#e0e0e0"></path><path d="M645.11,62.79a182.54,182.54,0,0,1-24.19,16.62,13.6,13.6,0,0,0,12.9,5.33c4.84-.71,9.77-3.75,11.39-8.38,1.79-5.1,1.42-8.91-.1-13.57" style="fill:#e0e0e0"></path><path d="M592.53,118.06c-.7-.1-1.27-1-1.54-2.7a15.94,15.94,0,0,1,.86-7,23.31,23.31,0,0,1,5.68-9.14,22.37,22.37,0,0,1,5.31-4,21.53,21.53,0,0,1,7-2.45,22,22,0,0,1,13.8,2.38,22.4,22.4,0,0,1,8.1,7.22,15.55,15.55,0,0,1,2.7,6.57c.19,1.7-.14,2.73-.79,3-1.39.58-3.58-1.94-7.29-4.55a26.18,26.18,0,0,0-6.69-3.5,17,17,0,0,0-8.16-.84,15.43,15.43,0,0,0-4,1.25,18.58,18.58,0,0,0-3.61,2.12,29.14,29.14,0,0,0-5.5,5.32C595.5,115.28,594,118.26,592.53,118.06Z" style="fill:#e0e0e0"></path><path d="M697.71,346.29s-22.66,118-84.16,95.68C553.6,420.23,596.33,315.3,596.33,315.3S639.22,360.69,697.71,346.29Z" style="fill:#ebebeb"></path><path d="M598,365.6a177.87,177.87,0,0,1,23.27,16.52,13.22,13.22,0,0,0,.55-13.57c-2.27-4.18-6.7-7.67-11.46-7.59-5.26.07-8.63,1.69-12.36,4.64" style="fill:#e0e0e0"></path><path d="M646.69,389.92a178.06,178.06,0,0,1,27.66-7.06,13.22,13.22,0,0,0-10-9.19c-4.66-1-10.19.14-13.22,3.82-3.34,4.06-4.29,7.67-4.46,12.43" style="fill:#e0e0e0"></path><path d="M652.5,400.43c.62.33.83,1.42.45,3.16a17,17,0,0,1-3.42,6.52,24.45,24.45,0,0,1-8.86,6.85,23.66,23.66,0,0,1-6.63,2,22.16,22.16,0,0,1-7.69-.13,22.93,22.93,0,0,1-12.61-7.25,23.53,23.53,0,0,1-5.37-9.94,16.69,16.69,0,0,1-.35-7.39c.41-1.73,1.07-2.63,1.77-2.66,1.51-.06,2.69,3.23,5.37,7.2a27.41,27.41,0,0,0,5.32,6,17.93,17.93,0,0,0,7.85,3.86,16.32,16.32,0,0,0,4.47.22,19.93,19.93,0,0,0,4.38-.81,29.69,29.69,0,0,0,7.37-3.34C648.68,402.17,651.17,399.72,652.5,400.43Z" style="fill:#e0e0e0"></path><path d="M54.11,144.3a178,178,0,0,1,23.28,16.52,13.25,13.25,0,0,0,.55-13.56c-2.28-4.18-6.71-7.67-11.47-7.6-5.26.08-8.62,1.69-12.36,4.64" style="fill:#ebebeb"></path><path d="M102.82,168.62a179.16,179.16,0,0,1,27.66-7.05,13.25,13.25,0,0,0-10-9.2c-4.66-1-10.18.15-13.21,3.83-3.35,4.06-4.29,7.66-4.46,12.42" style="fill:#ebebeb"></path><path d="M108.62,179.13c.63.34.83,1.43.46,3.16a17,17,0,0,1-3.42,6.52,24.4,24.4,0,0,1-8.87,6.86,23.93,23.93,0,0,1-6.62,2,22.47,22.47,0,0,1-7.7-.13,22.9,22.9,0,0,1-12.6-7.25,23.37,23.37,0,0,1-5.37-9.94,16.4,16.4,0,0,1-.35-7.39c.4-1.73,1.06-2.63,1.77-2.66,1.51-.06,2.68,3.22,5.37,7.19a26.64,26.64,0,0,0,5.31,6,17.83,17.83,0,0,0,7.85,3.86,16.4,16.4,0,0,0,4.48.23,20,20,0,0,0,4.38-.81,30.61,30.61,0,0,0,7.37-3.34C104.8,180.87,107.29,178.43,108.62,179.13Z" style="fill:#ebebeb"></path><path d="M168.29,365s32.36,92.42-20.11,101.9c-51.14,9.23-64-82.2-64-82.2S133,399.11,168.29,365Z" style="fill:#ebebeb"></path><path d="M124.27,408.12a145.31,145.31,0,0,1-19.82,12.18,10.79,10.79,0,0,0,10,4.74c3.87-.37,7.9-2.58,9.36-6.17a15.17,15.17,0,0,0,.47-10.75" style="fill:#e0e0e0"></path><path d="M166.46,404.07a144.9,144.9,0,0,1-23.13-2.47,10.77,10.77,0,0,0,5,9.86c3.28,2.07,7.82,2.78,11.18.83a15.14,15.14,0,0,0,6.94-8.22" style="fill:#e0e0e0"></path><path d="M129.15,448.81c-.7,0-1.43-.63-2-2a13.12,13.12,0,0,1-.66-6.16,19.92,19.92,0,0,1,3.23-8.87,19.38,19.38,0,0,1,3.89-4.4,18.64,18.64,0,0,1,5.66-3.33,19.26,19.26,0,0,1,12.39-.24,19,19,0,0,1,8.14,5,12.86,12.86,0,0,1,3.26,5.31c.38,1.47.19,2.44-.4,2.84-1.24.82-3.65-.8-7.18-2.19a22.85,22.85,0,0,0-6-1.59,14.16,14.16,0,0,0-6.56.67,15.15,15.15,0,0,0-5.55,3.79,25.74,25.74,0,0,0-3.78,5.09C131.6,446,130.64,448.71,129.15,448.81Z" style="fill:#e0e0e0"></path></g><g id="freepik--character-3--inject-70"><polygon points="574.09 161.22 549.38 150.55 545.42 173.57 565.36 186.18 576.88 175.15 574.09 161.22" style="fill:#ffbe9d"></polygon><path d="M433.55,233.48c-1.72-6.79.54-13.85,1.74-20.75,1.75-10.07,1.21-20.37.83-30.57s-.6-20.56,1.76-30.5S445.5,132.1,454,126.47s20.6-6.41,28.73-.22l-4,26.19a485.08,485.08,0,0,1-1.54,110.9,142.84,142.84,0,0,1-33.43,1.51c-2.29-.16-4.95-.62-6-2.65-1.29-2.48.66-5.3,1.47-8,1.06-3.51,0-7.3-1.43-10.66S434.45,237,433.55,233.48Z" style="fill:#263238"></path><path d="M467.71,133a28.08,28.08,0,0,1,11.56-7.13,9.52,9.52,0,0,1,5.5-.41c1.79.54,3.34,2.25,3.12,4.1l-10.68,15.49c-2.11,2-5.59,1.75-8.23.48-2-1-3.94-2.63-4.44-4.84C463.9,137.89,465.69,135.09,467.71,133Z" style="fill:#455a64"></path><path d="M530,280.17Z" style="fill:#ffbe9d"></path><path d="M549.45,176.46c-2.18-22.22-21.36-39.84-44.07-39-24.09.93-42.32,21.18-40.64,44.53l9.19,93.87a8.16,8.16,0,0,0,2.22,4.84c6.72,7.12,17.61,11.8,26.63,11.62,8.75-.16,17.07-3.76,23.71-9a8,8,0,0,0,2.94-7.44l-2.91-20.88a.13.13,0,0,1,.11-.16,28.38,28.38,0,0,0,5.81-1.09c5.3-2.21,18.48-9.83,19.92-31.17C552.84,215.58,551.36,195.94,549.45,176.46Z" style="fill:#ffbe9d"></path><path d="M523.68,211.71c0-.21,2.24-.8,5.93-1.6.94-.18,1.82-.44,1.92-1.09a4.7,4.7,0,0,0-.89-2.7l-3.46-6.84c-4.83-9.75-8.42-17.8-8-18s4.64,7.57,9.47,17.32c1.17,2.4,2.29,4.69,3.35,6.89.46,1,1.18,2.17.83,3.61a2.36,2.36,0,0,1-1.43,1.49,6.41,6.41,0,0,1-1.59.37C526.05,211.69,523.72,211.92,523.68,211.71Z" style="fill:#263238"></path><path d="M546,192.51c-.32.6-3.34-1.29-7-.68s-6,3.26-6.46,2.78c-.24-.2,0-1.24,1-2.47a8.24,8.24,0,0,1,5-2.89,8.35,8.35,0,0,1,5.72,1.21C545.63,191.32,546.2,192.23,546,192.51Z" style="fill:#263238"></path><path d="M509.38,194.83c-.44.56-3.38-1.72-7.4-1.61s-6.88,2.44-7.34,1.9c-.22-.24.21-1.24,1.45-2.32a9.35,9.35,0,0,1,11.77-.23C509.13,193.6,509.6,194.58,509.38,194.83Z" style="fill:#263238"></path><path d="M526.49,254.93s-14.21,2.42-33.12-6.59c0,0,7.39,18.1,34.06,13.27Z" style="fill:#eb996e"></path><path d="M523.57,220.42a7.85,7.85,0,0,0-7.36,1.44,7.09,7.09,0,0,0-2.65,4.82,4.33,4.33,0,0,0,2.49,4.37c1.85.7,4.08-.32,5.48-1.92a16.32,16.32,0,0,0,2.8-5.68,4.69,4.69,0,0,0,.34-1.71,1.41,1.41,0,0,0-.87-1.31" style="fill:#eb996e"></path><path d="M511.19,188.52c-.86.62-3.67-1.87-7.57-3.9s-7.47-3.06-7.45-4.12c0-.5,1.05-.93,2.77-.93a15,15,0,0,1,11.44,6.11C511.36,187.11,511.59,188.22,511.19,188.52Z" style="fill:#263238"></path><path d="M542.45,178.35c-.11,1.13-3.06,2.31-6,4.51s-5,4.56-6.14,4.31c-.51-.15-.63-1.1,0-2.55a12,12,0,0,1,4-4.79,11.83,11.83,0,0,1,5.78-2.31C541.61,177.41,542.47,177.82,542.45,178.35Z" style="fill:#263238"></path><path d="M507.92,132.33c-2.44-3-6.25-3.89-10.34-3.86-16.68.11-33.31,12.8-40.26,28s-4.21,35.7,4.86,49.7l6.28.1c12.6-2.78,28.4-41.62,43.14-64C513.43,139.41,510,134.9,507.92,132.33Z" style="fill:#263238"></path><path d="M540.79,138.08c-8-6.67-20.61-14.37-33.9-6.75-1.45,4.29,3.56,8.77,7.54,11.22,5.83,3.58,10.78,5.84,14.64,8.46,7.82,5.29,17.92,14.48,20.44,26.05.15.73.73.75,1.45.52.93-.3,2.37-5.42,2.48-11.93C553.7,151.74,548.84,144.75,540.79,138.08Z" style="fill:#263238"></path><path d="M471.33,198.16c-.41-.14-16.4-3.71-14.85,12.27s17.27,11.12,17.26,10.66S471.33,198.16,471.33,198.16Z" style="fill:#ffbe9d"></path><path d="M468.27,215.51c-.08,0-.26.22-.71.48a2.78,2.78,0,0,1-2.08.25c-1.75-.46-3.43-3-3.78-5.87a9.16,9.16,0,0,1,.39-4.06A3.2,3.2,0,0,1,464,204a1.42,1.42,0,0,1,1.71.6c.26.43.19.76.28.78s.31-.31.12-.95a1.81,1.81,0,0,0-.72-.94,2.11,2.11,0,0,0-1.58-.26,3.91,3.91,0,0,0-2.67,2.76,9.44,9.44,0,0,0-.53,4.55c.41,3.21,2.35,6.06,4.73,6.5a3,3,0,0,0,2.5-.67C468.28,215.9,468.33,215.53,468.27,215.51Z" style="fill:#eb996e"></path><path d="M477.19,191.77c-.05-.23,3.84-.41,9.33-3a40.92,40.92,0,0,0,17-15.89,64.25,64.25,0,0,0,7.71-22.28c.5-3,.79-5.46,1-7.16a15.37,15.37,0,0,1,.37-2.63,11.89,11.89,0,0,1,0,2.66c-.07,1.71-.25,4.19-.67,7.23a60.6,60.6,0,0,1-7.54,22.69c-4.87,8.15-11.94,13.61-17.6,16a29.3,29.3,0,0,1-7,2.13,17.84,17.84,0,0,1-2,.24A2,2,0,0,1,477.19,191.77Z" style="fill:#263238"></path><path d="M558.16,200.15a2.69,2.69,0,0,1-1.92,0,3.53,3.53,0,0,1-1.62-1.54,3.59,3.59,0,0,1-.21-2.89,10.08,10.08,0,0,1,1.85-3.23,22.58,22.58,0,0,0,2.58-3.65,6.37,6.37,0,0,0,.7-2.41,5.45,5.45,0,0,0-.5-2.59,12.41,12.41,0,0,0-3.42-4.11,17.13,17.13,0,0,1-3.58-3.65,7.73,7.73,0,0,1-1.06-4.46c.13-3,1.13-5.74,1.18-8.15a8.8,8.8,0,0,0-1.24-5.46,4.38,4.38,0,0,0-1.07-1.11c-.29-.2-.45-.29-.46-.27a9.69,9.69,0,0,1,1.29,1.54,8.9,8.9,0,0,1,1,5.27c-.11,2.31-1.16,5-1.34,8.15a8.26,8.26,0,0,0,1.13,4.88,17.63,17.63,0,0,0,3.7,3.82,11.88,11.88,0,0,1,3.25,3.85,4.9,4.9,0,0,1-.15,4.4,22.73,22.73,0,0,1-2.46,3.57,10.55,10.55,0,0,0-1.86,3.46,4.07,4.07,0,0,0,.35,3.25,3.78,3.78,0,0,0,1.88,1.6,2.28,2.28,0,0,0,1.55,0A1.06,1.06,0,0,0,558.16,200.15Z" style="fill:#263238"></path><path d="M475.17,249.69a3.07,3.07,0,0,0,.42-.55,10.3,10.3,0,0,0,1-1.73,15.58,15.58,0,0,0,1.38-7.1,16,16,0,0,0-1-4.95,31,31,0,0,0-2.77-5c-1-1.67-1.85-3.75-.94-5.65s2.8-3.25,4-5.42a3.79,3.79,0,0,0,0-3.64A15.59,15.59,0,0,0,475,213a5.87,5.87,0,0,1-1.13-5.61,16,16,0,0,1,2.44-5,29,29,0,0,0,2.53-4.33,7.48,7.48,0,0,0-.21-7.11,4,4,0,0,0-1.45-1.37,2,2,0,0,0-.64-.25,5.41,5.41,0,0,1,1.85,1.77,7.27,7.27,0,0,1,0,6.74,31.45,31.45,0,0,1-2.56,4.21,16.57,16.57,0,0,0-2.6,5.18,8.31,8.31,0,0,0-.2,3.2,5.76,5.76,0,0,0,1.45,3,16.37,16.37,0,0,1,2.1,2.48,3,3,0,0,1,0,2.95c-1,1.94-3,3.32-4,5.47a5.07,5.07,0,0,0-.26,3.38,11.09,11.09,0,0,0,1.28,2.91,31.92,31.92,0,0,1,2.79,4.91,15.94,15.94,0,0,1,1,4.76,16.14,16.14,0,0,1-1.11,7C475.64,248.86,475.11,249.65,475.17,249.69Z" style="fill:#263238"></path><path d="M424.05,248c-.08.21.25.69,1.28,1a5.47,5.47,0,0,0,4.4-1,7.75,7.75,0,0,0,3.07-4.38,10.14,10.14,0,0,0,.32-2.08,17.58,17.58,0,0,0-2.39-8.7c-1.41-2.72-3.06-5.37-3.4-7.89s.5-5.38,2.15-8.59,4-6.73,5.68-11.16a52.55,52.55,0,0,0,3.08-13.65c.93-9.38.27-18,.58-25.47a58.18,58.18,0,0,1,3.61-19.11,31.41,31.41,0,0,1,7-10.87c1.13-1.06,2-1.93,2.69-2.48s.93-1,.82-1.27-.61-.25-1.51-.06a13.81,13.81,0,0,0-3.74,1.51,27.14,27.14,0,0,0-10,10.94A54.39,54.39,0,0,0,432,165.58c-.69,8-.27,16.6-1.13,25.12a49.65,49.65,0,0,1-2.52,11.87c-1.2,3.57-3.31,6.93-5,10.75a29,29,0,0,0-2,6.1,16,16,0,0,0,0,6.61,18.59,18.59,0,0,0,2.31,5.43c.91,1.5,1.82,2.77,2.6,3.94a15,15,0,0,1,2.77,6.14,7,7,0,0,1,0,1.28,4.47,4.47,0,0,1-.2,1.08,5.34,5.34,0,0,1-1,1.84C426.13,247.85,424.21,247.44,424.05,248Z" style="fill:#263238"></path><path d="M521.53,231.38c0,.07-.37.15-1,.29a16.52,16.52,0,0,1-2.94.36,4.26,4.26,0,0,1-1-.14,5,5,0,0,1-1.07-.4,3.39,3.39,0,0,1-1-.8,6.85,6.85,0,0,1-.68-1.08,5.94,5.94,0,0,1-.94-2.58,3.38,3.38,0,0,1,.06-.78l.15-.69c.12-.45.25-.92.42-1.38a6.74,6.74,0,0,1,1.51-2.5,6.29,6.29,0,0,1,2.32-1.46,9.18,9.18,0,0,1,4.45-.39c2.49.4,3.89,1,3.87,1.12s-1.55-.19-3.94-.39a9.21,9.21,0,0,0-4,.55,5.7,5.7,0,0,0-1.94,1.28,6,6,0,0,0-1.26,2.15,11.61,11.61,0,0,0-.39,1.27l-.15.64a2.47,2.47,0,0,0,0,.54,5.22,5.22,0,0,0,.77,2.17,3.2,3.2,0,0,0,1.25,1.58,4.12,4.12,0,0,0,1.72.55c1.16.08,2.17,0,2.86,0S521.53,231.31,521.53,231.38Z" style="fill:#263238"></path><path d="M543.84,263.31l-22.07,7.78s2.54,21.47,2.65,20.14S543.84,263.31,543.84,263.31Z" style="fill:#ffbe9d"></path><path d="M521.53,231.38c0,.07-.37.15-1,.29a16.52,16.52,0,0,1-2.94.36,4.26,4.26,0,0,1-1-.14,5,5,0,0,1-1.07-.4,3.39,3.39,0,0,1-1-.8,6.85,6.85,0,0,1-.68-1.08,5.94,5.94,0,0,1-.94-2.58,3.38,3.38,0,0,1,.06-.78l.15-.69c.12-.45.25-.92.42-1.38a6.74,6.74,0,0,1,1.51-2.5,6.29,6.29,0,0,1,2.32-1.46,9.18,9.18,0,0,1,4.45-.39c2.49.4,3.89,1,3.87,1.12s-1.55-.19-3.94-.39a9.21,9.21,0,0,0-4,.55,5.7,5.7,0,0,0-1.94,1.28,6,6,0,0,0-1.26,2.15,11.61,11.61,0,0,0-.39,1.27l-.15.64a2.47,2.47,0,0,0,0,.54,5.22,5.22,0,0,0,.77,2.17,3.2,3.2,0,0,0,1.25,1.58,4.12,4.12,0,0,0,1.72.55c1.16.08,2.17,0,2.86,0S521.53,231.31,521.53,231.38Z" style="fill:#263238"></path><polyline points="565.36 186.18 600.15 208.19 616.35 179.47 574.09 161.22" style="fill:#ffbe9d"></polyline><path d="M434.16,234.1s11.27-71.22,13.92-78.52,20.11-26,30.7-23.69,18.11,12.49,18.73,28.21-20.15,128.69-20.15,128.69-30.4,23.36-42.1,9.08S427.06,269.13,434.16,234.1Z" style="fill:#455a64"></path><path d="M455.1,276.28s52.4,15.06,56.22,14.27c16.06-3.33,32.52-27.24,32.52-27.24l10.3-2.9s17.77,56.4,12.1,85.92-12.3,47.05-12.3,47.05L563.29,476H410.65l31.13-89.43-8.19-90.94Z" style="fill:#455a64"></path><path d="M596.31,210l7.71,7L552.38,260.9l11.42,65.89s44.34-42,61.9-59.23c27.84-27.36,37.9-46.86,35.22-54.19-4.48-12.27-44.22-36.5-44.22-36.5Z" style="fill:#455a64"></path><path d="M475.22,322.72c-.11,0-1-1.74-1.81-4.81a47.64,47.64,0,0,1-1.15-5.48,53.09,53.09,0,0,1-.53-6.84,53.79,53.79,0,0,1,.44-6.85,46.43,46.43,0,0,1,1.08-5.49c.82-3.08,1.63-4.89,1.74-4.84.34.08-2.33,7.55-2.21,17.17S475.56,322.64,475.22,322.72Z" style="fill:#263238"></path><path d="M527.26,341.17a8.61,8.61,0,0,1,.26,2.22,36.79,36.79,0,0,1-.27,6.08,41.26,41.26,0,0,1-22.33,31.73,36.36,36.36,0,0,1-5.64,2.3,8.19,8.19,0,0,1-2.17.51c-.07-.19,3-1,7.46-3.46a43,43,0,0,0,21.95-31.18C527.32,344.35,527.06,341.17,527.26,341.17Z" style="fill:#263238"></path><path d="M582.35,293.45c.12.11-1.39,1.84-3.62,4.77a93.25,93.25,0,0,0-7.81,12.06,95.14,95.14,0,0,0-5.82,13.14c-1.23,3.48-1.85,5.68-2,5.64s.25-2.3,1.31-5.87a72.9,72.9,0,0,1,13.75-25.43C580.55,294.92,582.26,293.36,582.35,293.45Z" style="fill:#263238"></path><path d="M566.23,342.51a5.39,5.39,0,0,1-1.29.26c-.85.12-2.1.35-3.73.5a117.43,117.43,0,0,1-13.82.71,178.38,178.38,0,0,1-20.48-1.4c-7.68-.87-16.06-2.3-24.85-3.51a172.66,172.66,0,0,0-45.34.34c-5.77.81-10.39,1.74-13.58,2.42l-3.66.81a5.66,5.66,0,0,1-1.3.22,6.47,6.47,0,0,1,1.24-.42c.83-.24,2.05-.61,3.63-1,3.17-.81,7.79-1.85,13.56-2.76a165.77,165.77,0,0,1,20.45-1.87c3.87-.1,7.93-.06,12.14.11s8.55.57,13,1.11c8.84,1.22,17.18,2.67,24.83,3.6a194.32,194.32,0,0,0,20.38,1.61c5.82.11,10.53-.11,13.78-.37,1.62-.09,2.88-.26,3.74-.31A7.61,7.61,0,0,1,566.23,342.51Z" style="fill:#fff"></path><path d="M606.06,287.35c-.22,0-.15-3.33-1.11-8.56-.13-.65-.27-1.33-.41-2s-.38-1.44-.57-2.19c-.36-1.52-.94-3.09-1.51-4.75a55.82,55.82,0,0,0-12-19.22c-1.25-1.23-2.4-2.44-3.61-3.43-.59-.5-1.14-1-1.71-1.47l-1.67-1.26c-4.28-3.16-7.31-4.55-7.21-4.74a9.8,9.8,0,0,1,2.16.9l1.12.55c.41.21.83.48,1.29.75a31.41,31.41,0,0,1,3.07,1.94l1.73,1.23c.6.43,1.17.95,1.78,1.45a47.82,47.82,0,0,1,3.74,3.42,53.22,53.22,0,0,1,12.23,19.55c.55,1.7,1.12,3.31,1.45,4.86.17.78.39,1.51.52,2.24s.23,1.42.35,2.09a36.09,36.09,0,0,1,.4,3.61c0,.53.1,1,.11,1.49V285A10.5,10.5,0,0,1,606.06,287.35Z" style="fill:#fff"></path><path d="M492.77,199.09a7.61,7.61,0,0,1-1.86,1,21.81,21.81,0,0,1-2.29,1c-.9.33-1.92.75-3.1,1.07s-2.44.74-3.85,1-2.9.58-4.49.84a55.66,55.66,0,0,1-20.84-1c-1.56-.41-3-.78-4.4-1.26s-2.61-.92-3.74-1.39-2.11-.94-3-1.35a23.07,23.07,0,0,1-2.19-1.17,7.73,7.73,0,0,1-1.76-1.16c.09-.17,2.7,1.31,7.2,3,1.13.41,2.37.87,3.73,1.24s2.81.78,4.35,1.15a65.45,65.45,0,0,0,10.21,1.38,66.78,66.78,0,0,0,10.29-.4c1.57-.23,3.07-.42,4.44-.73s2.67-.59,3.83-.89C490,200.14,492.69,198.91,492.77,199.09Z" style="fill:#fff"></path><path d="M447.07,153.91a6.4,6.4,0,0,1,.83-1.75,29.26,29.26,0,0,1,3.08-4.25c2.89-3.41,7.74-7.27,13.46-10.83,1.42-.9,2.82-1.75,4.18-2.58a28.31,28.31,0,0,1,4.12-2.13,11.39,11.39,0,0,1,4.19-.87,11.16,11.16,0,0,1,3.66.64,21.27,21.27,0,0,1,4.7,2.4,6.37,6.37,0,0,1,1.53,1.17,7.85,7.85,0,0,1-1.74-.82,26.81,26.81,0,0,0-4.71-2,11,11,0,0,0-3.43-.47,10.63,10.63,0,0,0-3.84.89,29.32,29.32,0,0,0-4,2.11c-1.34.84-2.73,1.71-4.16,2.59-5.68,3.54-10.5,7.23-13.46,10.44S447.23,154,447.07,153.91Z" style="fill:#263238"></path></g><g id="freepik--character-1--inject-70"><path d="M178,176.86l-13.83,24-3.09,17.07-26.39,42.27-3.57,5.72L158.48,285s17.19-39,19.1-42.71,9.68-6.1,9.68-6.1l12.35-21.75Z" style="fill:#ffbe9d"></path><path d="M180.55,231.76c-.15,0,0-1.9.32-4.92A55,55,0,0,0,181,215.1a24.43,24.43,0,0,0-3.9-10.86c-1.7-2.46-3.26-3.57-3.14-3.72s.46.17,1.16.69a14.61,14.61,0,0,1,2.57,2.6A22.56,22.56,0,0,1,182.05,215a44.19,44.19,0,0,1-.45,12C181.12,230,180.68,231.78,180.55,231.76Z" style="fill:#eb996e"></path><path d="M210.3,271l115.38,20s-97.4,10.23-97.44,8.89S210.3,271,210.3,271Z" style="fill:#ffbe9d"></path><path d="M308.87,222.09c-.27-7-4.45-13.13-7.56-19.41-4.53-9.15-6.94-19.18-9.46-29.08s-5.26-19.88-10.35-28.74-12.85-16.59-22.62-19.58-21.58-.3-27.62,7.94l11.23,24a485.62,485.62,0,0,0,32.94,105.9,142.76,142.76,0,0,0,32.49-8c2.14-.81,4.56-2,5-4.25.54-2.74-2.14-4.89-3.66-7.22-2-3.07-2.11-7-1.65-10.63S309,225.75,308.87,222.09Z" style="fill:#263238"></path><path d="M247.63,135.48a28.08,28.08,0,0,0-13.12-3.56,9.4,9.4,0,0,0-5.38,1.17c-1.57,1-2.56,3.1-1.83,4.81l14.63,11.82c2.6,1.35,5.86.09,8-1.87,1.68-1.52,3-3.64,2.88-5.9C252.66,139.06,250.15,136.89,247.63,135.48Z" style="fill:#455a64"></path><path d="M229.61,294.26Z" style="fill:#ffbe9d"></path><path d="M181.26,200.32c-4.21-21.93,9.18-44.26,31.2-49.86,23.37-5.94,46.6,8.3,51.6,31.16l17.83,92.63c.35,1.79,3.83,9.55,3,11.18-4.43,8.73-17.31,10.39-26,12.79-8.43,2.32-17.44,1.23-25.27-1.87a8.06,8.06,0,0,1-4.94-6.3l-3.12-20.85a.14.14,0,0,0-.16-.12,28.5,28.5,0,0,1-5.88.61c-5.71-.62-20.51-4.19-28-24.24C189.1,238.8,185,219.54,181.26,200.32Z" style="fill:#ffbe9d"></path><path d="M216.27,226.81c0-.21-2.36-.13-6.13.15-.95.09-1.87.09-2.15-.5a4.73,4.73,0,0,1,.08-2.85c.44-2.39.9-4.91,1.38-7.54,1.87-10.72,3-19.45,2.59-19.52s-2.31,8.57-4.17,19.29c-.44,2.64-.86,5.15-1.26,7.56-.14,1.11-.52,2.42.23,3.7a2.39,2.39,0,0,0,1.8,1,6.68,6.68,0,0,0,1.62-.11C214,227.47,216.3,227,216.27,226.81Z" style="fill:#263238"></path><path d="M202.39,211.79c-.45-.52-3,2-6.71,2.19s-6.52-1.89-6.91-1.31c-.19.26.29,1.21,1.51,2.19a8.16,8.16,0,0,0,10.87-.7C202.26,213,202.61,212,202.39,211.79Z" style="fill:#263238"></path><path d="M237.42,202.75c-.65-.29-2.2,3.09-5.81,4.86s-7.23,1-7.38,1.72c-.09.31.75,1,2.36,1.38a9.36,9.36,0,0,0,10.53-5.24C237.77,204,237.73,202.87,237.42,202.75Z" style="fill:#263238"></path><path d="M225.84,269.05s14.32-1.72,29.89-15.72c0,0-1.94,19.46-28.9,22.39Z" style="fill:#eb996e"></path><path d="M236.45,193.43c-.31-1-4-.74-8.39-1.48s-7.79-2.1-8.42-1.24c-.28.41.27,1.38,1.64,2.41a14.15,14.15,0,0,0,6.16,2.49,14.44,14.44,0,0,0,6.65-.41C235.73,194.65,236.58,193.91,236.45,193.43Z" style="fill:#263238"></path><path d="M197.6,195.53c-1.08-.34-3.32,1.91-6.5,3.74s-6.18,2.84-6.38,3.95c-.07.52.76,1,2.33,1a12,12,0,0,0,6-1.8,11.73,11.73,0,0,0,4.4-4.39C198.14,196.68,198.1,195.72,197.6,195.53Z" style="fill:#263238"></path><path d="M208.87,146.22c1.5-3.53,4.89-5.5,8.82-6.64,16-4.62,35.57,2.83,46.54,15.39s14.16,33,9.44,49l-6,1.88c-12.88.91-39-31.86-59.54-49.16C205.59,154.57,207.57,149.29,208.87,146.22Z" style="fill:#263238"></path><path d="M179,161.06c5.82-8.68,15.68-19.63,30.59-16.09,2.62,3.7-.92,9.42-4,12.89-4.57,5.1-8.68,8.67-11.65,12.27-6,7.29-13.07,19-12.2,30.78.06.74-.49.92-1.24.91-1,0-3.81-4.52-5.77-10.74C170.48,177.82,173.16,169.73,179,161.06Z" style="fill:#263238"></path><path d="M262.63,199c.35-.26,14.67-8.22,17.72,7.54s-13.4,15.57-13.52,15.13S262.63,199,262.63,199Z" style="fill:#ffbe9d"></path><path d="M270.49,214.73c.06-.06.31.14.82.27a2.78,2.78,0,0,0,2.06-.36c1.55-.93,2.44-3.85,2-6.7a9.21,9.21,0,0,0-1.52-3.78,3.21,3.21,0,0,0-2.48-1.71,1.4,1.4,0,0,0-1.47,1.06c-.13.48,0,.78-.05.82s-.39-.2-.38-.87a1.76,1.76,0,0,1,.42-1.11,2.13,2.13,0,0,1,1.45-.69,3.9,3.9,0,0,1,3.34,1.89,9.54,9.54,0,0,1,1.8,4.2c.51,3.2-.54,6.49-2.69,7.59a3,3,0,0,1-2.59.06C270.59,215.11,270.44,214.77,270.49,214.73Z" style="fill:#eb996e"></path><path d="M176.19,164.73a18.1,18.1,0,0,0,4.72-.09,65.85,65.85,0,0,0,11.19-2.07,65,65,0,0,0,10.66-4c2.63-1.27,4.15-2.23,4.09-2.34s-1.7.61-4.37,1.7a92.6,92.6,0,0,1-21.66,6C178,164.38,176.18,164.57,176.19,164.73Z" style="fill:#455a64"></path><path d="M172.56,176.9c0,.12,1.35.37,3.57.3a27,27,0,0,0,16-6.1,9.26,9.26,0,0,0,2.47-2.6c-.2-.25-4.09,3.7-10.32,6S172.54,176.58,172.56,176.9Z" style="fill:#455a64"></path><path d="M267.06,160.08c-.06-.19-3.37.93-8.93,1.61a69.33,69.33,0,0,1-9.81.46,87,87,0,0,1-12-1.25A94.13,94.13,0,0,1,224.69,158a86.4,86.4,0,0,1-9.16-3.58c-5.1-2.33-8-4.22-8.13-4.07a10.64,10.64,0,0,0,2,1.43,27.61,27.61,0,0,0,2.46,1.49c1,.56,2.09,1.19,3.37,1.79a75.51,75.51,0,0,0,9.17,3.81,86.39,86.39,0,0,0,11.79,3,81.46,81.46,0,0,0,12.11,1.19,62.62,62.62,0,0,0,9.92-.68,34.9,34.9,0,0,0,3.75-.72,23.24,23.24,0,0,0,2.79-.74A11.63,11.63,0,0,0,267.06,160.08Z" style="fill:#455a64"></path><path d="M209.29,155.71a12.7,12.7,0,0,0,1.6,2,28.34,28.34,0,0,0,2,2.21c.84.83,1.75,1.82,2.89,2.78a65.07,65.07,0,0,0,8.24,6.35A70.88,70.88,0,0,0,235.37,175a69.6,69.6,0,0,0,12.24,3.61A63,63,0,0,0,258,179.69c1.49.08,2.83,0,4-.06a25.51,25.51,0,0,0,3-.24,12.13,12.13,0,0,0,2.54-.4c0-.21-3.66.26-9.52,0a67.92,67.92,0,0,1-10.21-1.27,73.41,73.41,0,0,1-12-3.63,75.33,75.33,0,0,1-11.18-5.78,72.28,72.28,0,0,1-8.28-6.11C211.82,158.37,209.44,155.58,209.29,155.71Z" style="fill:#455a64"></path><path d="M255.2,194.5c0-.24-3.79.7-9.8-.24a41,41,0,0,1-20.85-10.4,64.34,64.34,0,0,1-13.71-19.18c-1.33-2.74-2.3-5-3-6.59a15.55,15.55,0,0,0-1.11-2.42,12.89,12.89,0,0,0,.74,2.56c.56,1.62,1.43,4,2.69,6.74a60.72,60.72,0,0,0,13.68,19.62c7,6.43,15.3,9.66,21.42,10.36a28.65,28.65,0,0,0,7.28.07,16.52,16.52,0,0,0,2-.33C255,194.6,255.21,194.53,255.2,194.5Z" style="fill:#263238"></path><path d="M179.94,225.5a2.59,2.59,0,0,0,1.82-.57,3.54,3.54,0,0,0,1.13-1.93,3.69,3.69,0,0,0-.63-2.84,10.17,10.17,0,0,0-2.68-2.57,23.42,23.42,0,0,1-3.52-2.76,6.41,6.41,0,0,1-1.35-2.12,5.4,5.4,0,0,1-.25-2.62,12.19,12.19,0,0,1,2.11-4.91,17.13,17.13,0,0,0,2.39-4.51,7.62,7.62,0,0,0-.25-4.59c-1-2.88-2.7-5.18-3.44-7.48a8.81,8.81,0,0,1-.36-5.59,4.85,4.85,0,0,1,.71-1.37c.23-.27.35-.4.37-.38a9.39,9.39,0,0,0-.8,1.84,8.9,8.9,0,0,0,.57,5.32c.76,2.19,2.52,4.43,3.6,7.44a8.29,8.29,0,0,1,.3,5,17.71,17.71,0,0,1-2.46,4.72,11.78,11.78,0,0,0-2,4.61,4.88,4.88,0,0,0,1.4,4.17,21.91,21.91,0,0,0,3.37,2.73,10.78,10.78,0,0,1,2.77,2.79,4.06,4.06,0,0,1,.58,3.21,3.77,3.77,0,0,1-1.35,2.07,2.21,2.21,0,0,1-1.48.47A.92.92,0,0,1,179.94,225.5Z" style="fill:#263238"></path><path d="M275.52,197.19a4.56,4.56,0,0,1,0-.85c0-.55.1-1.36.12-2.41a74.05,74.05,0,0,0-.17-8.88,61.08,61.08,0,0,0-2.41-12.89,51.31,51.31,0,0,0-6.86-14.45,40.17,40.17,0,0,0-5.42-6.25,42.77,42.77,0,0,0-6.14-4.69,53.51,53.51,0,0,0-11.89-5.51,75.6,75.6,0,0,0-8.58-2.26c-1-.23-1.83-.35-2.38-.47a4.49,4.49,0,0,1-.82-.2,3.22,3.22,0,0,1,.85,0c.55.08,1.36.15,2.4.34a62.16,62.16,0,0,1,8.69,2A52.42,52.42,0,0,1,255,146.19a43.32,43.32,0,0,1,6.27,4.73,39.84,39.84,0,0,1,5.54,6.37A51.14,51.14,0,0,1,273.72,172,59.4,59.4,0,0,1,276,185a61.81,61.81,0,0,1-.06,8.92c-.07,1.06-.2,1.87-.26,2.42A3.11,3.11,0,0,1,275.52,197.19Z" style="fill:#455a64"></path><path d="M273.57,249.46s-.21-.12-.56-.4a11.07,11.07,0,0,1-1.4-1.39,15.64,15.64,0,0,1-3.34-6.42,16.14,16.14,0,0,1-.46-5,31.89,31.89,0,0,1,1.23-5.62c.48-1.88.71-4.12-.7-5.69s-3.61-2.32-5.36-4.07a3.79,3.79,0,0,1-1.05-3.48,16.3,16.3,0,0,1,1.38-3.12,5.88,5.88,0,0,0-.51-5.7,16.15,16.15,0,0,0-3.76-4.11,29.69,29.69,0,0,1-3.66-3.43,7.48,7.48,0,0,1-1.81-6.87,4.11,4.11,0,0,1,1-1.73,2,2,0,0,1,.55-.42,5.12,5.12,0,0,0-1.27,2.22,7.27,7.27,0,0,0,1.93,6.46,29.47,29.47,0,0,0,3.66,3.3,16.48,16.48,0,0,1,3.95,4.24,8,8,0,0,1,1.11,3,5.84,5.84,0,0,1-.53,3.33,16.39,16.39,0,0,0-1.32,3,3,3,0,0,0,.87,2.82c1.53,1.57,3.85,2.32,5.38,4.11a5.1,5.1,0,0,1,1.21,3.16,11.18,11.18,0,0,1-.4,3.16,30.43,30.43,0,0,0-1.28,5.5,16,16,0,0,0,3.4,11.22C272.88,248.81,273.62,249.41,273.57,249.46Z" style="fill:#263238"></path><path d="M322.1,233.3c.14.18-.05.74-1,1.31a5.48,5.48,0,0,1-4.51.26,8,8,0,0,1-4.19-3.33,9.83,9.83,0,0,1-.89-1.91,17.51,17.51,0,0,1-.18-9c.58-3,1.41-6,1-8.52s-2-5-4.5-7.64-5.76-5.31-8.61-9.08a52.77,52.77,0,0,1-6.83-12.22c-3.55-8.73-5.36-17.15-7.78-24.26a58.25,58.25,0,0,0-8.89-17.3,31.46,31.46,0,0,0-9.75-8.45c-1.38-.69-2.49-1.27-3.28-1.62s-1.19-.73-1.16-1,.52-.41,1.44-.48a13.5,13.5,0,0,1,4,.38,27.09,27.09,0,0,1,12.66,7.67,54.59,54.59,0,0,1,11.39,18.45c2.93,7.5,5,15.85,8.21,23.77A50.48,50.48,0,0,0,305.08,191c2.17,3.07,5.15,5.69,7.89,8.88a27.88,27.88,0,0,1,3.69,5.27,16.07,16.07,0,0,1,1.85,6.34,18.64,18.64,0,0,1-.67,5.86c-.45,1.7-1,3.17-1.38,4.51a15,15,0,0,0-.91,6.67,6.72,6.72,0,0,0,.32,1.25,4.21,4.21,0,0,0,.49,1,5.67,5.67,0,0,0,1.48,1.49C320.07,233.79,321.79,232.85,322.1,233.3Z" style="fill:#263238"></path><path d="M233.11,234.91c-.08.14-.86-.2-2.17-.39a9,9,0,0,0-8.88,3.71c-.77,1.06-1.09,1.86-1.24,1.81s-.06-.93.62-2.21a8.37,8.37,0,0,1,9.66-4C232.48,234.21,233.17,234.8,233.11,234.91Z" style="fill:#263238"></path><path d="M239,207.77c.12.06,0,.62-.48,1.4a7.43,7.43,0,0,1-6,3.34c-.91,0-1.45-.21-1.44-.34,0-.3,2.17-.26,4.36-1.51S238.75,207.62,239,207.77Z" style="fill:#eb996e"></path><path d="M199.09,218.17c.09.09-.17.58-.84,1.14a6.61,6.61,0,0,1-6.52.94c-.81-.35-1.19-.75-1.13-.86.14-.27,2,.6,4.37.23S198.88,218,199.09,218.17Z" style="fill:#eb996e"></path><path d="M189.48,239.45c-.14,0-.55-2-1.2-5.31s-1.54-7.83-2.64-12.82-2.23-9.48-3-12.73-1.3-5.27-1.16-5.32.87,1.91,1.87,5.12,2.23,7.69,3.35,12.71,1.9,9.59,2.36,12.92S189.62,239.43,189.48,239.45Z" style="fill:#eb996e"></path><path d="M248.35,208.71a4,4,0,0,0-1.64-1.08,9,9,0,0,0-5.56-.32l.62.37c.74.73,1.48,1.46,2.23,2.18a5.9,5.9,0,0,0,2.29,1.62,2,2,0,0,0,2.42-.92A1.85,1.85,0,0,0,248.35,208.71Z" style="fill:#455a64"></path><path d="M247.35,216.39a3.24,3.24,0,0,0-.48-1.59,7.61,7.61,0,0,0-3.43-3.23l.2.57c.09.88.17,1.76.26,2.64a5,5,0,0,0,.61,2.29,1.71,1.71,0,0,0,2.07.73A1.61,1.61,0,0,0,247.35,216.39Z" style="fill:#455a64"></path><path d="M229,290.9c-.28,0-1.13-4.28-1.88-9.65s-1.14-9.76-.85-9.8,1.12,4.28,1.88,9.65S229.33,290.86,229,290.9Z" style="fill:#eb996e"></path><path d="M319.92,476l-4.4-72.51,20.44-79L325.68,291s-79.9,7.29-83.89,7.7C229,300,210.3,271,210.3,271H199.91s-10.21-1.38-20.18,7.48-27.31,23.74-27.31,23.74l13-25.43L126.88,259s-23.13,41-29.48,55.43c-4.2,9.52-10.76,26.3,4.23,42.37,9.17,9.83,36.24,13.26,45,10.39,6-2,25-12.43,36.58-18.9.09,1.53.23,3,.43,4.44,4.14,29.78,9.85,47.63,9.85,47.63L183.07,476Z" style="fill:#455a64"></path><path d="M134.53,339.76c-.26-.13,6.4-14.3,14.87-31.65s15.54-31.32,15.8-31.19-6.39,14.29-14.86,31.65S134.79,339.88,134.53,339.76Z" style="fill:#263238"></path><path d="M195.25,402.2a21.87,21.87,0,0,1-1.25-3.3c-.75-2.15-1.74-5.29-2.9-9.18-2.31-7.8-5.14-18.69-7.49-30.87s-3.77-23.36-4.52-31.45c-.38-4-.62-7.33-.72-9.6a23.65,23.65,0,0,1-.07-3.53,22.27,22.27,0,0,1,.47,3.5c.23,2.26.58,5.52,1,9.55.93,8.06,2.47,19.17,4.81,31.33s5.05,23,7.18,30.87c1.06,3.91,1.95,7.07,2.58,9.26A22.41,22.41,0,0,1,195.25,402.2Z" style="fill:#263238"></path><path d="M325.68,291s19.32,13.68,24,31.69S378.9,476,378.9,476H336L305.28,365Z" style="fill:#455a64"></path><path d="M322.6,370a9.24,9.24,0,0,1-1.42.38c-.94.2-2.31.55-4.11.85a134.46,134.46,0,0,1-15.33,1.91,169.1,169.1,0,0,1-22.91,0A224.29,224.29,0,0,1,251,369.53c-19.56-3.82-36.77-9.29-49.14-13.34-6.19-2.05-11.17-3.77-14.6-5l-3.95-1.42a8.67,8.67,0,0,1-1.35-.56,7.09,7.09,0,0,1,1.42.36l4,1.24,14.7,4.66c12.41,3.87,29.62,9.22,49.1,13a233.48,233.48,0,0,0,27.69,3.7,179.86,179.86,0,0,0,22.8.22c6.48-.38,11.71-1,15.3-1.58,1.81-.24,3.19-.53,4.14-.66A6.89,6.89,0,0,1,322.6,370Z" style="fill:#fff"></path><path d="M359.57,376.18c0,.19-2.84.26-7.36.9-1.13.16-2.36.35-3.68.62s-2.71.57-4.18.91a84.2,84.2,0,0,0-9.33,3,85.93,85.93,0,0,0-8.88,4.16c-1.3.75-2.56,1.44-3.69,2.17s-2.18,1.4-3.12,2c-3.75,2.6-5.89,4.47-6,4.34a7.52,7.52,0,0,1,1.38-1.45c.47-.45,1.05-1,1.76-1.56s1.5-1.26,2.44-1.93,1.94-1.44,3.09-2.18,2.37-1.49,3.69-2.28a76.46,76.46,0,0,1,9-4.29,74.6,74.6,0,0,1,9.49-2.93c1.49-.32,2.91-.64,4.25-.83s2.59-.38,3.74-.5,2.19-.18,3.11-.24,1.7-.07,2.34-.05A7.54,7.54,0,0,1,359.57,376.18Z" style="fill:#fff"></path><path d="M169,354.05c-.18,0-.51-2.56-1.51-6.62a68.63,68.63,0,0,0-2.12-7,73.76,73.76,0,0,0-3.58-8.21,77,77,0,0,0-4.64-7.67,70.38,70.38,0,0,0-4.5-5.77c-2.73-3.16-4.65-4.92-4.53-5a6.28,6.28,0,0,1,1.47,1.1c.46.37,1,.85,1.6,1.43s1.3,1.24,2,2A57.39,57.39,0,0,1,158,324a65.58,65.58,0,0,1,4.78,7.74,67,67,0,0,1,3.57,8.37,58.43,58.43,0,0,1,1.93,7.16c.24,1,.36,2,.49,2.81a21.34,21.34,0,0,1,.25,2.13A6.34,6.34,0,0,1,169,354.05Z" style="fill:#fff"></path></g><g id="freepik--character-2--inject-70"><path d="M445.17,230.37c1.12-6.92-1.74-13.76-3.54-20.53-2.61-9.87-3-20.18-3.47-30.38s-1.19-20.53-4.4-30.23-9.29-18.82-18.27-23.69-21.08-4.61-28.64,2.26l6.21,25.76A485.47,485.47,0,0,0,404.22,263.9a142.82,142.82,0,0,0,33.43-1.39c2.27-.36,4.88-1.05,5.76-3.17,1.07-2.57-1.13-5.21-2.16-7.8-1.35-3.41-.67-7.28.51-10.75S444.58,234,445.17,230.37Z" style="fill:#263238"></path><path d="M402.43,133.28a27.88,27.88,0,0,0-12.14-6.1,9.4,9.4,0,0,0-5.51.07c-1.73.69-3.13,2.52-2.76,4.35l12,14.5c2.28,1.84,5.72,1.26,8.24-.23,1.95-1.16,3.7-3,4-5.21C406.64,137.79,404.62,135.17,402.43,133.28Z" style="fill:#FF0000"></path><path d="M353.11,285.28Z" style="fill:#ffbe9d"></path><path d="M324.77,183.64c.24-22.32,17.82-41.54,40.52-42.63,24.08-1.17,44,17.43,44.34,40.83l-1,94.32a8.19,8.19,0,0,1-1.8,5c-6.08,7.67-16.52,13.28-25.52,13.89-8.73.59-17.34-2.27-24.39-6.87a8,8,0,0,1-3.58-7.16L354.43,260a.12.12,0,0,0-.13-.14,28.88,28.88,0,0,1-5.88-.58c-5.47-1.75-19.26-8.19-22.55-29.33C324.78,222.91,324.55,203.22,324.77,183.64Z" style="fill:#ffbe9d"></path><path d="M353.49,216.52c0-.21-2.29-.6-6-1.07-.95-.1-1.85-.29-2-.93a4.77,4.77,0,0,1,.65-2.77l2.86-7.11c4-10.13,6.84-18.46,6.42-18.61s-4,7.93-7.93,18.07c-.95,2.49-1.87,4.87-2.74,7.15-.36,1.06-1,2.27-.51,3.67a2.35,2.35,0,0,0,1.56,1.37,6.71,6.71,0,0,0,1.61.22C351.13,216.71,353.48,216.73,353.49,216.52Z" style="fill:#263238"></path><path d="M336,199.79a3.41,3.41,0,0,0,3.32,3.44,3.31,3.31,0,0,0,3.58-3.07,3.4,3.4,0,0,0-3.31-3.43A3.3,3.3,0,0,0,336,199.79Z" style="fill:#263238"></path><path d="M331.43,188c.38.57,3.23-1.57,6.94-1.29s6.22,2.73,6.68,2.21c.22-.22-.12-1.24-1.21-2.37a8.15,8.15,0,0,0-5.27-2.44,8.27,8.27,0,0,0-5.59,1.7C331.73,186.8,331.25,187.76,331.43,188Z" style="fill:#263238"></path><path d="M371.32,201.16a3.4,3.4,0,0,0,3.31,3.44,3.32,3.32,0,0,0,3.59-3.07,3.41,3.41,0,0,0-3.31-3.43A3.31,3.31,0,0,0,371.32,201.16Z" style="fill:#263238"></path><path d="M366.58,188.43c.49.52,3.21-2,7.23-2.25s7.06,1.84,7.48,1.26c.2-.26-.31-1.22-1.65-2.19a9.36,9.36,0,0,0-11.74.79C366.72,187.19,366.34,188.2,366.58,188.43Z" style="fill:#263238"></path><path d="M354.44,259.83s14.37,1.17,32.42-9.45c0,0-5.78,18.68-32.78,16.18Z" style="fill:#eb996e"></path><path d="M355,225.35a6.81,6.81,0,0,1,6-2.45,6.11,6.11,0,0,1,4.21,2.23,3.76,3.76,0,0,1,.27,4.37c-1,1.38-3.11,1.7-4.89,1.21a14.12,14.12,0,0,1-4.74-2.8,4.18,4.18,0,0,1-1.06-1.08,1.2,1.2,0,0,1,0-1.37" style="fill:#eb996e"></path><path d="M362,174.39c.35,1,4.08.6,8.43,1.2s7.87,1.83,8.47.95c.27-.42-.33-1.37-1.73-2.36a15,15,0,0,0-12.87-1.63C362.68,173.15,361.86,173.92,362,174.39Z" style="fill:#263238"></path><path d="M330.89,179.64c.8.81,3.83-.14,7.5-.29s6.78.36,7.48-.53c.3-.43-.21-1.25-1.58-2a12.75,12.75,0,0,0-12.07.66C331,178.38,330.54,179.24,330.89,179.64Z" style="fill:#263238"></path><path d="M362.31,136.08c2.18-3.17,5.89-4.42,10-4.75,16.63-1.33,34.3,9.87,42.54,24.37s7.29,35.2-.53,49.93l-6.25.64c-12.8-1.67-31.9-39-48.53-60.05C357.43,143.61,360.43,138.82,362.31,136.08Z" style="fill:#263238"></path><path d="M330.06,144.65c7.43-7.34,19.28-16.1,33.19-9.66,1.82,4.15-2.78,9-6.54,11.83-5.49,4.08-10.23,6.76-13.85,9.7-7.33,5.94-16.6,16-18.1,27.73-.09.73-.67.8-1.4.63-.95-.21-2.83-5.18-3.51-11.67C318.39,159.39,322.63,152,330.06,144.65Z" style="fill:#263238"></path><path d="M404.47,198.49c.4-.19,16-5.13,15.86,10.92S404.09,222,404.06,221.54,404.47,198.49,404.47,198.49Z" style="fill:#ffbe9d"></path><path d="M409,215.5c.07-.05.27.2.75.42a2.76,2.76,0,0,0,2.08.07c1.71-.61,3.16-3.29,3.27-6.18a9.23,9.23,0,0,0-.75-4,3.22,3.22,0,0,0-2.08-2.17,1.44,1.44,0,0,0-1.66.75c-.21.45-.12.77-.2.8s-.34-.28-.21-.94a1.8,1.8,0,0,1,.64-1,2.11,2.11,0,0,1,1.55-.39,3.94,3.94,0,0,1,2.9,2.52,9.42,9.42,0,0,1,.93,4.48c-.14,3.23-1.82,6.25-4.15,6.89a3,3,0,0,1-2.56-.45C409.05,215.89,409,215.53,409,215.5Z" style="fill:#eb996e"></path><path d="M326.6,147.69a18,18,0,0,0,4.63.86,66.19,66.19,0,0,0,11.38.2A65.39,65.39,0,0,0,353.86,147c2.82-.72,4.51-1.36,4.47-1.48s-1.79.26-4.62.79a97.7,97.7,0,0,1-11.17,1.46,95.15,95.15,0,0,1-11.25.08C328.41,147.7,326.62,147.54,326.6,147.69Z" style="fill:#455a64"></path><path d="M320.61,158.9a9.31,9.31,0,0,0,3.44,1,27,27,0,0,0,16.89-2.79c1.95-1.06,3-2,2.93-2.06-.15-.29-4.74,2.81-11.31,3.85S320.66,158.58,320.61,158.9Z" style="fill:#455a64"></path><path d="M416.57,161.27c0-.21-3.5.23-9.08-.21a69.91,69.91,0,0,1-9.7-1.5A88.57,88.57,0,0,1,386.32,156a97.27,97.27,0,0,1-10.85-5.21,88.1,88.1,0,0,1-8.26-5.34c-4.53-3.3-7-5.74-7.16-5.61a12,12,0,0,0,1.67,1.8,27.62,27.62,0,0,0,2.12,1.95c.85.74,1.81,1.59,3,2.43a76.46,76.46,0,0,0,8.22,5.56A88.52,88.52,0,0,0,386,156.87a81.7,81.7,0,0,0,11.64,3.58,61.49,61.49,0,0,0,9.85,1.31,35.66,35.66,0,0,0,3.82.05,22.79,22.79,0,0,0,2.88-.18A12.62,12.62,0,0,0,416.57,161.27Z" style="fill:#455a64"></path><path d="M360.83,145.46a13,13,0,0,0,1.16,2.29,28.52,28.52,0,0,0,1.57,2.58c.66,1,1.34,2.14,2.27,3.3a66.91,66.91,0,0,0,6.81,7.87,71.17,71.17,0,0,0,9.89,8.06,70.37,70.37,0,0,0,11.28,6,61.51,61.51,0,0,0,9.94,3.12c1.44.38,2.78.54,3.93.74a25.55,25.55,0,0,0,3,.37,12.19,12.19,0,0,0,2.57.11c0-.2-3.64-.47-9.33-1.9a69,69,0,0,1-9.75-3.28,73.9,73.9,0,0,1-11.09-6,74.92,74.92,0,0,1-9.8-7.89,73.46,73.46,0,0,1-6.9-7.64C362.78,148.56,361,145.36,360.83,145.46Z" style="fill:#455a64"></path><path d="M372.27,131.33c0-.1-1.23-.34-3.22,0a13.94,13.94,0,0,0-6.8,3.81,11.92,11.92,0,0,0-1.43,1.77,9.56,9.56,0,0,0-.89,1.92,22.62,22.62,0,0,0-1.08,3.32c-.42,2,0,3.27.07,3.23s0-1.23.61-3.05a31.79,31.79,0,0,1,1.25-3.15,9.39,9.39,0,0,1,.86-1.74,12.86,12.86,0,0,1,1.32-1.6,15.26,15.26,0,0,1,6.27-3.82C371.05,131.52,372.28,131.5,372.27,131.33Z" style="fill:#455a64"></path><path d="M398.08,192.62c0-.23-3.86-.07-9.56-2.19a40.93,40.93,0,0,1-18.35-14.34,64.28,64.28,0,0,1-9.61-21.54c-.76-3-1.26-5.37-1.59-7a15.67,15.67,0,0,0-.6-2.59,13,13,0,0,0,.22,2.65c.21,1.7.61,4.15,1.29,7.15a60.59,60.59,0,0,0,9.48,21.95c5.55,7.69,13.07,12.52,18.92,14.42a29.23,29.23,0,0,0,7.13,1.53,16.47,16.47,0,0,0,2,.06C397.84,192.68,398.08,192.66,398.08,192.62Z" style="fill:#263238"></path><path d="M318.14,208a2.61,2.61,0,0,0,1.91-.19,3.57,3.57,0,0,0,1.48-1.67,3.64,3.64,0,0,0,0-2.91,10.21,10.21,0,0,0-2.12-3.05,23.38,23.38,0,0,1-2.89-3.41,6.31,6.31,0,0,1-.9-2.34,5.33,5.33,0,0,1,.27-2.62,12.21,12.21,0,0,1,3-4.39,17.41,17.41,0,0,0,3.25-3.95,7.73,7.73,0,0,0,.67-4.54c-.39-3-1.62-5.62-1.89-8a8.77,8.77,0,0,1,.77-5.54,4.54,4.54,0,0,1,1-1.2c.28-.22.43-.33.44-.31a10.24,10.24,0,0,0-1.15,1.64,8.87,8.87,0,0,0-.5,5.34c.31,2.29,1.58,4.84,2,8a8.27,8.27,0,0,1-.7,5,17.74,17.74,0,0,1-3.36,4.13,11.84,11.84,0,0,0-2.9,4.12,4.91,4.91,0,0,0,.53,4.37,23.41,23.41,0,0,0,2.77,3.34A10.53,10.53,0,0,1,322,203a4.07,4.07,0,0,1-.07,3.26,3.82,3.82,0,0,1-1.73,1.76,2.29,2.29,0,0,1-1.55.17A1.14,1.14,0,0,1,318.14,208Z" style="fill:#263238"></path><path d="M417.46,199.32a3,3,0,0,1,.17-.83c.12-.54.36-1.32.59-2.35a70.86,70.86,0,0,0,1.6-8.73A60.85,60.85,0,0,0,420,174.3a51.61,51.61,0,0,0-3.84-15.53,40,40,0,0,0-4.07-7.21,43.34,43.34,0,0,0-5.08-5.82A53.92,53.92,0,0,0,396.5,138a74.56,74.56,0,0,0-8-3.92c-1-.43-1.73-.71-2.23-.94a3.83,3.83,0,0,1-.77-.36,3.15,3.15,0,0,1,.82.22c.52.18,1.31.42,2.29.81a62.19,62.19,0,0,1,8.1,3.74,51.62,51.62,0,0,1,10.77,7.73,42.86,42.86,0,0,1,5.2,5.89,39.67,39.67,0,0,1,4.16,7.34,51.12,51.12,0,0,1,3.84,15.76,58.68,58.68,0,0,1-.38,13.24,60.65,60.65,0,0,1-1.84,8.74c-.27,1-.56,1.78-.73,2.31A4.52,4.52,0,0,1,417.46,199.32Z" style="fill:#455a64"></path><path d="M405.12,250.15a2.72,2.72,0,0,1-.47-.51,10.55,10.55,0,0,1-1.1-1.64,15.45,15.45,0,0,1-2-6.95,16,16,0,0,1,.55-5,30.58,30.58,0,0,1,2.32-5.26c.85-1.75,1.52-3.9.45-5.71s-3.08-3-4.45-5.06a3.77,3.77,0,0,1-.32-3.62,15.86,15.86,0,0,1,2-2.79,5.88,5.88,0,0,0,.64-5.68,15.92,15.92,0,0,0-2.87-4.77A30.41,30.41,0,0,1,397,199a7.5,7.5,0,0,1-.41-7.1,3.94,3.94,0,0,1,1.33-1.48,1.85,1.85,0,0,1,.62-.31,5.12,5.12,0,0,0-1.69,1.93,7.25,7.25,0,0,0,.61,6.71,30,30,0,0,0,2.92,4,16.29,16.29,0,0,1,3,4.94,8.12,8.12,0,0,1,.49,3.17,5.85,5.85,0,0,1-1.19,3.16,17.2,17.2,0,0,0-1.88,2.65,3,3,0,0,0,.28,2.94c1.19,1.84,3.31,3,4.46,5.1a5.1,5.1,0,0,1,.56,3.34,11,11,0,0,1-1,3,31.15,31.15,0,0,0-2.35,5.14,15.79,15.79,0,0,0-.62,4.83,16.19,16.19,0,0,0,1.71,6.84C404.57,249.37,405.18,250.1,405.12,250.15Z" style="fill:#263238"></path><path d="M455.89,244c.11.2-.19.72-1.18,1.09a5.46,5.46,0,0,1-4.48-.64,7.82,7.82,0,0,1-2.49-2.29,7.74,7.74,0,0,1-.95-1.81,9.74,9.74,0,0,1-.49-2.05,17.57,17.57,0,0,1,1.62-8.87c1.17-2.83,2.58-5.62,2.7-8.15s-1-5.32-2.88-8.38-4.59-6.35-6.63-10.62a52.74,52.74,0,0,1-4.26-13.34c-1.73-9.26-1.83-17.87-2.78-25.32a58.16,58.16,0,0,0-5.26-18.72,31.56,31.56,0,0,0-7.87-10.23c-1.22-.95-2.19-1.74-2.89-2.24s-1-.95-.94-1.19.59-.3,1.51-.19a13.91,13.91,0,0,1,3.85,1.18,27.08,27.08,0,0,1,10.87,10,54.4,54.4,0,0,1,7.48,20.35c1.38,7.94,1.7,16.52,3.31,24.93a49.68,49.68,0,0,0,3.53,11.61c1.51,3.45,3.9,6.61,5.95,10.28a27.2,27.2,0,0,1,2.56,5.9,15.94,15.94,0,0,1,.56,6.58,18.77,18.77,0,0,1-1.83,5.61c-.77,1.57-1.57,2.91-2.25,4.14a15,15,0,0,0-2.22,6.36,6.77,6.77,0,0,0,.06,1.29,4.44,4.44,0,0,0,.29,1.05,5.33,5.33,0,0,0,1.15,1.75C453.81,244.07,455.69,243.49,455.89,244Z" style="fill:#263238"></path><path d="M367.21,225.29c0,.32-3.29.39-7.17,1.31s-6.78,2.47-6.93,2.21,2.61-2.28,6.69-3.22S367.23,225,367.21,225.29Z" style="fill:#263238"></path><polygon points="332.13 276.82 363.66 274.19 408.63 276.16 438.68 281.65 390.93 309.45 355.41 304.89 332.13 276.82" style="fill:#ffbe9d"></polygon><path d="M331.68,276.82s-25,5.78-33.44,14.22-17.19,38.63-19,47.51-7.55,83.95-4,94.61S292.6,452.7,309,456.25s44,6.22,44,6.22L366.77,419l-46.32-12.44Z" style="fill:#FF0000"></path><path d="M386.19,410.06l38.61,1.55s10.88-12.09,13.6-27.81,1.51-26.91,1.51-26.91l10.89-71.95s15.41-.6,21.76,18.14.63,73.82,0,88.28c-.51,11.74-6.75,39.33-15.79,55.5-3.86,6.91-10.58,10.3-14.74,10.54-13.91.77-53.81-5.58-53.81-5.58l-2-40.51" style="fill:#FF0000"></path><path d="M331.68,276.82s25.68,12.4,61.89,10.7,37.13-7.67,37.13-7.67l22.13,5.29-5.57,111-10.83,47.45,9.14,32.91L286,476l20.66-59.43Z" style="fill:#FF0000"></path><path d="M392.48,407.62a11.31,11.31,0,0,1,1.9-.39c1.24-.2,3.08-.46,5.44-.72,4.71-.56,11.53-.83,19.68-2l-.36.39c.54-10.68.55-24,1.07-38.39.34-9.06,1-17.7,2-25.51a151.69,151.69,0,0,1,4.14-20.49,107.75,107.75,0,0,1,4.66-13.3c.64-1.53,1.21-2.7,1.6-3.48a6.62,6.62,0,0,1,.64-1.17,6.5,6.5,0,0,1-.45,1.26c-.33.81-.83,2-1.42,3.54a127.16,127.16,0,0,0-4.32,13.34,159.21,159.21,0,0,0-3.89,20.43c-1,7.77-1.62,16.37-2,25.42-.52,14.37-.61,27.69-1.26,38.4l0,.34-.33.05c-8.24,1.13-15.05,1.28-19.77,1.69-2.36.18-4.2.37-5.45.49A12,12,0,0,1,392.48,407.62Z" style="fill:#263238"></path><path d="M310.62,370.42a8.6,8.6,0,0,1-.36-2.15c-.18-1.39-.36-3.41-.54-5.91-.36-5-.6-11.92-.41-19.57s.79-14.56,1.4-19.53c.31-2.49.59-4.5.84-5.88a9.19,9.19,0,0,1,.47-2.13,7.92,7.92,0,0,1-.07,2.18c-.12,1.47-.3,3.47-.51,5.9-.42,5-.89,11.87-1.09,19.48s-.06,14.52.1,19.51c.09,2.45.16,4.45.21,5.92A9,9,0,0,1,310.62,370.42Z" style="fill:#263238"></path><path d="M385.84,448.68a3.59,3.59,0,0,1-1,.31c-.64.17-1.59.4-2.81.69-2.44.55-6,1.32-10.4,2.12a322.71,322.71,0,0,1-34.75,4.42c-6.83.48-13.33.82-19.29.81A57.86,57.86,0,0,1,302,455.1a32.69,32.69,0,0,1-5.68-2.22,27.26,27.26,0,0,1-3.87-2.49l-1.29-1.08c-.34-.34-.62-.65-.85-.88-.46-.49-.68-.75-.65-.78a4.05,4.05,0,0,1,.79.62l.92.8,1.32,1a29.43,29.43,0,0,0,3.89,2.3,34.14,34.14,0,0,0,5.61,2,60,60,0,0,0,15.49,1.68c5.89,0,12.4-.41,19.21-.89,13.61-1,25.86-2.67,34.69-4.1,4.42-.71,8-1.37,10.45-1.8,1.23-.22,2.19-.39,2.84-.49A3.81,3.81,0,0,1,385.84,448.68Z" style="fill:#263238"></path><path d="M429.14,416.28c-.3.1-1.33-3.44-4.31-6.69s-6.33-4.69-6.2-5c0-.12,1,.06,2.32.72a16.06,16.06,0,0,1,7.72,8.56C429.18,415.31,429.27,416.25,429.14,416.28Z" style="fill:#263238"></path><g style="opacity:0.30000000000000004"><path d="M277.68,416.67c8.52,6.18,17.57,12.56,28,13.69,7.38.8,14.81-1.13,22.23-.92,9.86.28,19.25,4.33,27.77,9.3s16.45,10.95,25.12,15.66c9.4,5.09,19.72,8.68,30.38,9.54s21.66-1.11,30.92-6.46c-13,1.55-30.27,1.07-43.84-3.34-15.12-4.9-17.71-8.85-26.4-13.72-11.26-6.3-21.18-15.05-33.15-19.84a56.21,56.21,0,0,0-32-2.87c-5.35,1.1-11.06,3-16.06.76-2.22-1-4.08-2.69-6.33-3.58s-5.34-.63-6.47,1.52"></path></g><path d="M397.73,385.4a5,5,0,0,1-1.7.3,14.26,14.26,0,0,1-2,.12,24.44,24.44,0,0,1-2.68,0,31,31,0,0,1-3.24-.3c-1.16-.13-2.38-.41-3.67-.67A41.08,41.08,0,0,1,369,377.57c-1-.82-2-1.58-2.86-2.4a31.35,31.35,0,0,1-2.31-2.29c-.7-.71-1.23-1.44-1.73-2.05a15.9,15.9,0,0,1-1.19-1.63,5.77,5.77,0,0,1-.86-1.5c.16-.11,1.55,1.9,4.31,4.67.7.68,1.46,1.43,2.35,2.16s1.84,1.49,2.86,2.27a49,49,0,0,0,7.2,4.26,47.78,47.78,0,0,0,7.87,2.82c1.25.29,2.44.6,3.57.75s2.19.33,3.16.43C395.28,385.42,397.72,385.21,397.73,385.4Z" style="fill:#263238"></path><path d="M465.75,424.83a17.66,17.66,0,0,1-.95,3.65c-.73,2.32-1.84,5.66-3.39,9.72a67.21,67.21,0,0,1-2.83,6.55,27,27,0,0,1-5,6.57,26.73,26.73,0,0,1-17.06,7.44,112.72,112.72,0,0,1-18.71-.75c-5.71-.68-10.81-1.61-15.06-2.54s-7.63-1.9-9.95-2.64c-1.16-.35-2.05-.68-2.65-.9a3.18,3.18,0,0,1-.89-.4,33.47,33.47,0,0,1,3.65.91c2.35.62,5.75,1.46,10,2.31s9.33,1.68,15,2.3a116.93,116.93,0,0,0,18.54.67,26,26,0,0,0,16.45-7.09,26.34,26.34,0,0,0,4.9-6.29c1.19-2.2,2.07-4.43,2.91-6.41,1.63-4,2.84-7.3,3.69-9.58.4-1.1.72-2,1-2.62A4,4,0,0,1,465.75,424.83Z" style="fill:#263238"></path><path d="M290.1,353.74s22.55,17.48,23.31,19.5,8.36,13.94,14.69,19,64.38,16.93,64.38,16.93l-3.33,41.51s-47.62-28.8-61.81-28-25.33,3.55-31.41,1.52-21.35-11.65-21.35-11.65-2.63-5.32.24-7.86c0,0-1.74-5.57-1.34-8.1,0,0-2.3-5.81-.06-8.11,0,0-.55-8.61,4.26-8.61s13.94,1.52,18.25,1.27a6.9,6.9,0,0,0,5.82-3.3s0-2.28-3.54-4.81S281.23,360.07,290.1,353.74Z" style="fill:#ffbe9d"></path><path d="M286.05,396.76c-.11.25-3.42-.94-7-3.31s-6.07-4.9-5.88-5.1,2.9,1.93,6.45,4.23S286.17,396.48,286.05,396.76Z" style="fill:#eb996e"></path><path d="M287,405.78c-.06.25-4-.83-8.12-3.77s-6.4-6.35-6.18-6.49,2.83,2.83,6.78,5.64S287.14,405.49,287,405.78Z" style="fill:#eb996e"></path><path d="M288.07,412.86c0,.26-3.86-.34-7.84-2.86s-6.2-5.67-6-5.81,2.71,2.56,6.54,4.93S288.16,412.55,288.07,412.86Z" style="fill:#eb996e"></path><path d="M309.09,337.32c0,.34-6.46-1.11-14.36-.13s-13.8,3.8-13.93,3.49c-.05-.11,1.34-1,3.79-2a39.73,39.73,0,0,1,20.35-2.41C307.56,336.68,309.11,337.2,309.09,337.32Z" style="fill:#fff"></path><path d="M419.05,345a3.81,3.81,0,0,1-1.05.35l-3.07.81c-1.34.35-3,.75-4.9,1.15s-4.1.92-6.53,1.34-5.09.94-8,1.36-6,.83-9.19,1.24c-6.49.72-13.66,1.28-21.19,1.51s-14.73,0-21.25-.33c-3.26-.22-6.36-.41-9.24-.73s-5.58-.59-8-.91-4.65-.67-6.59-1-3.6-.6-5-.88l-3.11-.63a5,5,0,0,1-1.07-.29,4,4,0,0,1,1.11.08l3.14.44c1.36.21,3,.47,5,.7s4.15.58,6.6.82,5.13.57,8,.78,6,.44,9.22.63c6.5.31,13.66.44,21.17.25s14.64-.76,21.11-1.42c3.24-.38,6.31-.71,9.17-1.15s5.53-.82,8-1.23,4.62-.83,6.54-1.18,3.58-.69,4.93-1l3.11-.62A5.07,5.07,0,0,1,419.05,345Z" style="fill:#fff"></path><path d="M471.47,341.91c-.11.17-2.35-1.63-6.59-3.26a42.72,42.72,0,0,0-17.38-2.5,95.33,95.33,0,0,0-17.51,3c-4.44,1.1-7.19,1.79-7.23,1.64a7.78,7.78,0,0,1,1.85-.74c1.22-.41,3-1,5.19-1.61a79.5,79.5,0,0,1,17.65-3.28A40,40,0,0,1,465.16,338a26.17,26.17,0,0,1,4.78,2.64A6.31,6.31,0,0,1,471.47,341.91Z" style="fill:#fff"></path><g style="opacity:0.30000000000000004"><path d="M360.83,368.65l.32.9c1.38,8.73,7.26,16.77,15.43,20.17s18.36,1.71,24.6-4.55C386.08,388.45,369.29,381.58,360.83,368.65Z"></path></g><g style="opacity:0.30000000000000004"><path d="M440.58,416.91c-1.34-3.61-4.8-5.94-8.2-7.75a73.22,73.22,0,0,0-13.83-5.63l.12,1.35a47.19,47.19,0,0,1,13.18,14.35c1.29,2.19,2.95,4.8,5.48,4.7a4,4,0,0,0,3.37-2.61A6.32,6.32,0,0,0,440.58,416.91Z"></path></g></g><g id="freepik--Desk--inject-70"><path d="M665.12,476.52c0,.29-129.9.52-290.11.52s-290.13-.23-290.13-.52S214.76,476,375,476,665.12,476.24,665.12,476.52Z" style="fill:#263238"></path></g></svg>